<?xml version="1.0" standalone="no"?>
<!DOCTYPE svg PUBLIC "-//W3C//DTD SVG 1.1//EN" "http://www.w3.org/Graphics/SVG/1.1/DTD/svg11.dtd" >
<svg xmlns="http://www.w3.org/2000/svg" xmlns:xlink="http://www.w3.org/1999/xlink" version="1.1">
<metadata>
Created by FontForge 20200314 at Wed Mar  4 19:09:39 2015
 By Unknown
Copyright (c) 2014 by Carolina Marando and Alejandro Paul. All rights reserved. www.sudtipos.com, with Reserved Font Name "Distillery Strong"
</metadata>
<defs>
<font id="DistilleryStrongW00-Regular" horiz-adv-x="639" >
  <font-face 
    font-family="DistilleryStrongW00-Regular"
    font-weight="400"
    font-stretch="normal"
    units-per-em="1000"
    panose-1="1 0 0 0 0 0 0 0 0 0"
    ascent="800"
    descent="-200"
    x-height="737"
    cap-height="746"
    bbox="-78 -329 1190 997"
    underline-thickness="50"
    underline-position="-175"
    unicode-range="U+0020-FB02"
  />
<missing-glyph horiz-adv-x="350" 
 />
    <glyph glyph-name=".notdef" horiz-adv-x="350" 
 />
    <glyph glyph-name=".null" horiz-adv-x="0" 
 />
    <glyph glyph-name="nonmarkingreturn" horiz-adv-x="333" 
 />
    <glyph glyph-name="space" unicode=" " horiz-adv-x="350" 
 />
    <glyph glyph-name="exclam" unicode="!" horiz-adv-x="276" 
d="M210 915q24 0 42 -17.5t18 -43.5l-44 -252q0 -16 5.5 -24.5t12 -13.5t12 -8t5.5 -9v-2q-2 -7 -8 -7.5t-14 -2t-16.5 -7.5t-14.5 -23q-9 -53 -18 -102t-16 -89t-11.5 -66.5t-5.5 -32.5q-3 -19 -12.5 -24.5t-26.5 -5.5q-11 0 -21 8.5t-10 28.5v2q0 4 2.5 29.5t5.5 64.5
t7.5 88t9.5 102q-2 15 -8.5 22.5t-13.5 12t-12.5 7t-5.5 8.5v1q0 7 6 8.5t14 4t16 8.5t12 24q4 49 8.5 94t8 81t6 60.5t3.5 31.5q1 4 5 11.5t11.5 15t19.5 12.5t28 5zM101 113q27 0 40.5 -17.5t13.5 -40.5t-14 -43t-40 -23h-4q-26 0 -39.5 19.5t-13.5 42.5q0 22 12 40.5
t38 21.5h7z" />
    <glyph glyph-name="quotedbl" unicode="&#x22;" horiz-adv-x="258" 
d="M106 730q8 -24 12.5 -47t4.5 -48q0 -6 -2.5 -29t-9.5 -48t-18.5 -45t-30.5 -20q-10 0 -10 9q0 3 1 6t2 5q5 22 9 43t4 42q0 24 -6 47.5t-22 48.5q-5 8 -10 15.5t-5 15.5q0 13 12.5 19.5t27.5 6.5q14 0 25.5 -5t15.5 -16zM217 743q8 -24 12.5 -47t4.5 -48q0 -29 -6 -60
t-19 -69q-1 -2 -4 -8.5t-8 -13.5t-11 -12.5t-12 -5.5q-10 0 -10 9q0 3 1 6t2 5q5 19 7.5 40t2.5 43q0 32 -6 64t-20 61q-5 9 -10 16t-5 15q0 13 12.5 19.5t27.5 6.5q14 0 25.5 -5t15.5 -16z" />
    <glyph glyph-name="numbersign" unicode="#" horiz-adv-x="658" 
d="M592 338q12 0 20.5 -10t8.5 -23q0 -9 -4 -13q-2 -2 -4.5 -3t-8.5 -2t-17.5 -1h-30.5h-83v-127q-2 -19 -19 -19q-11 0 -20.5 6.5t-10.5 17.5t-2 44t-2 78h-182q-1 -39 -1.5 -67t-0.5 -35q0 -6 -5 -9.5t-12 -3.5q-8 0 -15 5.5t-8 16.5q-1 8 -2 33.5t-1 60.5q-49 1 -78 2
t-44.5 2.5t-21 3t-6.5 3.5q-5 8 -5 15q0 4 1 6q5 11 16 15q4 1 40.5 1.5t96.5 0.5v91q-43 -3 -69 -5.5t-41.5 -4.5t-23 -3.5t-12.5 -1.5q-11 0 -18 6t-7 22q0 9 5 14.5t11 8.5q3 1 15.5 2.5t33 3t47.5 3.5t58 4q0 45 -1 78t-1 42t5.5 15.5t16.5 6.5q10 0 19.5 -7t10.5 -19
q1 -5 1 -16.5v-28.5v-31.5t-1 -37.5q44 2 88.5 3t86.5 2v113q2 22 27 22q8 0 20 -5t12 -16q0 -8 -0.5 -39.5t-0.5 -73.5q61 0 94.5 -1.5t49.5 -4.5t18.5 -8t2.5 -12q0 -14 -14 -18t-27 -4h-64.5t-59.5 -1v-98q48 0 81 0.5t38 0.5zM239 430q0 -23 -0.5 -47t-0.5 -47h30h37
t48 0.5t65 0.5q-1 24 -1.5 48.5t-0.5 48.5q-55 -1 -98.5 -1.5t-78.5 -2.5z" />
    <glyph glyph-name="dollar" unicode="$" horiz-adv-x="390" 
d="M309 358q27 -42 44 -88t17 -95q0 -29 -7 -59.5t-24 -61.5q-21 -38 -60 -54t-82 -19q-2 -24 -3 -48t-1 -50v-2q0 -5 -1.5 -13.5t-5 -16t-10.5 -13t-19 -5.5q-11 0 -15.5 10.5t-4.5 21.5q0 10 1 40t3 77q-24 2 -47.5 6.5t-42 10.5t-30 14.5t-11.5 17.5q0 8 4.5 14.5
t7.5 13.5q22 45 31 72.5t12.5 43.5t7 21.5t14.5 5.5t11 -30q0 -15 -2.5 -35.5t-4.5 -42.5q0 -3 -0.5 -6t-0.5 -6t-0.5 -6t-0.5 -5q0 -29 16 -42.5t38 -17.5q2 60 6 133t8 154q-5 3 -10 3.5t-10 0.5q-9 0 -16.5 -2.5t-12.5 -2.5q-10 0 -10 9q0 8 8.5 16t8.5 22q0 10 -9 27
q-38 54 -66.5 108t-28.5 105q0 37 12.5 64.5t34.5 47t52 30.5t66 16q2 55 3.5 82.5t1.5 29.5q1 6 2.5 14.5t5.5 15.5t10 12t15 5q11 0 14 -8.5t4 -12.5q0 -21 -1 -51.5t-3 -83.5q18 0 37.5 -1.5t36 -3.5t28 -4.5t13.5 -5.5q1 -1 1 -4q0 -7 -6.5 -23t-14.5 -37.5t-15.5 -46.5
t-9.5 -49q0 -4 -6 -4q-4 0 -8 2.5t-4 10.5q0 5 0.5 9.5t0.5 11.5q0 12 -2 29.5t-8 34.5t-16.5 30t-27.5 18l-9 -237l38 -44q9 -9 17 -12t16 -3t14 1.5t11 1.5q10 0 10 -10q0 -4 -3 -7.5t-6 -7.5t-6 -9.5t-3 -12.5t3 -14zM198 16q27 8 45.5 29.5t18.5 53.5q0 29 -15.5 64.5
t-38.5 70.5zM174 711q-40 -8 -56.5 -27.5t-18.5 -45.5v-3q0 -19 19.5 -45t48.5 -59l5 115z" />
    <glyph glyph-name="percent" unicode="%" horiz-adv-x="538" 
d="M417 822q10 0 17 -7.5t7 -18.5q0 -9 -3 -16q-2 -6 -15.5 -41.5t-34.5 -90t-47 -122.5t-53 -139t-53.5 -140.5t-48.5 -126.5t-37.5 -97t-20.5 -52q-3 -8 -8 -16t-17 -8q-14 0 -24 7.5t-5 22.5q9 23 30.5 81t59 157.5t92.5 243t130 337.5q4 12 12.5 19t18.5 7zM123 483
q-18 0 -29.5 7.5t-19 20t-11.5 28t-6 30.5q-4 9 -10.5 14t-12.5 8t-10 5.5t-4 7.5v1q0 6 4.5 8t11 3.5t13.5 5t13 12.5q2 7 3.5 13t3.5 12q5 13 14 26.5t22.5 25t33 18.5t46.5 7q35 0 52.5 -16t20.5 -52q4 -8 10 -12.5t11 -7.5t9 -5.5t4 -7.5v-1q-1 -6 -5.5 -7.5t-10.5 -3
t-12.5 -4t-12.5 -9.5q-5 -21 -16 -43.5t-27.5 -41t-38 -30.5t-46.5 -12zM349 -6q-18 0 -29.5 7.5t-19 20t-11.5 28t-6 30.5q-4 9 -10.5 14t-12.5 8t-10 5.5t-4 7.5v1q0 6 4.5 8t11 3.5t13.5 5t13 12.5q2 7 3.5 13t3.5 12q5 13 14 26.5t22.5 25t33 18.5t46.5 7q35 0 52.5 -16
t20.5 -52q4 -8 10 -12.5t11 -7.5t9 -5.5t4 -7.5v-1q-1 -6 -5.5 -7.5t-10.5 -3t-12.5 -4t-12.5 -9.5q-5 -21 -16 -43.5t-27.5 -41t-38 -30.5t-46.5 -12zM190 671q0 19 -5 27.5t-13 8.5q-9 0 -19.5 -10t-19.5 -27.5t-15 -42t-6 -53.5q0 -33 6 -48t15 -15t19 12.5t18.5 34
t14 50.5t5.5 63zM416 182q0 19 -5 27.5t-13 8.5q-9 0 -19.5 -10t-19.5 -27.5t-15 -42t-6 -53.5q0 -33 6 -48t15 -15t19 12.5t18.5 34t14 50.5t5.5 63z" />
    <glyph glyph-name="ampersand" unicode="&#x26;" horiz-adv-x="718" 
d="M186 621q0 40 14 69t37 47.5t52 27t59 8.5q29 0 57 -8t49.5 -22.5t34.5 -36t13 -48.5t-10 -58.5t-29 -63t-46.5 -62.5t-62.5 -58q32 -69 71 -135.5t77 -121.5q14 29 19.5 60t5.5 60q0 13 -1 25t-3 23q-14 7 -27.5 12t-24.5 5h-2q-15 -2 -25 -11.5t-19 -20.5q-2 -2 -5 -2
q-8 0 -8 9q1 21 8.5 41.5t21.5 37t33 27t43 10.5q17 0 32.5 -6.5t29.5 -14t27.5 -13.5t26.5 -6q20 0 32 12.5t22 28.5q2 5 5 5q5 0 5 -8q0 -48 -24.5 -84.5t-79.5 -44.5v-10q0 -37 -11 -87.5t-44 -97.5q13 -17 24.5 -30.5t22.5 -23.5q11 -11 11 -23q0 -15 -13.5 -25.5
t-24.5 -10.5q-15 0 -36.5 13.5t-46.5 38.5q-35 -24 -84 -38.5t-116 -14.5q-30 0 -64.5 10.5t-65 33t-53.5 56t-30 80.5q-2 12 -9 18t-14.5 9.5t-13.5 7t-6 9.5t6.5 9t14 6t14.5 7.5t9 13.5q6 33 23 57.5t40 44t50.5 35.5t55.5 31q-22 54 -34.5 104t-12.5 94zM442 85
q-45 51 -91 120t-84 145q-29 -32 -42.5 -74.5t-13.5 -84.5q0 -29 6 -55.5t17.5 -46.5t27.5 -32t37 -12q47 0 82 10.5t61 29.5zM282 652q0 -34 12 -78t32 -94q48 36 69 77.5t21 77.5q0 41 -20.5 68.5t-52.5 27.5q-23 0 -42 -20.5t-19 -58.5z" />
    <glyph glyph-name="quotesingle" unicode="'" horiz-adv-x="147" 
d="M106 730q8 -24 12.5 -47t4.5 -48q0 -29 -6 -60t-19 -69q-1 -2 -4 -8.5t-8 -13.5t-11 -12.5t-12 -5.5q-10 0 -10 9q0 3 1 6t2 5q5 18 8.5 42t3.5 50q0 30 -6 60.5t-22 55.5q-5 8 -10 15.5t-5 15.5q0 13 12.5 19.5t27.5 6.5q14 0 25.5 -5t15.5 -16z" />
    <glyph glyph-name="parenleft" unicode="(" horiz-adv-x="342" 
d="M233 -134q-32 28 -69.5 75.5t-69.5 110.5t-53 139.5t-21 161.5q0 57 11.5 117t37.5 121.5t67.5 124.5t102.5 125q19 19 45 19q15 0 26.5 -10t11.5 -34q0 -5 -2.5 -8.5t-4.5 -7.5q-31 -41 -61.5 -88.5t-55 -101.5t-39.5 -115.5t-15 -130.5q0 -97 37.5 -213t122.5 -242
q3 -4 5.5 -9t2.5 -11q0 -15 -13.5 -26.5t-29.5 -11.5q-13 0 -22.5 5.5t-13.5 9.5z" />
    <glyph glyph-name="parenright" unicode=")" horiz-adv-x="342" 
d="M109 845q32 -28 69.5 -75.5t69.5 -110.5t53 -139.5t21 -161.5q0 -57 -11.5 -117t-37.5 -121.5t-67.5 -124.5t-102.5 -125q-19 -19 -45 -19q-15 0 -26.5 10t-11.5 34q0 5 2.5 8.5t4.5 7.5q31 41 61.5 88.5t55 101.5t39.5 115.5t15 130.5q0 97 -37.5 213t-122.5 242
q-3 4 -5.5 9t-2.5 11q0 15 13.5 26.5t29.5 11.5q13 0 22.5 -5.5t13.5 -9.5z" />
    <glyph glyph-name="asterisk" unicode="*" horiz-adv-x="350" 
d="M284 574q9 -9 9 -22q0 -9 -6.5 -17t-17.5 -8q-4 0 -10 2t-12 10q-3 4 -16 17.5t-30 31.5q0 -38 -1 -59t-3 -26q-2 -8 -8.5 -12t-14.5 -4q-9 0 -16.5 4.5t-8.5 14.5q0 13 0.5 30t0.5 44q-50 -49 -57 -52q-5 -3 -11 -3q-9 0 -17.5 7.5t-8.5 18.5q0 6 5 13q2 2 15.5 16
t46.5 46q-35 2 -58 3t-28 3q-17 3 -17 26q2 20 19 22q20 0 39 -0.5t38 -1.5q-21 23 -32.5 36t-14.5 18q-3 4 -3 10q0 10 8 18t19 8q6 0 12 -4l11.5 -11.5t33.5 -35.5q1 19 1 32.5v17.5q0 11 7 20.5t20 9.5q12 0 18 -9.5t6 -21.5v-23t-1 -41l29.5 29.5t15.5 16.5q10 10 23 10
q9 0 16.5 -7.5t7.5 -18.5q0 -4 -2 -9.5t-9 -11.5q-4 -3 -14.5 -14t-24.5 -25q14 -1 28.5 -1h28.5q12 0 21 -7t9 -20q0 -11 -8 -17.5t-19 -6.5q-15 0 -31 1t-34 2l46 -49v0z" />
    <glyph glyph-name="plus" unicode="+" horiz-adv-x="410" 
d="M184 512q0 14 5.5 20.5t13.5 6.5q10 0 19.5 -9.5t9.5 -23.5v-61t1 -59q45 2 72 4.5t42 2.5q8 0 14.5 -4.5t6.5 -13.5q0 -19 -15.5 -24t-32.5 -5q-9 0 -32.5 -1t-53.5 -2q1 -33 1.5 -65.5t0.5 -65.5q0 -11 -6 -16t-14 -5q-9 0 -16.5 5.5t-7.5 16.5q0 38 -0.5 70t-1.5 59
q-25 -1 -49.5 -1h-44.5q-8 0 -16 0.5t-18 0.5q-7 0 -14 4.5t-7 13.5q0 10 7 16.5t18 6.5q36 0 66.5 0.5t56.5 1.5q-2 50 -3.5 80.5t-1.5 46.5z" />
    <glyph glyph-name="comma" unicode="," horiz-adv-x="160" 
d="M20 22q0 28 16 42.5t36 14.5q24 0 46 -20.5t22 -64.5q0 -17 -4.5 -35t-13.5 -33.5t-23.5 -27.5t-33.5 -15q-8 0 -15 6t-7 16q0 7 5.5 11t11.5 9t11.5 12.5t5.5 22.5q0 8 -2 18q-3 -1 -9 -1q-17 0 -31.5 12.5t-14.5 32.5z" />
    <glyph glyph-name="hyphen" unicode="-" horiz-adv-x="470" 
d="M254 384q62 2 96 5t51 6t22 5t9 2q9 0 13.5 -6t4.5 -14q0 -9 -5.5 -18.5t-16.5 -12.5q-14 -5 -33 -7t-39 -2.5t-39 -1t-32 -0.5q-35 -1 -70 -2.5t-66 -3.5t-55 -5.5t-36 -8.5q-4 -2 -11 -2q-8 0 -17.5 5.5t-9.5 16.5q0 18 20 26.5t53 12t75 3.5t86 2z" />
    <glyph glyph-name="period" unicode="." horiz-adv-x="171" 
d="M87 113q27 0 40.5 -17.5t13.5 -40.5t-14 -43t-40 -23h-4q-26 0 -39.5 19.5t-13.5 42.5q0 22 12 40.5t38 21.5h7z" />
    <glyph glyph-name="slash" unicode="/" horiz-adv-x="352" 
d="M374 837q15 0 22 -13.5t-4 -33.5q-5 -8 -22.5 -46t-43 -95t-57 -128t-64.5 -145t-64.5 -146t-57 -131.5t-43 -101t-21.5 -54.5q-4 -11 -13 -24.5t-34 -13.5q-11 0 -19.5 8.5t-8.5 21.5q0 10 4 20q5 13 20.5 48.5t38 86.5t51 114t58.5 130.5t60.5 136t58.5 130.5t51 113.5
t38 85.5q6 14 16.5 25.5t33.5 11.5z" />
    <glyph glyph-name="zero" unicode="0" horiz-adv-x="598" 
d="M536 406q4 -13 10.5 -19.5t13.5 -10l12 -6t5 -8.5v-1q0 -7 -5 -8.5t-12.5 -3.5t-15 -7t-11.5 -18q-3 -26 -8.5 -59.5t-17 -69t-29.5 -70t-46 -61.5t-66.5 -43.5t-89.5 -16.5q-46 0 -80 17.5t-58 45.5t-39 62.5t-23 69.5t-11 66.5t-3 52.5q-2 15 -9 22t-14 10.5t-12.5 6.5
t-5.5 9v1q0 7 6 8.5l14 3.5t15.5 8.5t11.5 23.5q3 32 10 69.5t18.5 76t29 74t42 63.5t57.5 44.5t76 16.5q50 0 86.5 -18.5t62.5 -49t42 -68.5t25.5 -77t13.5 -74.5t5 -61.5zM283 42q20 0 35.5 17.5t26.5 45.5t18 64t11.5 73.5t6 73t1.5 63.5q0 25 -1 60t-4 72.5t-8.5 75
t-14.5 67t-22.5 47.5t-31.5 18q-19 0 -32 -20.5t-21.5 -53.5t-13.5 -74t-7 -81.5t-2.5 -77t-0.5 -59.5q0 -52 1.5 -107t7.5 -100.5t18 -74.5t33 -29z" />
    <glyph glyph-name="one" unicode="1" horiz-adv-x="399" 
d="M307 394q2 -16 8.5 -24t14 -12.5t13 -7t5.5 -8.5q0 -8 -5.5 -9.5t-13 -3.5t-15.5 -7.5t-12 -20.5q-2 -51 -3.5 -97.5t-1.5 -81.5t1.5 -56t6.5 -21q9 0 16 0.5t12 0.5q6 0 9 -3.5t3 -16.5q0 -8 -2.5 -16t-15.5 -8q-9 0 -43.5 1t-79.5 1q-29 0 -59 -1.5t-59 -1.5
q-15 0 -19.5 7.5t-4.5 16.5t1 13q1 8 13 8q8 0 15 0.5t16 1.5q9 0 15.5 21t11.5 56t8.5 80t5.5 93q-3 15 -10 22t-14 10.5t-12.5 6.5t-5.5 9v1q0 7 5.5 8.5t13 3.5t15 8.5t11.5 22.5q0 26 1 52.5t1 60.5q0 37 -1 59.5t-3 22.5l-1 -1q-12 -41 -27 -68.5t-29 -45.5t-24.5 -27
t-14.5 -11t-7 -2q-9 0 -17.5 7.5t-8.5 18.5t10 20q22 18 41 53t33 73t23 72.5t12 51.5q3 14 28.5 26t56.5 12q18 0 35 -5t30.5 -16.5t22 -31t8.5 -48.5q0 -11 -1 -36.5t-3 -62t-4.5 -80.5t-4.5 -90z" />
    <glyph glyph-name="two" unicode="2" horiz-adv-x="457" 
d="M437 603q0 -64 -16 -124t-51 -130q-2 -4 -2 -8v-7q0 -17 9.5 -26t9.5 -16q0 -10 -10 -10q-5 0 -9.5 1.5t-11.5 1.5q-6 0 -13 -3t-15 -11q-26 -45 -63 -101t-76 -117q9 2 20.5 2.5t37.5 0.5q19 0 38.5 3t36.5 14.5t29 34.5t16 63q2 13 7.5 18.5t12.5 5.5q8 0 14 -5.5
t6 -13.5q0 -11 -3.5 -34.5t-7.5 -50t-7.5 -50.5t-3.5 -34v-1q0 -5 -5 -8t-13 -3q-6 0 -16.5 2t-28 4.5t-43.5 4.5t-63 2q-59 0 -105.5 -4.5t-75.5 -4.5q-45 0 -45 20q0 10 11 29q15 25 36 57.5t45.5 70t50 77.5t49.5 80q2 4 2 8v7q0 18 -9.5 26.5t-9.5 16.5q0 10 10 10
q5 0 10 -1.5t12 -1.5t15.5 3t16.5 16q12 19 26.5 49.5t26.5 63.5t20.5 63t8.5 50q0 32 -23.5 47t-55.5 15q-24 0 -49.5 -7.5t-46.5 -21t-34.5 -32.5t-13.5 -42q0 -22 4.5 -36.5t10.5 -24t12 -15.5t10 -11q6 -6 6 -19q0 -11 -5.5 -21t-19.5 -10q-8 0 -14.5 4.5t-11.5 9.5
q-4 4 -11 13t-14 22.5t-12.5 31.5t-5.5 39q0 42 18.5 74.5t49 54t68.5 32.5t77 11q36 0 69.5 -9.5t59.5 -28.5t42 -48t16 -68z" />
    <glyph glyph-name="three" unicode="3" horiz-adv-x="507" 
d="M441 360q11 -9 22 -8.5t18 -2.5q6 -2 6 -9q0 -5 -4.5 -8t-9.5 -7t-10 -10t-6 -17q2 -9 2 -18.5v-18.5q0 -71 -25.5 -123t-65 -87t-88.5 -52t-95 -17q-47 0 -78 12.5t-50 33t-27 46t-8 52.5q0 25 6 49.5t15.5 43t21 30t23.5 11.5q8 0 15.5 -8.5t7.5 -16.5t-7 -16.5
t-15 -19.5t-15 -26t-7 -35q0 -57 21 -83.5t52 -26.5q38 0 66.5 22.5t47 58t28 78t9.5 83.5q0 27 -4 50.5t-12.5 41.5t-21 28.5t-28.5 10.5q-26 0 -52.5 -13.5t-46.5 -29.5q-5 -4 -14 -4q-11 0 -21 7.5t-10 19.5q0 8 8 19q3 7 19.5 28t39.5 49t49.5 60t48.5 61.5t36.5 52.5
t14.5 33q0 5 -6 5q-8 1 -22.5 2.5t-33.5 1.5q-23 0 -48 -3.5t-46 -14t-35 -29t-14 -48.5v-7q-3 -5 -7.5 -7t-9.5 -2q-12 0 -15 6q0 1 -1.5 12t-3 26.5t-2.5 34t-1 34.5q0 17 1.5 28.5t5.5 13.5q2 1 20 1.5t46 1t62.5 1t70.5 0.5q55 0 102 -1.5t63 -3.5q10 -2 13 -15t3 -28
q0 -7 -0.5 -14.5t-0.5 -16.5q-1 -8 -14 -25.5t-32.5 -39.5t-43 -46t-44.5 -45l-37 -37t-20 -21q28 9 54 9q45 0 81 -21.5t59 -75.5z" />
    <glyph glyph-name="four" unicode="4" horiz-adv-x="500" 
d="M465 741q9 0 11.5 -10t2.5 -21q-3 -21 -30 -21h-4q-7 0 -10.5 -7t-5 -16.5t-1.5 -19t-1 -14.5q0 -8 -1 -36.5t-2 -70.5t-2.5 -94.5t-1.5 -108.5q4 -14 11 -20.5t14.5 -10t13 -6.5t5.5 -9q0 -7 -5.5 -8.5t-13 -4t-15 -9t-10.5 -21.5q0 -24 1 -42.5t2 -37.5t2 -40.5
t1 -50.5q0 -11 6.5 -9t17.5 -3q8 -3 10.5 -6t2.5 -7q0 -2 -1 -6.5t-3 -9.5t-4 -9t-4 -4q-45 4 -75.5 5.5t-51.5 1.5q-32 0 -48.5 -2.5t-36.5 -5.5h-3q-11 0 -17 9t-6 20q0 6 9 11t16 8q1 0 1 0.5t1 0.5q7 3 10 5.5t4 9t1.5 18t2.5 32.5q0 30 0.5 61.5t3.5 62.5q-42 0 -91 -4
t-106 -15q-18 -6 -30 -6q-15 0 -24.5 11t-9.5 27q0 14 5 24l6 10q72 110 120.5 194t77.5 142q34 68 54 118q8 4 20 4q16 0 31.5 -6.5t19.5 -11.5q16 0 35.5 1t38 2t33.5 2.5t23 3.5zM84 319q9 0 27 1t41.5 2t52 2.5t58.5 1.5q1 37 2 77.5t2 79.5t2 75t1 64q-29 -46 -62 -99
t-61.5 -98.5t-46.5 -75.5t-16 -30z" />
    <glyph glyph-name="five" unicode="5" horiz-adv-x="530" 
d="M469 360q4 -11 11 -16t13.5 -8t11 -5.5t4.5 -8.5q0 -8 -3.5 -9.5t-8.5 -4t-9.5 -9t-7.5 -23.5q0 -68 -25.5 -122t-65.5 -91.5t-88 -57.5t-93 -20q-31 0 -58.5 9.5t-48 30t-32.5 51.5t-12 73q0 8 1.5 25t6 34t13 30t22.5 13q6 0 13.5 -3t14 -8t11.5 -11t5 -13
q0 -10 -10 -33t-10 -49q0 -54 25 -85t59 -31q22 0 45.5 15.5t42.5 48.5t31 85t12 125q0 28 -2.5 52.5t-7.5 43t-12.5 29t-17.5 10.5q-23 0 -43.5 -17.5t-46.5 -53.5q-9 -14 -21.5 -18.5t-28.5 -4.5q-14 0 -27.5 1.5t-27.5 1.5q-11 0 -15.5 7.5t-5.5 17.5q-4 10 -10.5 15
t-13 8.5t-11 6t-4.5 8.5q1 7 8 8t15.5 3t16 8t7.5 22q0 23 1 41t2 35.5t1.5 35.5t0.5 41q0 35 -4 63t-14 41q-1 1 -1 3q0 6 13.5 10.5t32 8.5t36.5 6t27 2q11 0 22 -0.5t28 -0.5q29 0 65.5 1t71 4.5t62 9.5t38.5 17q2 2 5 4.5t7 2.5q7 0 10.5 -7t3.5 -14q0 -6 -3 -11.5
t-11 -10.5q-16 -10 -24 -29t-11.5 -40t-4 -39t-1.5 -25q0 -15 -16 -15q-11 0 -23.5 7t-12.5 12v27q0 26 -2.5 47t-13.5 24q0 1 -12 1q-9 0 -22 -0.5t-26.5 -2t-25.5 -3t-19 -2.5q-7 -6 -13 -34t-11 -63.5t-8 -72.5t-3 -61v-11t1 -9q26 24 51.5 35t48.5 11t43.5 -9.5
t37.5 -26t30 -38t21 -46.5v1v0z" />
    <glyph glyph-name="six" unicode="6" horiz-adv-x="559" 
d="M495 297q3 -14 10 -21t14.5 -11t13 -7t5.5 -9v-1q0 -6 -4.5 -8t-11 -4t-13.5 -6.5t-12 -14.5q-6 -62 -28 -104t-49 -67.5t-52.5 -37t-37.5 -12.5q-11 -2 -20.5 -2h-19.5q-101 0 -159.5 63t-66.5 191q-5 11 -12.5 16t-14 8t-11.5 5t-5 8v1q0 7 5.5 9t13 5t14 9.5t9.5 21.5
q1 41 5 89.5t14 97.5t28 94.5t46 80.5t69 56t97 21q27 0 52 -7t44 -22.5t30.5 -40.5t11.5 -60q0 -8 -1 -18.5t-4.5 -19.5t-10.5 -15.5t-19 -6.5q-9 0 -16 8t-7 27q0 5 0.5 10.5t0.5 14.5q0 24 -7 43.5t-18 34t-26 22.5t-31 8q-21 0 -41.5 -15t-37.5 -48t-27.5 -86.5
t-10.5 -131.5q0 -31 1 -55t2 -36v-8q14 56 42.5 77t69.5 21q36 0 65.5 -12.5t52 -34.5t37 -52.5t21.5 -67.5zM300 24q18 0 30.5 14t20.5 37t12.5 51.5t6.5 56.5t2.5 54t0.5 43q0 30 -2.5 56.5t-9 46.5t-18.5 32t-31 12q-31 0 -47.5 -23t-24.5 -54.5t-9.5 -65.5t-1.5 -55
q0 -18 2 -52.5t9.5 -68t21.5 -59t38 -25.5z" />
    <glyph glyph-name="seven" unicode="7" horiz-adv-x="485" 
d="M474 739q-22 -32 -40.5 -75.5t-34 -91.5t-27.5 -95.5t-22 -86.5q0 -10 4.5 -17t10 -13t10 -12t4.5 -12q-2 -6 -7.5 -6.5t-13 -1t-16 -3.5t-15.5 -14q-13 -50 -24 -95t-18.5 -79.5t-11.5 -56t-4 -24.5v-1q10 0 21.5 -2t21.5 -5.5t16 -8.5t6 -12q0 -17 -6 -23t-12 -6
q-5 0 -18 0.5t-32.5 0.5t-43.5 0.5t-50 0.5q-33 0 -66.5 -1.5t-62.5 -1.5q-11 0 -16.5 3.5t-5.5 18.5v7q0 5 8 9.5t19.5 8.5t24 6.5t23.5 4.5q5 0 15 22t22.5 59.5t27.5 86.5t31 103q-1 12 -6 19t-10.5 11.5t-10 8t-4.5 8.5q0 1 0.5 1.5t0.5 1.5q1 6 6.5 6.5t13 1t16 4
t16.5 15.5q14 50 28 97.5t26 88t21.5 70.5t15.5 44h-95q-32 0 -54 -3.5t-35.5 -16t-19.5 -38t-6 -69.5q0 -12 -5 -21.5t-20 -9.5q-8 0 -11 1t-5 2q-5 3 -6.5 27t-2 53t-1 55t-3.5 33t-3 15q0 11 6.5 19.5t17.5 8.5q48 0 97.5 -3.5t107.5 -3.5q13 0 38.5 1t51.5 1.5t47 1.5
t25 1q28 0 36.5 -5t8.5 -13z" />
    <glyph glyph-name="eight" unicode="8" horiz-adv-x="449" 
d="M105 324q-10 8 -19 10t-10 10q0 5 3 7t7.5 3.5t9.5 3.5t10 7q-28 38 -41 85t-13 100q0 57 18.5 98t48 67.5t66 39.5t71.5 13q26 0 50 -7t42 -20t28.5 -32.5t10.5 -44.5q0 -43 -22 -95t-57 -103q9 -6 17 -9t8 -11t-7.5 -9t-16.5 -5q50 -45 84.5 -105.5t34.5 -132.5
q0 -52 -20.5 -90.5t-53.5 -64t-74 -38.5t-82 -13q-33 0 -63.5 8.5t-53.5 25t-37 42t-14 58.5q0 47 21.5 100t53.5 102zM337 163q0 33 -14 53t-36 34t-50.5 25.5t-56.5 27.5q-38 -54 -60 -102.5t-22 -85.5q0 -20 8 -34.5t21.5 -24t31 -14.5t36.5 -5q25 0 50 8t45.5 24
t33.5 39.5t13 54.5zM145 607q0 -20 6 -35.5t18 -30t29 -28t40 -29.5q42 51 67 99t25 83q0 29 -22.5 44.5t-52.5 15.5q-19 0 -38.5 -7t-35.5 -21.5t-26 -37t-10 -53.5z" />
    <glyph glyph-name="nine" unicode="9" horiz-adv-x="570" 
d="M511 538q5 -15 13 -21.5t15.5 -9.5t13.5 -5t6 -8v-2q0 -6 -5 -8t-11 -5t-12.5 -8.5t-9.5 -17.5q0 -55 -6 -111.5t-20 -109t-37 -98t-57 -79.5t-79.5 -53.5t-104.5 -19.5q-16 0 -39.5 3.5t-47 17.5t-42.5 43t-26 80q2 20 12.5 29.5t20.5 9.5q16 0 16 -15q2 -44 16.5 -69.5
t32.5 -38.5t35 -16t26 -3q46 0 76.5 30t49 74.5t26 96t7.5 95.5q0 29 -2 52t-4 35q-10 -38 -31 -58t-43 -29q-26 -11 -54 -12q-51 0 -85 19t-54.5 46t-30 57t-13.5 53q-5 12 -12 17.5t-14 8.5t-12 5.5t-5 8.5q0 7 5.5 9t12.5 4.5t14 8t10 19.5q8 64 35.5 101t61 56t67 24.5
t54.5 5.5q98 0 152.5 -54.5t78.5 -157.5zM256 345q22 0 37.5 15t25.5 39.5t15 56.5t5 65q0 15 -3 46t-11.5 62.5t-24.5 55t-42 23.5t-40.5 -20.5t-22 -49.5t-9.5 -61t-2 -55q0 -10 0.5 -27t3 -36.5t7 -39.5t12.5 -36.5t20 -27t29 -10.5z" />
    <glyph glyph-name="colon" unicode=":" horiz-adv-x="168" 
d="M92 667q23 0 34.5 -15.5t11.5 -33.5t-10.5 -32.5t-33.5 -14.5q-29 0 -44 16t-15 35q0 17 13.5 31t43.5 14zM81 113q27 0 40.5 -17.5t13.5 -40.5t-14 -43t-40 -23h-4q-26 0 -39.5 19.5t-13.5 42.5q0 22 12 40.5t38 21.5h7z" />
    <glyph glyph-name="semicolon" unicode=";" horiz-adv-x="160" 
d="M82 667q23 0 34.5 -15.5t11.5 -33.5t-10.5 -32.5t-33.5 -14.5q-29 0 -44 16t-15 35q0 17 13.5 31t43.5 14zM20 33q0 28 16 42.5t36 14.5q24 0 46 -20.5t22 -64.5q0 -17 -4.5 -35t-13.5 -33.5t-23.5 -27.5t-33.5 -15q-8 0 -15 6t-7 16q0 7 5.5 11t11.5 9t11.5 12.5
t5.5 22.5q0 8 -2 18q-3 -1 -9 -1q-17 0 -31.5 12.5t-14.5 32.5z" />
    <glyph glyph-name="less" unicode="&#x3c;" horiz-adv-x="376" 
d="M110 357q16 -8 40 -21.5t50 -29t51.5 -31.5t46.5 -29.5t34.5 -22.5t15.5 -11q3 -4 5.5 -8.5t2.5 -12.5q0 -16 -16.5 -22.5t-36.5 6.5q-13 8 -43.5 26t-69 39.5t-80.5 44t-76 39.5q-12 5 -14 18q0 4 1.5 9.5t9.5 10.5q7 5 25.5 20.5t42.5 37t51.5 46t52.5 47t44.5 40.5
t28.5 26q10 10 21 10q8 0 17 -6.5t9 -17.5q0 -13 -8 -21q-21 -23 -47 -48t-53.5 -49.5t-54.5 -47.5t-50 -42z" />
    <glyph glyph-name="equal" unicode="=" horiz-adv-x="410" 
d="M356 332q8 0 14.5 -4.5t6.5 -13.5q0 -19 -15.5 -24t-32.5 -5q-10 0 -40.5 -1t-69 -1.5t-78 -1.5t-66.5 -1q-8 0 -16 0.5t-18 0.5q-7 0 -14 4.5t-7 13.5q0 10 7 16.5t18 6.5q133 0 209 5t102 5zM346 446q14 0 29 -3.5t15 -18.5q0 -14 -11 -20t-25 -6q-8 0 -18 0.5t-32 0.5
q-36 0 -67 -1t-59.5 -2.5t-57 -2.5t-59.5 -1q-8 1 -14.5 5.5t-6.5 14.5q0 8 5 16t15 8q75 0 145 5t141 5z" />
    <glyph glyph-name="greater" unicode="&#x3e;" horiz-adv-x="376" 
d="M266 364q-23 19 -53 44.5t-59.5 52t-54.5 50t-38 40.5q-3 4 -5.5 9.5t-2.5 11.5q0 11 9 17.5t17 6.5q11 0 21 -10q9 -8 28.5 -26t44.5 -40.5t52.5 -47t51.5 -46t42.5 -37t25.5 -20.5q8 -5 9.5 -10.5t1.5 -9.5q-2 -13 -14 -18q-35 -17 -76.5 -39.5t-80 -44t-69 -39.5
t-43.5 -26q-20 -13 -36.5 -6.5t-16.5 22.5q0 8 2.5 12.5t5.5 8.5q1 2 15 11l35 22.5t46.5 29.5t51.5 31.5t49.5 29t40.5 21.5z" />
    <glyph glyph-name="question" unicode="?" horiz-adv-x="484" 
d="M439 602q4 -9 10 -13.5t11.5 -7.5t9.5 -5.5t4 -7.5v-2q0 -7 -6 -8t-13.5 -3t-15 -7t-12.5 -20q-13 -39 -35.5 -64t-49.5 -43t-55.5 -31t-53 -28t-42 -35t-22.5 -51q-3 -20 -4.5 -36.5t-4 -28t-8 -18t-17.5 -6.5q-17 0 -28 8t-11 26q0 47 13.5 81t34 61.5t44 51t44 49.5
t34 57t13.5 74q0 41 -6.5 68t-17 43.5t-24.5 23.5t-29 7q-18 0 -35 -7.5t-31 -18.5t-22.5 -22.5t-8.5 -20.5q0 -23 7 -39t15 -28.5t15 -22.5t7 -21q0 -17 -15 -32t-34 -15q-20 0 -38 18.5t-18 59.5q0 48 17.5 83.5t45.5 59t64 35t73 11.5t72 -11t62.5 -33t44 -55t16.5 -76z
M73 47q0 27 15 41t34 14q17 0 32.5 -13t17.5 -41q0 -21 -14 -35.5t-37 -14.5q-21 0 -34.5 13.5t-13.5 35.5z" />
    <glyph glyph-name="at" unicode="@" horiz-adv-x="644" 
d="M592 466q0 -6 5 -10.5t11 -9t11 -9.5t5 -11q-1 -6 -6 -7t-12 -1.5t-15 -3.5t-15 -13q-13 -40 -32.5 -76.5t-42.5 -65t-47.5 -45.5t-46.5 -17q-26 0 -42 18q-22 23 -25 77q-12 -30 -32.5 -55.5t-52.5 -25.5q-18 0 -28.5 10t-16.5 24.5t-8 32t-2 32.5q0 39 12 82.5
t31.5 80.5t44.5 61t51 24q4 0 15 -0.5t23 -3t21 -7t9 -13.5q0 -11 -9 -17t-20 -6q-14 0 -29 -12.5t-29.5 -33t-27 -46t-22.5 -52.5t-15.5 -52t-5.5 -44q0 -5 1.5 -13t9.5 -8q7 0 18.5 21.5t23 50.5t22.5 59t17 48q5 17 9.5 29t7.5 18q5 11 16 18.5t23 7.5t23.5 -9t11.5 -23
q0 -5 -1 -8q-22 -70 -30.5 -116t-8.5 -72q0 -3 0.5 -9t1.5 -12t3.5 -11t7.5 -5q16 0 36.5 26.5t38.5 68t30.5 91t12.5 94.5q0 36 -8.5 59t-23 37t-34 19.5t-42.5 5.5q-63 0 -114.5 -27t-88 -70.5t-56.5 -98t-20 -110.5q0 -42 13.5 -83t39 -74t62.5 -53.5t85 -20.5
q37 0 69.5 15t59.5 37.5t48 47.5t35 46l1 1q2 5 9.5 13t18.5 8q8 0 13.5 -5t5.5 -13q0 -5 -1.5 -9.5t-2.5 -6.5q-2 -4 -9 -19t-21 -35t-35.5 -41.5t-51 -39.5t-67.5 -30t-86 -12q-62 0 -111.5 19.5t-84.5 55.5t-53.5 87t-18.5 114v30q-4 9 -9.5 14t-11 8.5t-9.5 6t-4 7.5v1
q1 6 5.5 7.5t10.5 2.5t13 4t13 11q4 17 15 43t29.5 55.5t45 58.5t62.5 52.5t82.5 38t104.5 14.5q41 0 76.5 -10.5t62 -31.5t41.5 -54t15 -78q0 -6 -0.5 -14t-1.5 -15t-1.5 -12.5t-0.5 -6.5z" />
    <glyph glyph-name="A" unicode="A" horiz-adv-x="667" 
d="M640 57q7 0 7 -8q0 -6 -4 -15t-11.5 -17t-17.5 -14t-22 -6h-153q-23 0 -44.5 -4t-42.5 -15q-2 -2 -5.5 -3.5t-6.5 -1.5q-6 0 -9 7t-3 13q0 9 17 16q25 9 37 23.5t14 34.5q0 28 -6.5 86t-16.5 132q-19 1 -37.5 1.5t-38.5 0.5q-28 0 -54 -1t-49 -3q-8 -35 -15 -66t-12 -56
t-8.5 -43t-4.5 -25q0 -8 -2.5 -17t-2.5 -19q0 -14 7.5 -21.5t30.5 -8.5q4 -1 5.5 -8.5t1.5 -10.5v-2q0 -6 -7 -6q-42 0 -70 -1.5t-46.5 -3t-29 -2.5t-16.5 -1q-5 0 -5 5q0 8 9 15.5t17 10.5q18 7 29 23.5t16 33.5q8 26 18 72t23 108q0 15 -5 23.5t-11.5 14t-11.5 9t-5 8.5v2
q1 7 8 7.5t15.5 2t17.5 7.5t15 26q12 55 22.5 111t19 104.5t13.5 87t5 59.5q0 6 0.5 10.5t1.5 8.5q-19 0 -37 -6t-32.5 -18t-23.5 -29t-9 -39v-4q0 -2 -3.5 -4t-8.5 -2q-9 0 -15.5 7.5t-6.5 17.5q0 3 0.5 6t1.5 7q16 58 57 78.5t108 20.5q51 0 105 -5.5t96 -5.5q19 0 37.5 3
t34.5 18q4 3 8 3q7 0 9 -6.5t2 -12.5q0 -7 -2 -12.5t-5 -6.5q-21 -6 -27.5 -9.5t-8.5 -5.5q-5 -3 -5 -34q0 -24 3 -62t8 -84.5t11.5 -99t14.5 -104.5q6 -15 14 -21t16 -8.5t14 -4.5t7 -8v-1q0 -6 -5 -8.5l-12 -6t-13 -10t-7 -21.5q6 -43 12.5 -81.5t11.5 -69t9.5 -52.5
t6.5 -31q2 0 3.5 -0.5t3.5 -0.5q10 0 17.5 4.5t13 10l10 10t9.5 4.5zM200 314q32 2 72 3t85 1h12q-10 71 -20 145t-19 134q-11 70 -20 137q-3 0 -7 -0.5t-9 -0.5z" />
    <glyph glyph-name="B" unicode="B" horiz-adv-x="676" 
d="M386 401q47 0 97 -8t90.5 -30t66.5 -61t26 -101q0 -58 -27 -98.5t-69 -65.5t-94.5 -36t-103.5 -11q-14 0 -35.5 1.5t-46 4t-50.5 4t-50 1.5q-30 0 -57 -2.5t-48 -10.5q-4 -2 -5.5 -2.5t-4.5 -0.5q-5 0 -9.5 5.5t-4.5 11.5q0 7 5 11t9 6q6 2 9 3.5t4.5 6t2 12.5t1.5 23
q2 37 5.5 96.5t8.5 128.5q-2 15 -9 22.5t-14 11.5t-12.5 7t-5.5 9v1q0 7 6 8.5l14 3.5t16 8.5t12 23.5q3 49 6.5 94.5t6 82.5t4.5 62.5t2 34.5q1 9 2.5 17t1.5 15q0 15 -15 15q-3 0 -6 -0.5t-7 -0.5q-10 0 -18.5 6.5t-8.5 19.5q0 7 5 9t7 2q52 1 112.5 3t120.5 2q32 0 62 -1
t57 -3q36 -3 66.5 -8.5t53 -19.5t35 -40.5t12.5 -71.5q0 -48 -17.5 -83.5t-47.5 -60t-71.5 -39t-89.5 -18.5zM356 18q35 1 62 19t45.5 46.5t28 63.5t9.5 70q0 34 -10 65t-29.5 53.5t-48 36t-65.5 13.5q-9 0 -17.5 -1t-17.5 -4q-2 -1 -5 -1t-6.5 2t-3.5 7q0 4 2.5 8.5
t7.5 5.5q84 18 123.5 81t39.5 158q0 48 -26 64.5t-67 16.5q-34 0 -51.5 -16t-23.5 -48q-9 -51 -14 -110t-9 -116q-1 -13 -4 -41t-6.5 -64t-6.5 -77t-3 -81q0 -30 2 -57t7 -50q4 -18 28 -31t56 -13h3z" />
    <glyph glyph-name="C" unicode="C" horiz-adv-x="521" 
d="M369 747q23 0 46.5 1t55.5 1q7 0 13 -1t6 -6q0 -1 -2 -5q-11 -15 -16 -35.5t-6.5 -43t-1.5 -45.5t-2 -42q-1 -2 -3.5 -5.5t-8.5 -3.5q-22 0 -29.5 8.5t-7.5 15.5v14q0 31 -5.5 51.5t-13.5 32.5t-18.5 16.5t-20.5 4.5q-11 0 -20.5 -4t-14.5 -9q-19 -20 -34 -59.5
t-25.5 -91t-16 -110t-5.5 -116.5q0 -57 5.5 -109.5t17 -92t29.5 -63.5t42 -24q27 0 43.5 12t25 30t11 40t2.5 42q0 12 -0.5 22.5t-0.5 18.5q0 11 1 14q1 5 8 8t15 3q11 0 20.5 -4.5t9.5 -12.5q0 -3 -0.5 -6.5t-0.5 -8.5q-1 -14 -2 -34.5t-6.5 -42t-15.5 -43t-28 -39t-45 -28
t-66 -10.5q-63 0 -105 20.5t-68 58t-40 90.5t-23 118q-2 18 -9.5 26t-16 11.5t-15 6t-6.5 9.5v1q0 6 5.5 8t12.5 5t14 9t10 21v34q0 82 22 145.5t62 107t96.5 66.5t125.5 23z" />
    <glyph glyph-name="D" unicode="D" horiz-adv-x="658" 
d="M600 369q2 -14 8 -21t12.5 -11.5t11.5 -7.5t5 -9v-1q-1 -7 -7 -8t-13.5 -2t-15.5 -6t-14 -19q-12 -57 -40 -111t-79 -96t-129.5 -67.5t-192.5 -25.5h-24.5t-25.5 1q-9 0 -11.5 6.5t-2.5 14.5q0 9 2.5 31.5t5.5 57t7 80t7 98.5q-2 18 -9 26t-14.5 12.5t-13.5 7.5t-6 9v1
q0 7 7 8.5t15.5 4.5t16 11.5t10.5 30.5q2 42 3 83.5t1 81.5q0 37 -1.5 70.5t-3.5 64.5q-1 12 -5.5 20t-10.5 12.5t-13 7t-12 4.5q-2 1 -2 7q0 5 2 11t6 6h1q5 -1 18.5 -3t31.5 -4.5t39 -4t41 -1.5q37 0 73 6t77 6q85 0 135 -24t76 -60t33 -77t7 -75q0 -35 -1.5 -70t-4.5 -76
zM277 31q65 23 103.5 71t59 108.5t27 128t6.5 130.5q0 76 -11 123.5t-29 73.5t-41 35t-47 9q-14 0 -27 -2t-25 -4t-19.5 -37t-12 -89t-6 -120.5t-1.5 -133.5q0 -54 1 -103.5t2 -89.5t2 -66t1 -32q0 -4 5 -4q2 0 12 2z" />
    <glyph glyph-name="E" unicode="E" horiz-adv-x="600" 
d="M551 749q3 0 8.5 -2t5.5 -9q0 -1 -0.5 -2t-0.5 -2q-12 -25 -15.5 -49t-5 -43.5t-3 -31.5t-8.5 -12h-3q-16 0 -21 6t-5 13q0 3 0.5 6t0.5 10q0 37 -22.5 59.5t-69.5 22.5q-20 0 -40.5 1.5t-49.5 1.5q-18 0 -26 -11.5t-9 -25.5q-3 -50 -4.5 -129t-1.5 -165q39 0 72.5 0.5
t50.5 0.5q15 0 26 7t19.5 15.5t14.5 15.5t10 7q3 0 4 -6t1 -14q0 -12 -1 -25.5t-1 -20.5t1 -18t1 -21q0 -7 -1 -12t-4 -5q-4 0 -10.5 7.5t-15.5 16t-19.5 16t-22.5 7.5q-31 0 -62 -1.5t-63 -3.5v-77t1 -71.5t1.5 -62t2.5 -49.5q1 -18 4.5 -30.5t12.5 -20t26 -11t45 -3.5
q22 0 46 8.5t44.5 24t35 36.5t16.5 46q0 4 4 9t15 5q7 0 13.5 -2t6.5 -12q0 -6 -0.5 -30.5t-4 -51t-11 -47.5t-20.5 -21q-31 0 -73.5 1.5t-89.5 1.5q-44 0 -88.5 -1t-81 -2.5t-62.5 -5t-34 -7.5h-1q-8 -2 -10 -2q-5 0 -7 4.5t-2 9.5q0 16 11 18q19 6 28 6q0 6 1 31.5t2 62
t2 80.5t1 87q0 16 -6.5 23.5t-15 11.5t-15 6.5t-6.5 8.5v1q0 8 7 9.5t15 5t15 12.5t7 33q0 48 -1 96t-3 90.5t-5 79t-8 62.5q-1 5 -8 6.5t-13 1.5h-7q-10 0 -10 14q0 5 2 8.5t7 4.5q7 1 20.5 2t29.5 1.5t34 0.5h34q30 0 62.5 -1t74.5 -2t96.5 -2t129.5 -1z" />
    <glyph glyph-name="F" unicode="F" horiz-adv-x="604" 
d="M516 743q45 -2 61 -10.5t16 -23.5q0 -16 -10 -40t-15 -59q-2 -7 -9 -11.5t-15 -4.5q-9 0 -12 8t-2 26.5t-7 37.5t-30 33.5t-71 14.5h-31.5h-35t-31.5 -0.5t-20 -1.5q-9 -1 -14.5 -10.5t-7.5 -20.5q-3 -19 -5.5 -47.5t-3.5 -61.5t-1.5 -68t-0.5 -66v-33q51 2 95.5 2.5
t64.5 0.5q14 0 25 8.5t19.5 19t14.5 19.5t10 9q3 0 4 -7t1 -17q0 -14 -1 -29.5t-1 -22.5t1 -20.5t1 -25.5q0 -8 -1 -14t-4 -6q-4 0 -10.5 9t-15.5 19.5t-19.5 19.5t-22.5 9q-40 0 -79.5 -2t-81.5 -4q0 -14 0.5 -24t0.5 -12q2 -66 4.5 -134t2.5 -152q0 -15 3.5 -22.5
t18.5 -8.5q6 -2 6 -12q0 -5 -2 -10t-5 -7q-5 -2 -10.5 -2.5t-12.5 -0.5h-93h-46.5t-47.5 -1q-5 0 -8.5 1t-4.5 9q0 5 2.5 12t7.5 7q14 2 17 10.5t4 19.5q0 59 -1 113t-1 101q0 24 -7 34.5t-15.5 16t-15.5 8t-7 9.5q0 8 7 9.5t16 5.5t16.5 14.5t7.5 36.5q1 32 1 61.5v58.5
q0 66 -1.5 117.5t-5.5 80.5q-1 5 -8 6t-13 1q-3 0 -6 1t-4 7q0 5 2 11.5t6 7.5q5 1 37.5 1.5t80.5 0.5q41 0 88 -0.5t91 -1t81.5 -1.5t58.5 -2z" />
    <glyph glyph-name="G" unicode="G" horiz-adv-x="564" 
d="M514 386q8 0 15.5 2t15.5 2q9 0 9 -11q0 -6 -4.5 -12.5t-15.5 -7.5q-24 -2 -28.5 -5.5t-4.5 -18.5q0 -31 -3 -69t-11 -77t-21.5 -76t-35.5 -66t-52.5 -46.5t-71.5 -17.5q-70 0 -115 29.5t-71.5 74.5t-38.5 98.5t-16 100.5q-2 11 -9 16.5t-15 8.5t-14 6.5t-6 10.5t5.5 9
t13 5t14.5 9.5t10 22.5q0 67 15.5 132.5t51.5 118t95 85.5t145 33h14t25 0.5t29.5 0.5h29.5h22.5t9.5 -1q1 -2 1 -6q0 -3 -1 -5q-11 -15 -17.5 -35.5t-10 -43t-5.5 -45t-4 -41.5q-1 -2 -5.5 -6.5t-15.5 -4.5q-14 0 -16.5 10.5t-2.5 25.5q0 6 0.5 12.5t0.5 18.5
q0 50 -15 67.5t-34 17.5q-17 0 -33 -8t-21 -13q-21 -17 -37 -53t-27 -84.5t-16.5 -105.5t-5.5 -114q0 -60 6 -115.5t18.5 -98.5t31 -69t44.5 -26q19 0 32 16t21 41.5t11.5 57.5t3.5 65q0 27 -2 53t-5.5 47t-8.5 35t-10 17q-13 5 -22 5q-11 0 -13.5 -5.5t-9.5 -5.5
q-5 0 -9.5 6.5t-4.5 13.5q0 9 9.5 14.5t22.5 9t26.5 4.5t21.5 1q28 0 61 -5t54 -5z" />
    <glyph glyph-name="H" unicode="H" horiz-adv-x="753" 
d="M681 745q4 0 8 -6.5t4 -11.5q0 -3 -2.5 -4.5t-4.5 -3.5q-17 -5 -23 -18t-8 -28q-2 -9 -4 -37.5t-4.5 -69.5t-5 -91.5t-4.5 -102.5q2 -17 9 -24.5t14.5 -11.5t13.5 -7t6 -10t-6 -8.5t-13.5 -3.5t-15.5 -8.5t-12 -22.5q0 -35 -1 -71.5t-1 -82.5q0 -35 1 -58.5t3 -28.5
q3 -12 15 -12.5t21 -2.5q5 0 5 -11q0 -6 -3.5 -12t-11.5 -6h-23q-23 0 -54 -1t-61 -2t-53 -3t-30 -3q-2 0 -3.5 -0.5t-3.5 -0.5q-7 0 -10 7q0 10 4 15.5t9.5 8t10 3.5t6.5 3q4 1 7.5 24.5t6 61.5t5 87.5t4.5 102.5q-34 2 -71 2.5t-74 0.5h-27.5t-26.5 -1v-2q0 -27 -1 -55.5
t-1 -63.5q0 -27 1 -55t5 -50.5t10 -37.5t17 -16q10 -1 18 -8.5t8 -15.5q-1 -3 -3.5 -6.5t-8.5 -3.5q-3 0 -11 1t-23.5 2.5t-41 2.5t-63.5 1q-30 0 -53.5 -1t-31.5 -3q-4 -2 -10.5 -3.5t-13.5 -1.5q-5 0 -9.5 2.5t-4.5 9.5q0 5 2 11t6 7q28 5 33.5 19.5t5.5 40.5q0 45 0.5 90
t2.5 94q0 5 0.5 9.5t0.5 9.5q-2 18 -9 26.5t-14.5 12.5t-13 6.5t-5.5 9.5t6 8.5t14 4.5t15 10.5t10 26.5q1 51 3 99t3 86t2 62t1 27v15q0 23 -3.5 29.5t-9.5 6.5q-4 0 -8.5 -1t-9.5 -1q-14 0 -14 17q1 7 6 13t12 6h1q9 -1 30.5 -1h46.5h96q30 0 44.5 2.5t22.5 2.5
q10 0 13 -6t3 -12q0 -15 -15 -18t-29 -4q-7 0 -12 -20t-8.5 -51.5t-5.5 -71.5t-3.5 -81t-2 -79t-0.5 -66q30 1 63 1.5t68 0.5h34.5t34.5 -1q2 45 4 89.5t3.5 82.5t2.5 69t1 49q0 17 -0.5 31t-1.5 22q-2 12 -9.5 22t-21.5 10q-4 0 -13.5 2.5t-9.5 15.5q0 7 2.5 14t11.5 7
q3 0 9 -2q17 -6 45.5 -8.5t60.5 -2.5q35 0 67.5 3t51.5 8h1v0z" />
    <glyph glyph-name="I" unicode="I" horiz-adv-x="385" 
d="M310 746q8 -1 11 -6t3 -12q0 -17 -18 -17q-5 0 -11 0.5t-7 0.5q-7 0 -10.5 -5.5t-5 -13.5t-2 -16.5t-0.5 -13.5q0 -17 -3.5 -91.5t-4.5 -199.5q3 -17 11 -24.5t15.5 -11.5t13.5 -6.5t6 -8.5v-1q0 -8 -7 -9.5t-15.5 -5.5t-15.5 -14t-7 -35q0 -53 3 -105.5t3 -107.5
q1 -14 3 -22t13 -8h3q4 0 5.5 -6.5t1.5 -11.5q0 -8 -10 -8q-11 1 -35 1.5t-54 0.5t-60.5 -2t-62.5 -2q-12 0 -12 9v1q1 7 11 12.5t18 8.5q14 5 16 25t2 63q0 26 1.5 73.5t1.5 101.5q0 12 -7 18.5t-15 11t-15 8.5t-7 10v1q0 7 6 8.5t14 4.5t15 10.5t10 26.5q1 49 1.5 96.5
t0.5 88.5q0 33 -0.5 59t-1.5 42v4q-2 26 -4.5 36.5t-14.5 10.5q-2 0 -5.5 -0.5t-8.5 -0.5q-6 0 -11 2t-5 9t5.5 13t10.5 7q50 0 104 0.5t127 0.5z" />
    <glyph glyph-name="J" unicode="J" horiz-adv-x="533" 
d="M387 737q30 0 49 1.5t29.5 3.5t15 3.5t5.5 1.5q5 0 8 -5.5t3 -11.5q0 -9 -6 -12q-8 -3 -12 -3.5t-10 -2.5q-3 -2 -3.5 -7.5t-0.5 -9.5q-5 -87 -8.5 -165.5t-10.5 -149.5q0 -18 6 -27.5t13.5 -15t13.5 -8.5t6 -9q0 -8 -6 -9t-14.5 -3t-17 -8t-13.5 -24q-8 -53 -22 -106.5
t-40 -97t-68.5 -71t-108.5 -27.5q-4 0 -17.5 2t-31 10t-37 24.5t-35.5 46.5t-26.5 75t-10.5 110q0 32 3 70q1 9 1.5 14.5t0.5 7.5q0 4 -3 4q-11 0 -14.5 5t-3.5 10t2 10t10 5q5 0 10 -1t11 -1q16 0 35 2t37 5t33.5 5t23.5 2q11 0 11 -14q0 -3 -0.5 -5.5t-0.5 -4.5
q-2 -7 -12 -8t-18 -6q-5 -3 -9.5 -16t-7.5 -32.5t-5 -44.5t-2 -51q0 -33 3 -66t10 -59.5t18.5 -43t27.5 -16.5q25 0 43 21.5t30 58t18.5 84.5t9.5 101q-3 15 -10.5 22.5t-15 11t-13 6.5t-5.5 9v1q0 7 6.5 9t14.5 5t15.5 11t9.5 29q0 54 -2.5 104.5t-5.5 91.5t-5.5 70
t-3.5 39q-1 8 -3.5 15.5t-15.5 7.5q-14 -1 -22 -4t-21 -11q-6 -2 -7 -2q-5 0 -10 5.5t-5 10.5q0 8 10 14t23.5 9.5t26.5 5t20 1.5q25 0 50 -1t57 -1z" />
    <glyph glyph-name="K" unicode="K" horiz-adv-x="623" 
d="M671 -150q5 0 8.5 -5t3.5 -11q0 -9 -6.5 -12.5t-16.5 -3.5q-74 0 -119.5 19t-71 51.5t-34.5 74t-9 86.5q0 54 6.5 106.5t6.5 94.5q0 15 -2.5 32t-10 31.5t-20 24.5t-31.5 10q-17 0 -33 -15.5t-30 -36.5t-25 -43t-17 -35q-2 -5 -3.5 -38.5t-1.5 -71.5q0 -23 0.5 -42.5
t1.5 -31.5q1 -8 9 -8q2 0 4 0.5t6 0.5q8 0 11.5 -5t3.5 -11q0 -5 -2.5 -10t-9.5 -5q-8 0 -17.5 -0.5t-21.5 -0.5q-38 0 -77.5 1.5t-82.5 1.5q-8 -1 -12.5 -1.5t-8.5 -0.5q-8 0 -9 11q0 11 5 14.5t19 5.5q9 1 11.5 5t2.5 13q0 57 1.5 114.5t3.5 126.5q-3 15 -10.5 21.5
t-14.5 10t-12.5 6.5t-5.5 9q0 7 6 9t14 5t15 10.5t10 25.5q1 54 2 106t1.5 95.5t1 75.5t0.5 46q0 9 -10 8t-24 3q-8 2 -11 7t-3 10t2 11.5t10 6.5q2 0 46.5 -5t140.5 -5q38 0 51 3.5t17 3.5q15 0 15 -17q0 -16 -18 -20q-3 -1 -8.5 -2t-11.5 -3.5t-11 -7.5t-6 -14
q-3 -9 -5 -37t-3.5 -65.5t-3 -79.5t-3 -80t-3 -67t-2.5 -39q3 1 19.5 26t39.5 63t49 82.5t49.5 84.5t40.5 69.5t21 36.5q10 15 10 26q0 10 -9 14.5t-19 4.5q-8 0 -16 -1.5t-13 -5.5q-2 -2 -7 -2q-4 0 -6 3.5t-2 8.5q0 11 7 14q22 11 47 11q14 0 29 -3.5t32 -3.5t34.5 2
t33.5 7q4 2 9 2q4 0 8 -3t4 -8t-6 -9t-13 -6q-18 -6 -42.5 -34t-50 -66t-50 -81t-43.5 -79.5t-30.5 -60.5t-10.5 -25q67 0 106 -23.5t58.5 -62t25 -87.5t5.5 -100v-92q0 -35 2.5 -66t12 -54t28 -36t49.5 -13z" />
    <glyph glyph-name="L" unicode="L" horiz-adv-x="552" 
d="M533 136q9 -3 9 -16q0 -5 -1 -18.5t-4 -28.5t-7.5 -30t-11.5 -23q-16 -17 -46 -19q-13 0 -47 -0.5t-77 -1.5t-89.5 -1t-86.5 -1t-67 -1.5t-31 -0.5q-5 0 -9 6t-5 13q0 11 6 13.5t10 2.5q22 0 26.5 10.5t5.5 35.5q0 12 0.5 34.5t1 50.5t1 60t1.5 64q-3 15 -10 22
t-14.5 10.5t-13 6t-5.5 8.5v1q0 7 6 9t14 5t15.5 10.5t10.5 27.5q0 58 0.5 118t0.5 132q0 34 -1.5 52.5t-5 27t-10.5 10.5t-19 2h-2q-7 0 -12.5 7t-5.5 15q1 10 13 10q11 0 24.5 -0.5t41.5 -0.5q42 0 78.5 1t63.5 1q26 0 41 -2t15 -7q0 -10 -5 -14.5t-11 -6.5t-12 -2.5
t-9 -0.5q-8 -2 -13 -31t-7.5 -75.5t-3.5 -106t-1 -121.5q0 -23 7.5 -33.5t16 -15t16 -7t7.5 -9.5q0 -8 -6.5 -9.5t-14.5 -4.5t-15.5 -11.5t-9.5 -28.5q1 -43 2 -81.5t2 -68.5t1.5 -49t0.5 -24q1 -21 23 -22q35 0 67 2.5t58 11t44 26t24 47.5q2 12 11.5 16.5t17.5 4.5
q2 0 3 -0.5t3 -0.5z" />
    <glyph glyph-name="M" unicode="M" horiz-adv-x="825" 
d="M749 10q4 0 7.5 1t8.5 1q8 0 9 -6q0 -11 -11 -14t-20 -3q-27 0 -54.5 2.5t-59.5 2.5q-20 0 -37.5 -1.5t-29.5 -4.5q-6 -2 -9.5 -4t-5.5 -2q-4 0 -6.5 4t-2.5 9q0 7 3 12q10 17 11.5 29t1.5 31q0 16 -0.5 60.5t-0.5 103t-0.5 125.5t-0.5 130v88t1 71q-4 -21 -12.5 -72
t-18.5 -116t-21 -135.5t-20.5 -131t-15.5 -103.5t-7 -51q-4 -47 -51 -47q-16 0 -37 1.5t-40.5 5t-33 10t-14.5 15.5t-6 40t-12 75t-15.5 97.5t-17.5 108t-18 106.5t-16 92.5t-12 66t-7 27.5q-3 -21 -6.5 -70t-7 -111.5t-7 -130.5t-6.5 -126.5t-6 -100.5t-4 -51
q0 -9 2.5 -15.5t9.5 -6.5q14 -1 20 -10t6 -17q0 -6 -4 -7.5t-11 -1.5q-14 0 -28.5 0.5t-34.5 0.5q-15 0 -25.5 -1.5t-16.5 -1.5q-3 0 -5.5 1t-2.5 6q0 12 7.5 18.5t15.5 8.5q12 3 17 6.5t7 9.5t2 15t2 23q1 6 2.5 25t3.5 48t4 65t5 77q-3 14 -10 20.5t-13.5 10.5t-12 6.5
t-5.5 8.5v1q0 7 6.5 8.5t14 4t15.5 9.5t11 25q3 49 5.5 97t5 88.5t3.5 70t1 42.5v8q-2 7 -9 12t-15 9.5t-14.5 8.5t-6.5 10q0 4 1.5 8t6.5 4q3 0 11 -2q19 -5 44 -6.5t52 -1.5q36 0 69.5 2.5t55.5 7.5q12 0 12 -4q-1 -12 -1 -23v-22q0 -54 6 -102t17 -104q19 -88 29 -179
t26 -179q3 2 8 25.5t11 61t13.5 85.5t15 98.5t14 100.5t12.5 91.5t10 71t6 38.5q4 22 12.5 29t25.5 7q16 0 45.5 -2.5t62.5 -2.5q23 0 41.5 0.5t27.5 2.5q6 2 16.5 6.5t17.5 4.5t7 -7q0 -8 -7.5 -16.5t-17.5 -11.5q-6 -2 -9.5 -26t-6 -63t-3.5 -89.5t-1 -105.5v-45
q3 -17 10.5 -24.5t15 -11t13.5 -6t6 -9.5v-1q0 -7 -6 -8.5t-13.5 -4.5t-14.5 -10.5t-10 -25.5q1 -40 2 -76t2 -66t2.5 -51.5t2.5 -31.5q2 -16 4 -29.5t12 -13.5z" />
    <glyph glyph-name="N" unicode="N" horiz-adv-x="662" 
d="M494 741q3 0 7 -0.5t15 -1t32.5 -1t59.5 -0.5q7 0 10.5 -3t3.5 -14q0 -10 -3 -13q-6 -5 -15 -5.5t-16 -2.5q-9 -2 -12.5 -16.5t-3.5 -26.5q0 -32 -0.5 -67.5t-1.5 -70t-1.5 -67.5t-0.5 -60q0 -20 7 -29.5t15 -14t15 -7t7 -9.5v-1q0 -7 -6 -8.5t-13.5 -4t-15 -8.5
t-11.5 -22q-2 -55 -2.5 -105t-1.5 -89q-1 -46 -2 -85q0 -8 -10 -12q-4 -2 -9 -3h-97q-5 2 -18.5 23.5t-33 55.5t-43 77.5t-47.5 89t-47 89.5t-41.5 79.5t-30.5 58.5t-14 27q-4 -2 -4 -6q0 -10 0.5 -20t0.5 -25q0 -38 -1.5 -98.5t-3 -122.5t-3 -113.5t-1.5 -71.5
q2 -6 13 -8.5t19 -5.5q3 -1 6.5 -6.5t3.5 -11.5q0 -11 -12 -11q-5 0 -21.5 1.5t-34.5 1.5q-26 0 -41.5 -2t-20.5 -2t-8.5 3.5t-3.5 8.5q0 6 5.5 12t13.5 8q24 4 28.5 16t5.5 24v3q0 6 0.5 25t1.5 46.5t1.5 62.5t0.5 74q-1 20 -8 29.5t-15 14.5t-14.5 7.5t-6.5 9.5v1
q0 7 5.5 8.5t13 4t15 8.5t11.5 23q0 42 0.5 81.5t0.5 74.5q0 50 -0.5 85.5t-1.5 46.5v2q-2 13 -5 21.5t-15 8.5q-9 0 -16 -0.5t-12 -0.5q-8 0 -11.5 3t-4.5 13q0 2 0.5 6t3 8t7.5 7t14 3q22 0 37.5 -0.5t29.5 -0.5q23 0 44 1t35 4h3q6 0 11 -8q5 -9 19.5 -36.5t34.5 -67
t44 -87.5l48.5 -97t48 -95.5t42 -83.5t31 -61.5t15.5 -29.5q0 3 1.5 37.5t3 84.5t3.5 109t3.5 111.5t2.5 91t1 48.5q0 18 -2.5 26t-7 11.5t-11.5 3.5t-15 1q-5 1 -10 6.5t-5 14.5q0 5 2.5 11t9.5 6z" />
    <glyph glyph-name="O" unicode="O" horiz-adv-x="644" 
d="M583 384q1 -18 7 -26.5t13.5 -13t13.5 -8t6 -9.5v-1q-1 -7 -7 -8t-13.5 -3t-15.5 -7.5t-12 -21.5q-7 -49 -21.5 -103t-43 -99t-73 -74.5t-110.5 -29.5q-83 0 -134 32.5t-80 80.5t-39.5 102.5t-12.5 99.5q-4 11 -11 16.5t-13.5 8.5t-11.5 5.5t-5 8.5t5 8t11.5 4t13.5 6.5
t12 15.5q0 38 7 81t21.5 85t37 80.5t54 68t72.5 47t93 17.5q70 0 115.5 -34.5t72.5 -87.5t37.5 -117t10.5 -124zM328 9q24 0 40.5 21t27.5 55t17 76t8.5 84.5t3 80.5t0.5 64q0 72 -3 132t-11 103.5t-23 67.5t-39 24q-26 0 -45 -18t-32.5 -47.5t-22.5 -67t-14.5 -76.5
t-7.5 -77t-2 -67q0 -27 1 -63.5t5 -76t11 -78t18.5 -69t28 -49.5t39.5 -19z" />
    <glyph glyph-name="P" unicode="P" horiz-adv-x="646" 
d="M141 745q84 0 132.5 2t79 4.5t52.5 4.5t54 2q49 0 83 -16t55 -41.5t30 -57t9 -61.5q0 -60 -27 -104.5t-71 -75.5t-99.5 -49.5t-111.5 -26.5q-11 0 -22 4t-11 18q0 6 2 7q50 11 85 37.5t57.5 63.5t32.5 82t10 94q0 29 -8 47t-21 28.5t-28.5 14.5t-31.5 4q-25 0 -44.5 -5
t-21.5 -7q-11 -6 -18 -34t-11 -71t-5.5 -96t-1.5 -110t1 -113t2.5 -103t2.5 -81.5t1 -48.5t5 -18.5t10 -4.5q13 0 17.5 -7t4.5 -15t-4.5 -10.5t-14.5 -2.5h-99h-68t-50 1q-5 0 -8.5 2.5t-3.5 5.5q0 11 7 17.5t9 6.5q14 1 18 4t4 20v35t-0.5 44t-0.5 62v89q-4 15 -11.5 22
t-15 10.5t-13 6t-5.5 8.5q0 7 6 9t14 5.5t15.5 11t9.5 27.5v268q0 28 -8 40t-30 15q-9 0 -17 3.5t-8 15.5q0 5 5.5 12t23.5 7q8 0 18.5 -1t33.5 -1z" />
    <glyph glyph-name="Q" unicode="Q" horiz-adv-x="644" 
d="M646 -57q9 14 18 14q8 0 11.5 -7t3.5 -15q0 -22 -16 -41q-8 -11 -23.5 -25.5t-37 -28.5t-49 -23.5t-59.5 -9.5q-40 0 -80 17q-20 8 -38 28t-38.5 41t-44.5 37t-56 16q-22 0 -47 -9q-1 0 -2 -0.5t-2 -0.5q-8 0 -15.5 8.5t-7.5 17.5q0 11 8 16.5t12 6.5q79 9 125 36.5
t69.5 79.5t30 130.5t6.5 191.5q0 73 -2.5 132.5t-11 102t-23.5 65.5t-39 23q-26 0 -45 -18t-32.5 -47.5t-22.5 -67t-14.5 -76.5t-7.5 -77t-2 -67q0 -35 2 -84.5t9.5 -99t20.5 -92.5t36 -64q5 -4 5 -14q0 -8 -4 -15t-11 -7q-3 0 -5 1q-53 13 -89.5 43.5t-60.5 69t-37.5 81.5
t-19.5 82q-6 12 -13.5 17t-15 7.5t-12.5 4.5t-6 8v1q0 6 5 8.5t12 5.5t13.5 9.5t8.5 20.5q-1 5 -1 10v9q0 58 15 124.5t48.5 123.5t88 95t133.5 38q54 0 93.5 -18.5t67 -47.5t44.5 -65.5t26.5 -72.5t12.5 -68t3 -52q0 -16 -1 -32t-3 -35q0 -17 6 -25.5t13 -13.5t13 -8.5
t6 -9.5v-1q-2 -8 -9.5 -8.5t-16.5 -3t-17.5 -12t-12.5 -35.5q-11 -45 -28.5 -91.5t-46 -86.5t-69 -69t-96.5 -38q38 -4 75 -24t80 -40q64 -30 97 -30q24 0 40 14t33 40z" />
    <glyph glyph-name="R" unicode="R" horiz-adv-x="714" 
d="M730 -61q5 0 9.5 -1.5t4.5 -6.5q0 -10 -14 -12q-13 -1 -25.5 -1.5t-23.5 -0.5q-68 0 -110.5 17.5t-67 46t-36 65.5t-17.5 75t-11.5 75t-18.5 65.5t-37.5 46t-69.5 17.5q-17 0 -23 8t-6 15q0 4 2 6q53 12 90 38.5t60 63.5t33 82.5t10 93.5q0 28 -8 46t-21 28.5t-29 14.5
t-32 4q-6 0 -17 -0.5t-22.5 -2.5t-21.5 -5.5t-14 -9.5q-10 -12 -16.5 -44t-10 -76.5t-5 -98.5t-1.5 -109q0 -58 1 -113.5t2 -100.5t2 -75.5t1 -39.5q0 -10 8 -14q4 -2 8 -2q12 0 16.5 -7t4.5 -15t-4.5 -10.5t-14.5 -2.5h-36.5h-63h-67.5h-50q-5 0 -8.5 3t-3.5 6q0 11 7 17.5
t9 6.5q14 1 18 4t4 20q0 55 0.5 111.5t1.5 124.5q-3 15 -10.5 22t-15 10.5t-13 6t-5.5 8.5q0 7 6.5 9t14.5 5t15 10.5t10 26.5q1 42 2 82t1.5 73.5t1 59t0.5 38.5q0 12 -0.5 22.5t-4.5 19.5t-11.5 15t-21.5 9q-5 0 -15 7t-10 22q0 5 4 7.5t15 2.5t24 -1.5t37 -1.5q20 0 50 1
t63 2.5t67 3t61.5 3t46.5 2.5t23 1q49 0 83.5 -15.5t56 -40t31 -55t9.5 -61.5q0 -48 -17.5 -86.5t-47 -68t-69 -49.5t-82.5 -32h11q56 0 92 -17.5t57.5 -46.5t32 -66t16.5 -75.5t11 -75.5t15 -66t28.5 -46.5t51.5 -17.5z" />
    <glyph glyph-name="S" unicode="S" horiz-adv-x="422" 
d="M329 443q3 0 6.5 -2.5t3.5 -7.5q0 -7 -8 -14.5t-8 -21.5q0 -9 6 -21q27 -43 45 -89t18 -96q0 -91 -50.5 -143t-147.5 -52q-36 0 -66 4.5t-51.5 11.5t-33.5 16t-12 19q0 7 4.5 13.5t7.5 13.5q24 48 32 74.5t10 40t4.5 18.5t16.5 10q10 0 11.5 -9t1.5 -19q0 -26 -4.5 -51
t-4.5 -52q0 -34 22.5 -47t49.5 -13q19 0 37 6t32.5 17t23 28t8.5 38q0 41 -28 89t-66 100q-11 13 -21 17t-18 4t-14.5 -2t-11.5 -2q-10 0 -10 10q0 8 8.5 15t8.5 22q0 9 -6 23q-38 54 -65.5 107t-27.5 104q0 42 16.5 72t45.5 49.5t67 28.5t82 9q18 0 38.5 -1t38 -3.5t30 -5
t14.5 -5.5q1 -1 1 -4q0 -7 -6.5 -23t-14.5 -37.5t-15.5 -46.5t-9.5 -50q0 -3 -6 -3q-4 0 -8 3.5t-4 11.5v6q0 3 0.5 6.5t0.5 6.5q0 14 -2.5 33.5t-9.5 37t-20.5 30t-35.5 12.5q-17 0 -37 -3.5t-37 -12.5t-28.5 -24t-11.5 -38q0 -15 13.5 -35.5t34.5 -45t48 -53.5t54 -62
q10 -10 18 -13t16 -3t14 2t11 2z" />
    <glyph glyph-name="T" unicode="T" horiz-adv-x="616" 
d="M573 759q13 0 17.5 -10t4.5 -27q0 -15 -3 -32.5t-7 -34t-8 -30t-6 -20.5q-5 -14 -6 -18.5t-13 -4.5q-11 0 -21.5 8.5t-10.5 15.5q2 17 5.5 32t3.5 28q0 22 -18 35t-73 13q-10 0 -19.5 -1t-21.5 -1q-5 0 -7.5 -5.5t-4 -13t-2 -15t-1.5 -13.5q-2 -14 -4 -42.5t-4.5 -67
t-4 -84t-2.5 -93.5q4 -14 11.5 -20t14.5 -9t12.5 -6t5.5 -9q0 -7 -6 -9l-13.5 -4.5t-14.5 -9.5t-10 -25q0 -48 1 -91t2.5 -77t4.5 -55t8 -25q2 -2 7 -2.5t11 -0.5h19q9 0 15 -1.5t6 -7.5q0 -11 -3.5 -19t-23.5 -8q-7 0 -28 0.5t-48.5 0.5t-58.5 0.5t-57.5 0.5h-46h-23.5
q-6 0 -7.5 5.5t-1.5 10.5q0 11 8.5 13.5t19.5 3.5q16 1 24.5 3.5t8.5 16.5q0 5 0.5 26t1.5 52.5t1.5 71.5t1.5 84q-3 16 -10.5 23.5t-15 11.5t-13 6.5t-5.5 8.5v1q0 7 6 9t14 5t15 10.5t10 25.5q1 46 1.5 89.5t1 78.5t1 58t0.5 29q0 11 0.5 18.5t0.5 14.5q0 12 -6 18.5
t-15.5 9.5t-21.5 3.5t-24 0.5q-26 0 -41.5 -6t-23.5 -16t-10.5 -23t-2.5 -26q0 -11 0.5 -20.5t0.5 -17.5q0 -10 -2 -16.5t-10 -8.5h-16q-11 0 -15 1q-7 1 -7 11q0 5 1 10t1 16q0 14 -1 31.5t-1 34.5q0 26 6 46.5t27 20.5h41q35 0 79 0.5t91 1.5t94.5 2.5t89 3t74 3t50.5 2.5
z" />
    <glyph glyph-name="U" unicode="U" horiz-adv-x="617" 
d="M562 766q1 3 4 3q6 0 11 -8.5t5 -14.5t-4.5 -10.5t-10.5 -7.5t-12 -4.5t-9 -1.5q-28 -1 -28 -27q0 -30 0.5 -63t1.5 -66.5t1.5 -65.5t0.5 -60q0 -16 -0.5 -30t-0.5 -26q0 -16 6.5 -24t14 -12.5t13.5 -7.5t6 -9q0 -8 -6 -9.5t-13.5 -3.5t-16 -8t-12.5 -22
q-6 -59 -17.5 -112.5t-31 -94.5t-47 -65.5t-66.5 -24.5q-60 0 -102.5 7.5t-71 25.5t-44 49t-21.5 78q-4 31 -6.5 64t-4.5 67q-3 18 -10.5 26.5t-15.5 12t-14 6t-6 9.5t6 9.5t13.5 5.5t15 10.5t9.5 25.5q0 73 2.5 146.5t2.5 154.5q-1 5 -1 10t-5 6h-19q-8 0 -11 11t-3 19
q0 5 1.5 10t9.5 5q2 0 3 -0.5t2 -0.5q24 -4 65.5 -6.5t83.5 -2.5q31 0 51.5 1.5t33 4t18.5 4t9 1.5q4 0 6 -2q3 -3 3 -16q0 -9 -3 -17.5t-12 -8.5q-28 0 -44.5 -6.5t-18.5 -33.5q-4 -48 -5 -103t-1 -112q0 -78 2 -154.5t5 -137.5q3 -67 18.5 -99t55.5 -32q41 0 65 32.5
t36 91t15.5 139.5t3.5 178t-6 225q0 5 -9.5 7.5t-19.5 2.5q-8 0 -12.5 -1.5t-7.5 -1.5q-6 0 -9.5 5.5t-3.5 11.5q0 9 5.5 16.5t9.5 7.5t25.5 1t46.5 3.5t47.5 7t27.5 12.5z" />
    <glyph glyph-name="V" unicode="V" horiz-adv-x="550" 
d="M392 739q69 0 102 4t41 4q5 0 5 -5q0 -8 -9.5 -15.5t-17.5 -10.5q-17 -6 -19.5 -21.5t-4.5 -33.5t-6 -47t-9 -64t-10.5 -76t-11.5 -83q0 -16 6 -24.5t12.5 -13.5t12 -8t5.5 -9v-2q-1 -7 -6.5 -8t-13 -2.5t-15.5 -6t-14 -19.5q-6 -43 -11.5 -83t-10 -74.5t-7.5 -62
t-4 -43.5q0 -3 -3.5 -10.5t-12.5 -15t-24.5 -13.5t-38.5 -6q-20 0 -43.5 5t-44.5 16.5t-36 29t-18 41.5q-3 26 -13 83t-23 128q-6 15 -14.5 20.5t-16.5 7.5l-14 3.5t-7 7.5v3q0 6 5.5 8.5t12 7t12 12t5.5 24.5l-59 298q-3 13 -11.5 18t-17.5 7t-16 4t-7 10q0 6 6.5 13.5
t12.5 8.5q8 1 16.5 1h18.5q38 0 82.5 -3t84.5 -3q29 0 40 2t19 2q9 0 9 -10q0 -5 -5 -6.5t-10 -3.5q-5 -1 -11 -4t-11.5 -10.5t-9.5 -22t-4 -37.5q0 -25 6 -64q6 -38 14.5 -89t17.5 -105.5t18.5 -109t18 -99t15.5 -74.5t11 -37q3 9 10.5 50.5t17 99t19.5 124t18.5 127
t14 108t5.5 66.5q-1 13 -3 25t-7 20.5t-15 13.5t-27 6q-4 0 -5.5 7.5t-2.5 10.5q0 8 7 8z" />
    <glyph glyph-name="W" unicode="W" horiz-adv-x="804" 
d="M725 747q12 0 26.5 2.5t20.5 2.5q9 0 15 -6t6 -17q0 -8 -3.5 -10.5t-8.5 -2.5q-2 0 -5 0.5t-11 0.5q-16 0 -22 -19q-2 -6 -6 -34.5t-9.5 -72.5t-12 -99.5t-13.5 -113.5q2 -14 8 -21.5t12.5 -12t11.5 -7.5t5 -9v-1q-1 -7 -6.5 -8t-13 -2.5t-15 -6t-13.5 -18.5
q-7 -57 -14.5 -109.5t-14.5 -93t-13.5 -65t-11.5 -26.5q-2 -1 -21 -2.5t-44 -1.5q-17 0 -35 1t-33 4t-24.5 8.5t-9.5 14.5q-1 9 -3.5 41.5t-7 78.5t-10 102t-11.5 113t-11 111.5t-9.5 96.5t-7.5 68t-3 28q-1 -12 -5.5 -45.5t-11 -80t-15 -102t-17.5 -111.5t-17 -109.5
t-15 -96t-11 -69.5t-5 -31q-2 -11 -10.5 -14.5t-22.5 -3.5q-7 0 -32 0.5t-52 2.5t-48.5 6t-21.5 12q0 7 -0.5 30t-2 56.5t-3 76t-3.5 89.5q-1 23 -8.5 33.5t-16 15t-16 7t-7.5 9.5v1q0 7 5.5 9t13 5t14.5 9.5t10 23.5q-4 79 -9 150.5t-11 117.5q-8 54 -40 54q-3 0 -5.5 -1
t-7.5 -1q-9 0 -12.5 6t-3.5 13q0 13 6 15q2 0 20 1.5t43.5 2.5t55.5 2.5t56.5 3t46 3t25.5 2.5q17 0 17 -19q0 -14 -8 -16q-22 -5 -29.5 -15t-7.5 -27q0 -10 1.5 -40.5t4 -74.5t5.5 -96.5t6 -106.5t6 -104.5t6 -89.5t4.5 -62.5t2.5 -23.5t5 27.5t10.5 73t15 104t17 119.5
t16.5 119.5t14 105.5t10 76.5t4 31.5q0 5 9 9t16 4t17.5 -3.5t44.5 -3.5q21 0 42 1.5t44 1.5q5 0 6.5 -3t3.5 -12q0 -8 5 -58t12 -121.5t15 -153t15.5 -151.5t12.5 -117.5t6 -51.5q1 6 7 46t14 99t17 128.5t16.5 134.5t12.5 116.5t5 75.5q0 15 -3 23.5t-7.5 12.5t-9 5.5
t-7.5 1.5q-11 1 -13.5 3t-2.5 6q0 8 4.5 16.5t15.5 8.5q12 0 25 -3t29 -3z" />
    <glyph glyph-name="X" unicode="X" horiz-adv-x="565" 
d="M448 695q5 -5 16 -5q9 0 21 2.5t24 5.5l22 5.5t16 2.5q2 0 4.5 -1t2.5 -6q0 -19 -16 -21q-17 -1 -27.5 -9t-15.5 -16q-3 -4 -12.5 -24t-22.5 -48t-28 -60t-28 -60.5t-22.5 -49.5t-11.5 -27q7 -15 16 -20.5t17 -7t14.5 -2.5t8.5 -7v-3q0 -5 -4.5 -8t-10 -7t-10.5 -10
t-6 -18q9 -30 20.5 -64.5t23.5 -68.5t23.5 -64t20.5 -51q10 -22 14 -25.5t12 -4.5q13 0 13 -17q0 -12 -14 -12q-5 0 -18.5 1t-32 1.5t-40 1t-41.5 0.5q-25 0 -45 -1.5t-28 -3.5h-1q-5 0 -7 6.5t-2 11.5q0 7 7 7q6 1 11 2.5t5 9.5q0 4 -1 7q-2 6 -8.5 27t-15 48.5t-18.5 59
t-18.5 58.5t-15 46t-7.5 23q-3 -12 -13 -33t-22.5 -45.5t-26.5 -50.5t-26 -49t-20.5 -39.5t-10.5 -22.5t-3 -10.5t-1 -7.5q0 -7 6 -10.5t15 -3.5q3 0 5 -4.5t2 -9.5q0 -6 -3 -11.5t-10 -6.5h-1q-4 0 -21.5 1.5t-39.5 1.5q-23 0 -42 -3q-2 0 -6 1t-4 6q0 6 3 15t12 9
q4 -1 8 -1h14q5 0 9.5 4.5t11.5 18.5q6 10 22.5 42t36.5 71.5t40 80.5t33 70q-10 11 -20.5 13.5t-10.5 11.5v1q0 6 4.5 8t11 3.5t13.5 5t12 12.5q-5 18 -14 50t-21 70t-25 77t-26 71t-25.5 52.5t-21.5 20.5q-3 0 -7 -0.5t-11 -0.5q-8 0 -10 2.5t-2 10.5v6q0 10 6 12.5
t11 2.5q13 0 43.5 0.5t64 1.5t63.5 2t41 3q2 0 4.5 0.5t4.5 0.5q11 0 15.5 -5t4.5 -10q0 -4 -3 -5q-11 -5 -21.5 -11t-10.5 -25q2 -18 12.5 -54.5t23.5 -76.5t25.5 -76t18.5 -52l3 -7q2 7 9.5 24.5t17.5 39.5t21 45.5t21 44.5t16.5 36t7.5 19q1 3 1 9q0 9 -3.5 14.5t-8 10
t-8 8.5t-3.5 9t3.5 9.5t8.5 4.5q6 0 12 -6z" />
    <glyph glyph-name="Y" unicode="Y" horiz-adv-x="582" 
d="M548 770q2 1 5 2t5 1q5 0 7 -4.5t2 -10.5q0 -4 -1 -14t-7 -10q-1 0 -2.5 0.5t-5.5 0.5q-5 0 -12 -1.5t-14 -4t-12 -5t-6 -5.5q-5 -9 -13.5 -35t-20 -61t-23.5 -74.5t-22.5 -75t-19 -63.5t-12.5 -39q4 -11 11 -16.5t13.5 -9t11 -6t4.5 -8.5q0 -7 -5.5 -8.5t-12.5 -3.5
t-14.5 -7t-12.5 -18q0 -32 1 -69.5t3 -71.5l3.5 -59.5t3.5 -34.5q2 -11 2.5 -16t11.5 -7q3 -1 10.5 -5.5t7.5 -15.5q0 -10 -6 -13t-14 -3q-4 0 -11 0.5t-32 0.5h-75q-19 0 -38.5 -1t-42.5 -1q-16 0 -16 17q0 7 3.5 13t10.5 7q10 2 11.5 4.5t3.5 10.5q2 13 2.5 33t0.5 45
q0 31 -1 62t-3 66q-2 22 -8.5 32t-14.5 15.5t-14 8t-6 9.5v1q0 5 3.5 7t9 3.5t11.5 3.5t12 8q-5 15 -17 46t-26.5 69t-31 78.5t-30 75.5t-23.5 59t-12 29q-5 12 -13.5 21t-17 15t-15 9t-7.5 4q-5 2 -8.5 9t-3.5 13q0 10 9 10q4 0 7.5 -1.5t5.5 -2.5q9 -4 28 -7t42.5 -4.5
t48.5 -2.5t46 -1q42 0 62 4.5t22 4.5q6 0 10 -5t4 -12q0 -5 -4 -7t-7 -3q-32 -10 -32 -22q0 -9 6 -25q5 -14 13.5 -39t19 -55.5t22 -63.5t21 -62.5t17.5 -52.5t11 -34q1 4 9 29t18.5 60.5t23 75.5t23.5 75.5t18 60t8 28.5v1q0 4 -4.5 7t-10.5 5t-11.5 3.5t-7.5 3.5
q-2 3 -4.5 9t-2.5 11q0 2 1.5 6t5.5 4q2 0 4.5 -1t4.5 -2q5 -2 15 -3t22 -1q20 0 40.5 2t28.5 5z" />
    <glyph glyph-name="Z" unicode="Z" horiz-adv-x="527" 
d="M59 746q4 1 34.5 2t75 1.5t96 1t97 0.5h78h39.5q13 0 13 -9q0 -5 -5 -17l-143 -356q0 -12 4 -20t9.5 -13.5t9.5 -10t4 -8.5t-3.5 -6.5t-8.5 -2.5h-12q-10 0 -21 -6.5t-22 -34.5q-17 -42 -32.5 -82.5t-27.5 -73t-19 -53.5t-7 -25v-1q47 0 74 11t41.5 29.5t20 44t10.5 54.5
l2 13q2 14 11.5 24.5t20.5 17t21 9.5t14 3q6 0 6 -11q0 -14 -5.5 -46t-5.5 -83q0 -17 2.5 -37.5t2.5 -42.5q0 -10 -14 -14t-25 -4q-17 0 -36.5 1t-47.5 1q-29 0 -62.5 -0.5t-66.5 -0.5t-62.5 -0.5t-49.5 -0.5q-30 0 -32 1q-1 0 -1 3q0 6 6.5 22.5t15.5 37t18.5 42t15.5 36.5
q9 24 24 62.5t28.5 76t23.5 66.5t10 34q0 11 -4 18.5t-9.5 12.5t-9.5 8.5t-4 8.5q0 4 3.5 6.5t8.5 2.5h11q8 0 16 3t16 15l33 91q6 18 17 44.5t21.5 52t18.5 45.5t8 26q0 1 -12 1.5t-27 1t-28.5 0.5h-16.5q-37 0 -57.5 -11t-31 -28.5t-13.5 -39.5t-4 -44q0 -5 -0.5 -8.5
t-0.5 -8.5q-1 -5 -15.5 -9t-25.5 -4q-6 0 -10.5 3.5t-4.5 10.5q0 3 3.5 15.5t3.5 38.5q0 31 -3 62.5t-3 44.5q0 6 1 6z" />
    <glyph glyph-name="bracketleft" unicode="[" horiz-adv-x="372" 
d="M322 -69q18 0 28.5 -3.5t10.5 -23.5q0 -11 -4.5 -20.5t-15.5 -9.5q-18 0 -34.5 1.5t-32.5 1.5q-53 0 -89.5 -2t-60.5 -4t-37 -4t-17 -2q-10 0 -10 14q0 2 0.5 3t0.5 3q2 14 3.5 52t3 91.5t2.5 119.5t1.5 136t0.5 140.5t0.5 133t0.5 113.5v83q0 18 -0.5 28.5t-1 16.5
t-1 8.5t-0.5 4.5q0 7 15 7h65h66t67.5 -1t53 -2t22.5 -3q3 -8 3 -20q0 -14 -5 -19t-16 -5t-27.5 1.5t-32.5 1.5q-10 0 -21 -2t-20 -6.5t-15 -11.5t-7 -16q-1 -11 -1.5 -56.5t-1.5 -111.5t-1.5 -145t-1 -156t-0.5 -144.5v-110.5v-57q2 -17 11.5 -22t28.5 -5q20 0 36.5 1.5
t33.5 1.5z" />
    <glyph glyph-name="bracketright" unicode="]" horiz-adv-x="372" 
d="M50 -69q17 0 33.5 -1.5t36.5 -1.5q19 0 28.5 5t11.5 22v57v110.5t-0.5 144.5t-1 156t-1.5 145t-1.5 111.5t-1.5 56.5q-1 9 -7 16t-15 11.5t-20 6.5t-21 2q-16 0 -32.5 -1.5t-27.5 -1.5t-16 5t-5 19q0 12 3 20q1 2 22.5 3t53 2t67.5 1h66h65q15 0 15 -7q0 -2 -0.5 -4.5
t-1 -8.5t-1 -16.5t-0.5 -28.5v-83t0.5 -113.5t0.5 -133t0.5 -140.5t1.5 -136t2.5 -119.5t3 -91.5t3.5 -52q0 -2 0.5 -3t0.5 -3q0 -14 -10 -14q-4 0 -17 2t-37 4t-61 4t-89 2q-16 0 -32.5 -1.5t-34.5 -1.5q-11 0 -15.5 9.5t-4.5 20.5q0 20 10.5 23.5t28.5 3.5z" />
    <glyph glyph-name="underscore" unicode="_" horiz-adv-x="691" 
d="M552 39q23 0 47 0.5t48 0.5q11 0 17.5 -7t6.5 -21q-1 -18 -11.5 -21t-17.5 -3q-15 0 -62 -1t-111 -1q-40 0 -85.5 -1t-91 -3t-88 -4t-77 -4t-57 -3t-27.5 -1q-9 0 -16 6t-7 18q0 13 9.5 19.5t15.5 8.5q10 4 56 7t115 4.5t156 3t180 2.5z" />
    <glyph glyph-name="grave" unicode="`" 
d="M343 952q11 -29 28 -57.5t39 -61.5q5 -5 5 -13q0 -7 -4.5 -13t-12.5 -6q-5 0 -9 3.5t-6 5.5q-29 32 -48.5 55.5t-35.5 47.5q-5 8 -9.5 15.5t-5.5 18.5q0 11 8 17.5t19 6.5q9 0 19 -4.5t13 -14.5z" />
    <glyph glyph-name="a" unicode="a" 
d="M572 757q6 0 11 -4t5 -12t-4 -14t-8 -7q-21 -5 -28 -8t-8 -6q-1 -5 -3.5 -27t-4.5 -54.5t-4 -71t-4 -76t-3.5 -69.5t-2.5 -51q3 -16 10 -23.5t14.5 -11.5t13.5 -6.5t6 -8.5q0 -8 -6.5 -9.5t-14 -4.5t-15 -10t-10.5 -25q0 -49 2.5 -101t5.5 -103q0 -5 1 -17t7 -12
q2 0 4 0.5t6 0.5q5 0 13 -2.5t8 -16.5q0 -6 -3.5 -9.5t-8.5 -3.5t-24 3t-71 3q-33 0 -67.5 -2t-66.5 -13q-10 0 -10 13q0 5 2 10.5t5 6.5q2 0 7.5 1.5t7.5 5.5q5 11 6 18.5t3 19.5q3 29 6.5 93.5t6.5 143.5h-44q-43 0 -82 0.5t-73 0.5q-2 -53 -6.5 -99.5t-9.5 -73.5
q-4 -18 -14.5 -43.5t-24.5 -49t-29 -39.5t-27 -16q-10 0 -10 10q0 3 9 13.5t14 25.5q13 39 18.5 101.5t9.5 134.5q-2 16 -9 23.5t-14.5 11.5t-13 6.5t-5.5 8.5v1q0 7 6 8.5t14 4t15.5 9t11.5 23.5q3 63 8 119.5t16 100.5q4 16 7 31.5t10 33.5t19.5 39.5t35.5 49.5
q-13 -1 -29.5 -4.5t-32 -10.5t-27.5 -17.5t-16 -25.5q-1 -6 -7 -6q-4 0 -8.5 1.5t-4.5 6.5q0 1 0.5 2t0.5 2q5 19 19 34.5t32.5 26.5t40 16.5t41.5 5.5q22 0 48 -4.5t59 -10t75.5 -10t96.5 -4.5q20 0 41.5 2t31.5 9q7 5 12.5 8.5t10.5 3.5zM246 683q-27 -27 -43 -67.5
t-25.5 -88.5t-13.5 -100.5t-6 -103.5q54 0 104.5 1.5t94.5 3.5q2 45 2.5 90t0.5 87q0 43 -1 81t-3.5 67t-6 46.5t-8.5 19.5q-11 4 -22 4q-21 0 -39 -12t-34 -28z" />
    <glyph glyph-name="b" unicode="b" horiz-adv-x="678" 
d="M387 404q75 0 128.5 -16t87 -43t49 -63t15.5 -75q0 -60 -27 -100.5t-70 -66t-96.5 -36.5t-106.5 -11q-42 0 -86 4.5t-80.5 18.5t-62 39.5t-31.5 68.5q-2 17 -3 39t-1 47q0 18 1 36.5t1 37.5q0 13 -6.5 22t-15 15.5t-15 10.5t-6.5 7v1q0 7 6.5 8.5t14.5 4.5t16 10t11 27
q3 56 7.5 100.5t9 80t7.5 63t3 49.5q0 15 -15 15q-3 0 -6.5 -0.5t-8.5 -0.5q-7 0 -15 1.5t-15 5t-11.5 9.5t-4.5 16t4.5 12.5t7.5 2.5q52 1 118 4t132 3q25 0 54 -1t57.5 -3t55 -7t47.5 -12q33 -12 54 -39.5t21 -88.5q0 -49 -16 -84t-45 -58.5t-70.5 -36t-93.5 -17.5z
M355 12q36 0 63.5 19t46 49t28 66t9.5 70q0 36 -9.5 67.5t-29 55t-48 36.5t-66.5 13q-14 0 -26 -3t-14 -3t-6 1.5t-4 6.5q0 4 2.5 8.5t7.5 6.5q43 10 72.5 28.5t47.5 47t25.5 69t7.5 94.5q0 48 -22.5 64.5t-61.5 16.5q-5 0 -9.5 -0.5t-9.5 -0.5q-14 -1 -24.5 -9.5t-17 -19.5
t-10 -21t-3.5 -13q-8 -52 -14 -112t-10.5 -123.5t-7 -129t-2.5 -128.5q0 -27 2.5 -54.5t11 -50t25.5 -37t46 -14.5z" />
    <glyph glyph-name="c" unicode="c" horiz-adv-x="502" 
d="M377 748q15 0 33.5 -5t34 -16t26 -30t10.5 -46q0 -6 -0.5 -16t-3 -19.5t-7.5 -17t-13 -7.5q-11 0 -23 9t-12 24v20q0 11 -2.5 22.5t-8 21t-15 15.5t-23.5 6q-41 0 -66.5 -35.5t-40.5 -90t-20.5 -120t-5.5 -125.5t6 -116.5t18 -100t29.5 -69.5t41.5 -26q37 0 56.5 26.5
t19.5 61.5q0 11 -0.5 21t-0.5 18q0 21 23 21q12 0 24 -5t12 -13q0 -17 -5.5 -45t-22.5 -55t-47.5 -47t-81.5 -20q-116 0 -173 71t-72 217q-3 17 -11 24.5t-15.5 11t-14 5.5t-6.5 9t5.5 9t12.5 4.5t14 8t10 19.5q-1 9 -1 18.5v19.5q0 82 23.5 146t65.5 107.5t100 66t127 22.5
z" />
    <glyph glyph-name="d" unicode="d" horiz-adv-x="675" 
d="M624 503q0 -30 -3.5 -60.5t-3.5 -64.5q0 -17 6 -26t12.5 -14t12.5 -8t6 -9v-2q-1 -7 -7.5 -8t-14.5 -2.5t-16.5 -7.5t-13.5 -22q-43 -150 -155 -225t-308 -75q-36 0 -75 3q-5 1 -7 4t-2 6q0 5 3 5q6 2 13 4t13.5 6t11.5 11t7 20l1.5 19t4.5 51.5t6 75.5t6 93
q-3 15 -9.5 22.5t-14 11.5t-13 7t-5.5 9v1q0 7 6.5 8.5t14.5 4t16 10t11 26.5q2 52 3.5 103.5t1.5 98.5q0 61 -3 108q-2 23 -14.5 31t-23.5 12q-6 0 -6 8q0 5 2 11.5t7 6.5h1q5 -2 18.5 -4t31.5 -4t39 -3.5t41 -1.5q27 0 55 3t62 3q91 0 146.5 -21.5t85.5 -56.5t40 -79
t10 -89zM296 35q43 12 74.5 37.5t53 60.5t35 76.5t21 85.5t10 88t2.5 83q0 81 -11 128.5t-31 73t-47 33t-59 7.5q-7 0 -13.5 -0.5t-14.5 -0.5q-13 -1 -21 -38t-12.5 -95t-6.5 -129.5t-2 -141.5q0 -50 0.5 -95.5t1.5 -81.5t2 -59.5t1 -29.5q0 -4 6 -4q3 0 11 2z" />
    <glyph glyph-name="e" unicode="e" horiz-adv-x="610" 
d="M561 744q4 0 9 -2t5 -9q0 -2 -2 -8t-5 -13.5t-5.5 -15t-3.5 -13.5q-4 -16 -4.5 -36.5t-2.5 -34.5q-3 -20 -19 -20q-13 0 -16.5 6.5t-3.5 11.5q1 6 1 9.5v7.5q0 37 -22.5 60t-69.5 23q-12 0 -22 0.5l-20 1t-21.5 1t-26.5 0.5q-18 0 -26 -12t-9 -25q-2 -15 -3.5 -42t-2 -62
t-1 -76t-0.5 -84q42 0 78.5 0.5t53.5 0.5q14 0 25 8.5t19.5 19t14.5 19t10 8.5q3 0 4.5 -6t1.5 -14q0 -12 -1.5 -25.5t-1.5 -20.5t1.5 -23t1.5 -30q0 -10 -1.5 -16.5t-4.5 -6.5q-4 0 -10.5 9t-15.5 19.5t-19.5 19.5t-22.5 9q-33 0 -66 -1.5t-67 -3.5q0 -44 0.5 -86.5
t1 -80.5t1.5 -70t3 -53q1 -18 4.5 -30.5t13 -20t26 -11t44.5 -3.5q27 0 50.5 7t43.5 27q17 17 32.5 40t15.5 41q1 4 5.5 9t15.5 5q7 0 12.5 -2.5t5.5 -11.5t-1.5 -33.5t-5.5 -50.5t-11 -46t-18 -20q-19 0 -47 1t-62 1q-49 0 -105 -1.5t-106 -5.5t-89 -11.5t-55 -18.5
q-1 -1 -3 -1q-11 0 -11 11q0 6 3 11q2 6 12 12.5t21.5 15.5t20.5 22.5t9 34.5q0 38 0.5 94t2.5 123q-3 16 -10 24t-14.5 12t-13.5 6.5t-6 8.5v1q0 7 6 9t14 5t15.5 10t10.5 26q1 63 2 117t2 94t2 64.5t1 29.5q0 15 -8 25.5t-18 18t-19 11.5t-11 5q-6 2 -9.5 9t-3.5 13
q0 3 2 7t7 4q4 0 7.5 -1.5t6.5 -2.5q13 -6 49.5 -10.5t85 -7.5t103 -5t103 -3t86 -1.5t51.5 -0.5z" />
    <glyph glyph-name="f" unicode="f" horiz-adv-x="622" 
d="M544 744q39 0 53 -6t14 -20q0 -15 -10 -39t-15 -58q-3 -17 -9.5 -23.5t-12.5 -6.5q-12 0 -15 12q-2 7 -2 25.5t-7 38t-25 34t-57 14.5q-32 0 -64.5 -1t-72.5 -1q-9 0 -14 -10.5t-7 -21.5q-4 -22 -6.5 -56.5t-3.5 -73t-1.5 -77.5t-0.5 -70q50 2 93 2.5t62 0.5q15 0 26 8.5
t19.5 19t14.5 19.5t10 9q3 0 4 -7t1 -17q0 -14 -1 -29.5t-1 -22.5t1 -21t1 -26q0 -8 -1 -14t-4 -6q-4 0 -10.5 9t-15.5 19.5t-19.5 19.5t-22.5 9q-38 0 -76.5 -1.5t-80.5 -3.5q0 -78 3 -158t5 -171q0 -13 3.5 -17t18.5 -5q6 -2 6 -13q0 -12 -8 -16t-22 -4q-19 0 -46 -1
t-58 -5t-63.5 -12.5t-62.5 -22.5q-1 -1 -3 -1q-4 0 -7.5 3t-3.5 8q0 2 1 7t3 7q3 6 13.5 12t21 15t19 22.5t8.5 33.5q0 49 0.5 99.5t2.5 109.5q-1 22 -8 32t-15.5 15t-15 7.5t-6.5 9.5v1q0 8 7 9.5t16 5t16.5 14t7.5 36.5q1 53 2 102.5t2 88t2 63t1 27.5v3q0 15 -8 25.5
t-18 18t-19 11.5t-11 5q-6 2 -9.5 9t-3.5 13q0 4 2.5 7.5t7.5 3.5t13 -4q3 -2 24.5 -4.5t54 -5t74 -5t85.5 -4.5t88 -3t81 -1q12 0 24.5 0.5t30.5 0.5z" />
    <glyph glyph-name="g" unicode="g" horiz-adv-x="532" 
d="M493 387q0 -9 1 -20q1 -10 1.5 -23t0.5 -29q0 -29 -2.5 -65.5t-9.5 -73.5t-20.5 -72.5t-34.5 -63t-51.5 -44t-72.5 -16.5q-71 0 -116 29t-72 73t-38.5 97t-14.5 100q-3 16 -10 23t-14.5 10.5t-13 5.5t-5.5 9v1q0 6 5.5 8t12.5 5t14 8.5t10 19.5q0 9 0.5 16t0.5 12
q1 16 4 48t13.5 70t30 78t53.5 72.5t84.5 53.5t122.5 21q118 0 118 -97q0 -10 -1 -23.5t-4.5 -26t-11 -21.5t-19.5 -9q-18 0 -23.5 21.5t-10 47.5t-13.5 47.5t-34 21.5q-31 0 -53.5 -17.5t-38.5 -46.5t-25.5 -65.5t-14.5 -74.5t-7 -73.5t-2 -61.5q0 -64 7 -125.5t20.5 -110
t32.5 -78.5t43 -30q20 0 34 17t23 45t13.5 62t4.5 69q0 12 -1 37t-5.5 49.5t-15 43t-29.5 18.5q-10 0 -14.5 -5t-6.5 -7q-3 -3 -6 -3q-5 0 -9.5 6.5t-4.5 13.5q0 10 10.5 16t24.5 9t29 4t23 1q26 0 50 -2.5t38 -4.5z" />
    <glyph glyph-name="h" unicode="h" horiz-adv-x="771" 
d="M723 757q6 0 9.5 -5.5t3.5 -11.5t-4 -9.5t-9 -5.5q-2 -1 -7.5 -3t-13 -6t-15.5 -10t-13 -14q-5 -6 -8.5 -34.5t-6 -71.5t-4.5 -96t-3 -109q1 -18 8 -27t15 -13.5t14 -7t6 -9.5v-1q0 -8 -6.5 -9t-14 -4.5t-15 -12.5t-9.5 -31q-1 -56 -1 -112v-116q0 -20 7.5 -33.5
t17.5 -22.5t20 -15t15 -10q3 -3 3 -9t-4 -10t-9 -1q-6 3 -22.5 8.5t-40.5 10.5t-52.5 8.5t-58.5 3.5q-42 0 -79 -9q-2 -1 -6 -1q-6 0 -8.5 3.5t-2.5 4.5q0 5 4 9.5t9.5 8.5t10 7t6.5 5q5 1 10 31.5t8.5 78.5t7 109t5.5 125q-35 1 -73.5 1.5t-77.5 0.5h-56q0 -16 -1 -51.5
t-1 -77.5q0 -34 1 -68t5 -61.5t10 -45.5t17 -19q17 -2 21.5 -7.5t4.5 -11.5q0 -5 -2 -10.5t-9 -5.5q-4 0 -24.5 4.5t-56.5 4.5q-31 0 -61 -3.5t-55 -8t-42.5 -9t-22.5 -7.5q-1 -1 -4 -1q-12 0 -12 14v5q2 10 12 16.5t21 13.5t19.5 16.5t8.5 26.5v2v24.5t0.5 49t1 68
t1.5 80.5q-3 16 -9.5 24t-14 12t-13 6.5t-5.5 9.5t5.5 8.5t13 4t14.5 8.5t11 21q1 54 2 105t2 91.5t2 66t1 28.5v3q0 14 -7.5 24.5t-17.5 17.5t-18.5 11t-10.5 5q-12 5 -12 13q0 6 5.5 11t12.5 5q3 0 9.5 -2.5t22 -6t44 -6t75.5 -2.5q19 0 38 1t35 2t26.5 2t12.5 1
q8 0 14 -3.5t6 -14.5q0 -15 -15 -18t-29 -4q-7 0 -11.5 -17.5t-8 -45.5t-6 -63t-3.5 -71t-2 -70t-1 -58q27 1 56.5 1h60.5h46t46 -1q2 56 2.5 108t0.5 94q0 38 -0.5 63t-2.5 35q-2 11 -8 21t-22 11q-1 0 -5 0.5t-8.5 3t-8 6.5t-3.5 10t3 12.5t11 6.5q2 0 10 -2q20 -5 44 -7
t50 -2q83 0 123.5 9t44.5 9z" />
    <glyph glyph-name="i" unicode="i" horiz-adv-x="384" 
d="M309 738q8 -1 11.5 -5.5t3.5 -10.5q0 -14 -9 -21t-23 -7q-9 0 -13.5 -6.5t-6.5 -16t-2 -19.5v-17q-1 -17 -4.5 -83.5t-3.5 -183.5q3 -15 10.5 -22t15 -10.5t13.5 -6t6 -8.5q0 -8 -6.5 -9.5t-14.5 -5t-15 -11.5t-9 -29q1 -49 3 -106t4 -115q0 -11 2 -17t5 -8.5t7.5 -4
t9.5 -3.5q8 -4 11 -10.5t3 -11.5q0 -11 -13 -11q-13 1 -49 5.5t-76 4.5q-22 0 -36 -2t-24.5 -4t-19 -4t-18.5 -2q-11 0 -11 10q0 7 10.5 17.5t18.5 13.5q14 5 16 25t2 63q0 26 1 70.5t2 97.5q-3 18 -10 26t-15 12t-14 6.5t-6 9.5q0 8 7.5 9.5t16.5 5t16 13t7 33.5
q0 62 -0.5 124.5t-0.5 129.5q-2 25 -4.5 39.5t-14.5 14.5q-3 0 -7.5 2.5t-9.5 6.5t-9 9.5t-4 11.5q1 7 6 8.5t10 1.5q4 0 16.5 -1.5t30.5 -3.5t40 -3.5t46 -1.5q25 0 50 2.5t48 8.5z" />
    <glyph glyph-name="j" unicode="j" horiz-adv-x="517" 
d="M414 732q32 0 42.5 3t12.5 3q5 0 8.5 -6t3.5 -12q0 -8 -6 -11q-8 -3 -12 -3.5t-11 -2.5q-3 -2 -3.5 -7.5t-0.5 -8.5q-5 -88 -10 -167t-14 -150q2 -14 8 -21.5t13 -12t12 -7.5t5 -9q0 -8 -6 -9t-14.5 -3t-17.5 -9t-14 -27q-9 -36 -16.5 -70.5t-18.5 -67.5t-28.5 -64
t-48.5 -61q-22 -20 -50 -32t-69 -12q-4 0 -17.5 2t-31 10t-37 25t-36 47t-27 76t-10.5 112q0 30 3 66q2 25 16 38.5t34.5 20t44.5 8t46 1.5q7 0 10 -2t3 -12q0 -8 -1 -10q-2 -6 -12 -7.5t-18 -6.5q-5 -3 -9.5 -16t-7.5 -32.5t-4.5 -44t-1.5 -50.5q0 -33 3 -66.5t10 -60
t18 -43t28 -16.5q25 0 43 22t30 59t18.5 85.5t8.5 102.5q-2 18 -9.5 26t-15 12t-13.5 7t-6 9q0 9 7 10.5t15.5 5t15.5 13t7 34.5q0 53 -2 101.5t-4.5 86.5t-5 64.5t-3.5 35.5q-1 10 -3.5 21.5t-15.5 11.5q-11 0 -15 -2t-7 -2q-5 0 -8 6t-3 13q0 9 6 10q10 2 24 2q15 0 36 -1
t43.5 -2t45.5 -2t43 -1z" />
    <glyph glyph-name="k" unicode="k" horiz-adv-x="647" 
d="M639 32q19 0 23 -4.5t4 -16.5q0 -4 -1 -7.5t-6 -3.5q-22 0 -45 1t-58 1q-29 0 -58.5 -1.5t-61.5 -1.5q-4 0 -7 -0.5t-6 -0.5q-14 0 -14 16q0 6 3.5 9t8 4.5t10 2t8.5 1.5q2 0 2 4q0 11 -14.5 44.5t-35 77t-42.5 89.5t-36 82q-21 -35 -35 -59.5t-17 -30.5q-1 -2 -2 -14
t-1.5 -29.5t-1 -39t-0.5 -42.5q0 -25 0.5 -46t1.5 -33q1 -8 9 -8q2 0 4 0.5t6 0.5q8 0 11 -5t3 -12q0 -5 -1.5 -9.5t-9.5 -4.5q-47 0 -94.5 1t-98.5 1q-6 0 -12.5 -1t-14.5 -1t-9 11q0 11 5 14.5t18 5.5q10 1 12.5 5t2.5 14q0 65 2.5 117t2.5 105q0 22 -6.5 32t-15 15t-15 8
t-6.5 10v1q0 7 5.5 8.5t13 3.5t14.5 7.5t12 19.5q1 55 2 108.5t1.5 99t1 78.5t0.5 47q0 9 -10 8t-24 3q-11 2 -12.5 10t-1.5 13q1 8 4.5 10t6.5 2q4 0 16 -1.5t34.5 -3.5t56.5 -3.5t81 -1.5q39 0 52.5 3.5t15.5 3.5q6 0 10.5 -4t4.5 -12q0 -16 -18 -21q-3 -1 -8.5 -2
t-11.5 -3.5t-11 -7.5t-7 -14q-3 -9 -5 -35.5t-3.5 -62t-3 -75t-2.5 -75t-2.5 -63t-2.5 -37.5q3 1 20 24.5t41 59t52 78t52.5 80t42 65.5t21.5 35q6 10 6 19q0 12 -10.5 19t-23.5 7q-8 0 -16 -1.5t-14 -5.5q-2 -2 -6 -2q-8 0 -8 13q0 10 6 13q24 11 48 11q14 0 28.5 -3.5
t31.5 -3.5q35 2 51 5t18 4q4 2 9 2t9.5 -5t4.5 -12q0 -5 -5 -11.5t-21 -11.5q-14 -5 -35 -26.5t-46.5 -54t-53.5 -73.5t-55 -83q5 -28 23 -72t41.5 -93.5t50 -99.5t50 -90.5t39.5 -66t20 -25.5h8z" />
    <glyph glyph-name="l" unicode="l" horiz-adv-x="572" 
d="M556 162q6 -2 6 -12q0 -17 -1.5 -44.5t-5 -53t-10.5 -44t-19 -18.5q-20 0 -49.5 1t-65.5 1q-49 0 -103.5 -1.5t-104 -5.5t-88 -11.5t-53.5 -18.5q-1 -1 -3 -1q-5 0 -7 4.5t-2 10.5q0 2 0.5 4t0.5 3q2 8 12 14t21.5 15t20.5 22.5t9 36.5q0 52 0.5 105.5t2.5 116.5
q-3 14 -10.5 21t-14.5 10.5t-12.5 6t-5.5 8.5v1q0 7 6 9l13.5 4.5t15 9.5t10.5 24q1 55 2 108t2 95t2 69t1 30v3q0 15 -8 25.5t-18 18t-19 11.5t-11 5q-6 2 -9.5 9t-3.5 13q0 3 2 7t7 4q4 0 7.5 -1.5t6.5 -2.5q33 -12 79 -15.5t88 -5t71.5 -4t29.5 -11.5q0 -5 -4.5 -7.5
t-11 -3.5t-12.5 -1.5t-9 -0.5q-6 -1 -10.5 -32t-7 -79.5t-3.5 -109.5t-1 -123q3 -18 10.5 -26t15.5 -11.5t14 -6t6 -9.5q0 -8 -6 -9.5t-14 -4.5t-15.5 -11t-9.5 -27q0 -38 0.5 -70.5t1 -57.5t1 -40t0.5 -18q1 -18 1.5 -30.5t6 -20t19 -11t41.5 -3.5q40 0 74 13.5t59 43.5
q10 12 19 31t10 37q2 7 13.5 9.5t19.5 2.5z" />
    <glyph glyph-name="m" unicode="m" horiz-adv-x="865" 
d="M796 747q6 0 12.5 -5t6.5 -12q0 -6 -13 -12q-8 -5 -23 -12.5t-23 -21.5q-7 -11 -10.5 -85.5t-3.5 -210.5q1 -21 8.5 -30t16 -13.5t15 -7t6.5 -9.5q0 -8 -6 -9.5t-14 -4.5t-15 -10.5t-10 -26.5q1 -60 3 -119.5t2 -128.5q0 -20 5 -29.5t11.5 -14t12 -7t6.5 -8.5v-1
q0 -4 -3 -12t-5 -10q-4 -4 -8 0q-27 17 -60 25.5t-62.5 12t-50.5 4.5t-24 4q-2 2 -2 8q0 13 5 20q4 8 4.5 25.5t0.5 36.5q0 17 -0.5 62t-1 104t-1 126t-0.5 128q0 38 0.5 72.5t0.5 60.5q-4 -21 -13.5 -71.5t-22 -114t-26 -132.5t-25 -128.5t-19 -101.5t-8.5 -50
q-2 -24 -19 -35.5t-42 -11.5q-16 0 -37.5 1.5t-40.5 5t-33 10t-15 15.5t-5 40t-9.5 75t-12 97.5t-14 108t-14.5 106t-12.5 92t-10 66t-6.5 27.5q-2 -17 -5 -64.5t-6.5 -110t-7.5 -132t-7 -130t-5.5 -104t-3.5 -54.5q0 -8 2 -14t10 -7q8 0 11.5 -6.5t3.5 -14.5
q0 -6 -3.5 -7.5t-14.5 -1.5q-8 0 -19 0.5t-23 0.5q-17 0 -33 -2.5t-29 -10.5q-1 -1 -3 -1q-5 0 -6.5 5t-1.5 10q0 2 0.5 4t0.5 3q1 6 9 10t17 10.5t16.5 18.5t9.5 34q0 4 2 23t4 48.5t5 67.5t6 80q-4 12 -11 18.5t-13.5 10t-11.5 6t-5 8.5v1q0 7 6 8.5t13.5 4t15 8.5
t11.5 22q4 66 7 127.5t3 106.5q0 30 -1.5 49.5t-5.5 25.5q-5 8 -19.5 20t-27.5 17q-5 2 -8.5 5.5t-3.5 8.5q0 4 3 11t8 7q4 0 7.5 -2t6.5 -3q10 -4 26.5 -7t37.5 -4.5t44 -2.5t46 -1q32 0 59 1.5t39 3.5q5 -1 5 -6q0 -31 3.5 -80.5t9.5 -108t14 -121t15.5 -120t14.5 -105.5
t12 -76q3 2 8.5 25.5t13 61.5t16 86.5t17.5 99.5t17.5 101.5t15.5 92t11.5 71t6.5 38.5q4 22 12.5 29.5t25.5 7.5q20 0 42.5 -0.5t47.5 -0.5q37 0 73.5 2t65.5 9q1 0 1.5 0.5t1.5 0.5z" />
    <glyph glyph-name="n" unicode="n" horiz-adv-x="670" 
d="M573 148q0 -31 7 -52.5t16.5 -36.5t18.5 -26t14 -21v-1q0 -3 -3 -9t-8.5 -13t-12.5 -12t-14 -5q-65 0 -116.5 37.5t-93 93.5t-73.5 121.5t-56.5 121.5t-43.5 93.5t-34 37.5q-4 0 -5 -10.5t-1 -18.5q0 -13 1 -27t1 -35q0 -25 -0.5 -57t-1 -66.5t-1.5 -69t-1.5 -65t-1 -54
t-0.5 -35.5v-11q2 -7 13 -9.5t19 -4.5q2 -1 6 -6t4 -11q0 -12 -14 -12h-3q-24 3 -43 3q-46 0 -69 -17q-1 -1 -3 -1q-8 0 -8 9v3q2 7 9.5 12.5t16.5 14.5t16 22t9 35q0 4 0.5 22t1.5 45.5t1.5 63.5t1.5 76q-3 15 -10 22t-14.5 10.5t-13 6t-5.5 8.5v1q0 7 5.5 9t13 4.5
t14.5 8.5t11 21q0 21 0.5 41.5t0.5 40.5q0 44 -1 84.5t-2.5 72t-4.5 52t-6 26.5q-11 18 -27 26t-19 10q-5 2 -9.5 5t-4.5 10q0 5 1.5 9.5t8.5 4.5q102 0 176 -62q43 -36 77 -85t61 -103t48 -108t39 -99t33.5 -77t30.5 -41q1 53 4 112t5 120t4 122.5t2 121.5q0 19 -2.5 28
t-7.5 13t-11.5 4t-14.5 2q-5 1 -10 6.5t-5 14.5q0 5 2.5 11t9.5 6q19 0 40.5 -1.5t59.5 -1.5h21q5 0 6 -5.5t1 -10.5q0 -11 -4 -14q-5 -5 -14.5 -5.5t-15.5 -2.5q-9 -2 -12.5 -16.5t-3.5 -26.5q0 -57 -0.5 -119.5t-0.5 -148.5q0 -21 6.5 -31.5t15 -15.5t15 -7.5t6.5 -9.5v-1
q0 -7 -6 -8.5t-13.5 -4t-15 -8t-11.5 -21.5q-1 -37 -1.5 -69.5t-0.5 -55.5z" />
    <glyph glyph-name="o" unicode="o" horiz-adv-x="646" 
d="M585 383q1 -17 7.5 -25.5t13.5 -13t13 -7.5t6 -9v-1q0 -5 -6.5 -7.5t-14.5 -6.5t-16 -11.5t-12 -20.5q-7 -49 -22 -102t-43.5 -97.5t-72.5 -73t-110 -28.5q-73 0 -120 28.5t-76 72t-43 96t-21 99.5q-3 21 -10.5 29.5t-16 12.5t-14.5 6t-6 9v1q0 7 6 8.5t13.5 4.5
t14.5 10.5t10 24.5q1 16 4 49t13 73.5t29 83.5t51 78.5t79.5 58t114.5 22.5q8 -2 8 -11q0 -7 -4.5 -13.5t-13.5 -6.5q-26 -4 -45 -24.5t-32.5 -51.5t-21.5 -68.5t-12.5 -75t-6 -72.5t-1.5 -60q0 -27 1 -63.5t5 -76t11 -78t18.5 -69t28 -49.5t39.5 -19t39 18.5t26.5 48.5
t17 68.5t9.5 77.5t4 76t1 65q0 88 -1.5 142.5t-6.5 84.5t-13.5 40.5t-23.5 10.5q-14 0 -37 -14q-1 -1 -3 -1q-5 0 -10 7t-5 16q0 11 8 16q25 17 45.5 22t39.5 5q46 0 77.5 -31.5t51 -75t28 -89.5t8.5 -76v-37v0z" />
    <glyph glyph-name="p" unicode="p" horiz-adv-x="647" 
d="M225 740q39 0 76 1.5t69 4t55.5 4t35.5 1.5q44 0 77 -12.5t54.5 -34t32.5 -50.5t11 -61q0 -47 -22 -95.5t-65 -88.5t-107 -65.5t-148 -25.5q2 -96 4.5 -168t2.5 -105q0 -12 6 -14.5t9 -2.5q8 0 15.5 -5.5t7.5 -15.5q0 -14 -20 -14q-16 0 -33 1t-40 1q-24 0 -50.5 -1
t-51 -4.5t-43.5 -9.5t-28 -16q-2 -2 -3 -2q-4 0 -6.5 4t-2.5 9q0 3 0.5 5.5t0.5 4.5q1 7 11.5 13t21.5 15t20.5 22.5t9.5 34.5q0 50 0.5 101t2.5 113q-3 16 -10 23.5t-14.5 11t-13 6.5t-5.5 9q0 7 6 9t13.5 4t15 8t10.5 22q1 52 2.5 102.5t2.5 90t1.5 65.5t0.5 30
q0 15 -8 25.5t-17.5 18t-18.5 11.5t-11 5q-6 2 -9.5 9t-3.5 14q0 10 9 10q4 0 7.5 -1.5t5.5 -2.5q18 -8 54 -11t80 -3zM295 350q51 6 86.5 33.5t57 67t31 87.5t9.5 94q0 27 -7 44.5t-19 27.5t-26.5 13.5t-29.5 3.5q-23 0 -41 -5t-25 -8q-12 -5 -19 -30.5t-10.5 -65.5t-5 -91
t-1.5 -108v-63z" />
    <glyph glyph-name="q" unicode="q" horiz-adv-x="646" 
d="M667 -35q5 0 8.5 -4.5t3.5 -9.5q0 -6 -3.5 -12t-8.5 -13q-9 -15 -26 -34.5t-39 -36t-48.5 -28t-55.5 -11.5q-31 0 -54 12t-42 30t-35 38.5t-33.5 38.5t-38 30t-47.5 12q-20 0 -44 -9h-1q-7 0 -15.5 10.5t-8.5 18.5t8 10.5t12 3.5q35 8 61 8q-47 24 -79.5 55.5t-55 67
t-36 73.5t-20.5 74q-5 14 -13 20t-15.5 9t-13.5 5t-6 8v1q0 6 6 9t13 7t13 10.5t6 19.5q0 70 16 140t51 126t90.5 91t134.5 35q8 -2 8 -11q0 -7 -4.5 -13.5t-13.5 -6.5q-26 -4 -45 -24.5t-32 -51.5t-21.5 -68.5t-13 -75t-6 -72.5t-1.5 -60q0 -27 1 -64t5 -76.5t11 -78
t18.5 -69t28 -49.5t39.5 -19q21 0 37 17t26.5 45t17 64t10.5 73.5t5 73.5t1 65v113q0 40 -1 73t-5.5 57t-13.5 37.5t-24 13.5q-17 0 -38 -14q-5 -5 -10.5 3t-5.5 19t6 17q50 25 90 25q33 0 58.5 -14.5t44.5 -38t32 -53.5t21 -60t11.5 -57.5t3.5 -47.5q0 -13 -1 -27t-3 -36
q1 -15 7 -22.5t13 -12t12 -7.5t5 -9v-1q0 -8 -12 -9t-23 -8q-12 -8 -17 -27q-12 -46 -29 -90.5t-42.5 -81.5t-62.5 -65t-90 -41q29 -10 57.5 -27t57.5 -34t59 -29.5t63 -12.5q20 0 34.5 10.5t29.5 33.5q5 8 9 13.5t9 5.5z" />
    <glyph glyph-name="r" unicode="r" horiz-adv-x="709" 
d="M712 32q20 0 23 -5t3 -19q0 -5 -1.5 -7t-8.5 -2q-11 2 -38 2.5t-61 0.5q-30 0 -61 -1t-57 -3q-4 -1 -7.5 -1h-6.5q-16 0 -16 17q0 13 11.5 13.5t19.5 2.5q2 0 2 4q0 8 -8.5 30t-22 51t-30 63.5t-31.5 67.5q-20 43 -41 55t-34 12q-8 0 -28 -5t-36 -10q1 -65 4 -129.5
t3 -135.5q0 -15 16 -15q12 -1 16.5 -4.5t4.5 -8.5q0 -8 -5 -10t-14 -2q-16 0 -33 1t-40 1q-24 0 -50.5 -1t-51 -4.5t-43.5 -9.5t-28 -16q-4 -4 -8.5 -0.5t-2.5 11.5q2 7 12 13t21.5 15t20.5 22.5t9 34.5v19v35t0.5 49.5t1 60.5t1.5 68q-3 14 -10 21t-14 10.5t-12.5 6.5
t-5.5 9v1q0 7 5.5 8.5t12.5 4t14.5 8t11.5 19.5q1 52 2 101.5t2 88.5t2 64t1 28v4q0 14 -7 24t-16.5 17t-19 11t-13.5 7q-13 8 -13 22q0 3 2 7t7 4q6 0 14 -4q21 -10 56 -12.5t79 -2.5q37 0 74 2t68.5 4.5t56 4.5t36.5 2q42 0 74.5 -13t55.5 -35.5t35 -52.5t12 -64
q0 -62 -43.5 -126.5t-137.5 -111.5q14 -1 30 -6t33 -16.5t33.5 -30t31.5 -46.5q22 -42 43.5 -81.5t39.5 -70t30.5 -48.5t15.5 -18h9zM283 332q68 10 105.5 42t55 75t21 90.5t3.5 89.5q0 38 -19 65.5t-63 27.5q-24 0 -42.5 -5.5t-22.5 -7.5q-11 -7 -18.5 -35.5t-12 -72
t-6 -98t-1.5 -113.5v-58z" />
    <glyph glyph-name="s" unicode="s" horiz-adv-x="460" 
d="M348 450q3 0 6.5 -2.5t3.5 -6.5q0 -6 -7 -13.5t-7 -20.5q0 -8 4 -16q35 -42 58.5 -89t23.5 -101q0 -42 -17 -78.5t-46 -64t-68.5 -43t-84.5 -15.5q-54 0 -89.5 16t-56 40.5t-29 54t-8.5 55.5q0 23 4.5 41t12.5 25q1 1 12.5 7.5t28 13.5t35 12.5t33.5 5.5q6 0 17 -2.5
t11 -12.5q0 -6 -6 -12q-35 -35 -50.5 -67.5t-15.5 -59.5q0 -40 28.5 -64.5t73.5 -24.5q2 0 19 3t36.5 13t35.5 30t16 55q0 23 -8 44t-22 41t-32 40.5t-38 41.5q-8 8 -17 16.5t-23 8.5q-11 0 -19 -3.5t-13 -3.5q-3 0 -6.5 2.5t-3.5 6.5q0 7 8 15.5t8 22.5q0 10 -5 20
q-32 43 -54.5 95.5t-22.5 120.5q0 49 21 80.5t53.5 49t72.5 24t78 6.5q25 0 48 -2t40.5 -5t28 -5.5t11.5 -3.5t1 -4q0 -7 -6.5 -23t-14.5 -37t-15 -45.5t-9 -48.5q0 -3 -6 -3q-4 0 -7.5 2.5t-3.5 9.5q0 9 1.5 19t1.5 23q0 15 -3 30.5t-12 29t-25.5 22t-43.5 8.5
q-35 0 -58 -8t-37.5 -22t-21 -33t-6.5 -41q0 -17 11.5 -35.5t30 -39.5t42.5 -44.5t49 -49.5q13 -7 23 -7t17.5 3t12.5 3z" />
    <glyph glyph-name="t" unicode="t" horiz-adv-x="606" 
d="M563 765q13 0 17.5 -10t4.5 -26q0 -29 -7 -57t-7 -62q0 -13 -3.5 -17t-15.5 -4q-10 0 -16 8.5t-6 15.5q0 24 -3 43.5t-15.5 32.5t-39 20t-72.5 7q-8 0 -12.5 -6.5t-6.5 -15t-2.5 -17t-0.5 -13.5q-3 -40 -5.5 -112t-2.5 -164q2 -18 9.5 -26t15.5 -12t14 -6.5t6 -9.5
t-5.5 -9t-13 -4.5t-15 -8.5t-10.5 -21q2 -64 4.5 -129.5t7.5 -130.5q3 -3 16 -3h16q7 0 11.5 -1.5t4.5 -7.5q0 -12 -3.5 -19t-23.5 -7q-7 0 -26.5 0.5t-45 0.5h-53.5h-52.5t-42.5 0.5t-22 0.5q-4 1 -6.5 2.5t-2.5 8.5q0 8 10 15t18 7q8 1 12 1t6.5 1.5t3 5.5l1.5 12
q3 39 5 98.5t2 127.5q0 22 -7 32.5t-15.5 15.5t-15.5 7.5t-7 9.5t6.5 9t14.5 5t15.5 11t9.5 28v282q0 23 -9 32t-45 9q-28 0 -44 -9.5t-24.5 -23.5t-12.5 -30.5t-6.5 -31.5t-7 -25.5t-14.5 -12.5h-11q-7 0 -10 1q-7 1 -7 11q0 5 1 10t1 16q0 15 -1 33t-1 35q0 26 6 46t27 20
h46q35 0 78 0.5t88.5 1.5l91 2t85.5 2.5t71 2.5t49 2z" />
    <glyph glyph-name="u" unicode="u" horiz-adv-x="594" 
d="M528 691q-4 0 -7.5 -3t-3.5 -14q0 -18 1 -63t1 -106v-58t-2 -61q3 -13 10 -19t14 -9.5l12 -6t5 -8.5q0 -7 -6 -9t-13.5 -4t-15 -8t-11.5 -22q-5 -56 -14 -108.5t-23 -95.5q-19 -56 -54.5 -87t-98.5 -31q-40 0 -76 8.5t-64 28t-46.5 50.5t-24.5 75q-5 38 -7.5 79.5
t-4.5 84.5q-4 13 -11.5 18.5t-14.5 8.5t-12.5 5.5t-5.5 8.5q0 7 5.5 9t13 5t14.5 9t10 21q0 73 2.5 145.5t2.5 148.5q0 9 -6 9h-9q-10 0 -12 11.5t-2 22.5t10 11q8 0 26 -2.5t60 -2.5q30 0 60 0.5t55 1.5q5 0 10.5 1.5t9.5 1.5q5 0 6 -5.5t1 -11.5q0 -9 -3 -17.5t-12 -8.5
q-16 0 -19.5 -6.5t-5.5 -33.5q-3 -46 -4.5 -97.5t-1.5 -105.5q0 -82 2.5 -161.5t5.5 -142.5q2 -37 6.5 -62t13 -40t20 -21.5t28.5 -6.5q15 0 26.5 7.5t20.5 19t15.5 26t12.5 28.5q22 55 32 138t10 204q0 53 -2 113t-5 129q-1 10 -10 10q-4 0 -7 -1.5t-8 -1.5t-8.5 6t-3.5 11
t4.5 14t14.5 9t33.5 -1.5t45.5 -1.5q8 0 15.5 1t17.5 1q8 0 10 -3.5t2 -5.5v-1q0 -14 -7 -20t-13 -7h-10z" />
    <glyph glyph-name="v" unicode="v" horiz-adv-x="573" 
d="M492 740q13 0 28.5 5t21.5 5q11 0 16 -12t5 -21q0 -5 -11.5 -5.5t-17.5 -0.5q-9 0 -13 -2.5t-7 -13.5q0 -2 -4 -28.5t-10 -69.5t-14 -98t-15 -113q2 -15 8 -22.5t13 -12t12 -7.5t5 -9v-1q-1 -7 -7 -8t-13.5 -2.5t-15.5 -6.5t-13 -20q-6 -45 -11 -86.5t-9 -77t-6.5 -62
t-3.5 -39.5q0 -3 -4 -10.5t-13 -15t-24.5 -13.5t-38.5 -6q-20 0 -43 5t-44 16t-36 28.5t-18 42.5q-1 7 -4.5 27.5t-9 49t-12 63t-14.5 70.5q-3 15 -11.5 21t-17.5 9t-16.5 5t-8.5 8v2q0 6 5.5 9t12 7t12 11.5t5.5 23.5q-12 58 -23 114.5t-20 101.5t-14.5 73t-5.5 31
q-4 13 -12.5 23t-17.5 17t-17 11.5t-9 5.5q-10 7 -10 21q0 3 1.5 7t6.5 4q4 0 8 -2t6 -4q10 -5 39.5 -8.5t66 -5.5t73.5 -3t62 -1q10 0 19.5 1t20.5 1q9 0 9 -10q0 -5 -5 -6.5t-10 -3.5q-5 -1 -11 -4t-11.5 -10.5t-9.5 -22t-4 -37.5q0 -25 6 -64q6 -38 14.5 -91t17.5 -111
t18.5 -116.5t18 -106t15.5 -80t11 -39.5q1 6 6 35.5t11.5 74.5t15 100.5t16.5 113t16 112t14 97t9.5 68.5t3.5 27q0 4 -4.5 7t-10.5 4.5t-11.5 3t-7.5 4.5q-2 2 -4.5 8.5t-2.5 11.5q0 6 5 7.5t12 1.5q10 0 19.5 -3t21.5 -3z" />
    <glyph glyph-name="w" unicode="w" horiz-adv-x="764" 
d="M743 755q1 1 3 1q7 0 7 -8q0 -7 -5.5 -12.5t-13.5 -11l-16 -11t-12 -11.5q-7 -10 -9.5 -18.5t-4.5 -24.5q-6 -45 -11.5 -119t-11.5 -157q1 -17 7.5 -25t14 -12.5t13 -7.5t5.5 -9v-1q-1 -7 -6.5 -8.5t-12.5 -3t-15 -6.5t-13 -18q-4 -57 -8.5 -109.5t-9 -93t-9.5 -65
t-10 -26.5q-2 -1 -21.5 -2.5t-44.5 -1.5q-17 0 -35 1t-32 4t-23.5 8.5t-10.5 14.5t-4 39.5t-7.5 74t-10 96t-11 106t-11 104t-10 90t-7.5 64t-3 26.5q-1 -16 -8.5 -66t-17.5 -115.5t-22 -138t-22.5 -134.5t-17.5 -104.5t-8 -47.5q-2 -11 -8.5 -14.5t-28.5 -3.5
q-10 0 -34.5 0.5t-50.5 2.5t-45.5 6t-19.5 12l-14 271q-4 15 -12 21.5t-15.5 10t-13.5 6t-6 8.5q0 7 5.5 9t12.5 4.5t14 8.5t10 21q-3 51 -6 100t-6 90.5t-6 71.5t-5 44q-3 21 -10 30t-14.5 12.5t-14 5t-9.5 7.5v6.5t1 9t3 8t6 3.5q2 0 3 -1q30 -8 71.5 -13.5t82.5 -5.5
q31 0 50.5 3t24.5 3q8 0 11.5 -5.5t3.5 -13.5q0 -14 -8 -16q-23 -5 -30.5 -15t-7.5 -27q0 -9 1.5 -39.5t4 -73.5t5.5 -95t6.5 -105t6.5 -102.5t5.5 -88t4.5 -61.5l2 -23q1 0 5 25t10.5 66.5t14.5 94t16.5 108t16.5 109t14.5 96t10.5 69.5t4 29q1 8 21 10t46 2q28 0 55.5 -1
t38.5 -2q6 0 8.5 -2t3.5 -13q1 -6 4 -34.5t8.5 -71t12 -95t13.5 -107t13.5 -106.5t12 -93t8.5 -67t4 -29q1 5 4.5 44.5t8.5 98t10 127.5t9.5 134.5t7.5 118t3 78.5q-1 15 -4 23.5t-6.5 12.5t-7.5 5t-7 1h-3q-11 1 -13.5 7t-2.5 12q0 5 2 11t10 6q6 0 24 -3t50 -3
q16 0 29.5 1t19.5 5z" />
    <glyph glyph-name="x" unicode="x" horiz-adv-x="565" 
d="M451 747q8 0 22 1t30 1.5t31.5 1.5t27.5 1q2 0 4.5 -1t2.5 -6q0 -19 -16 -21q-17 -1 -27.5 -9t-15.5 -16q-2 -4 -13 -27.5t-26 -56.5t-32 -71t-31.5 -71.5t-25 -58t-12.5 -30.5q7 -15 16 -20.5t17 -7t14.5 -2.5t8.5 -7v-3q0 -5 -4.5 -8t-10 -7t-10.5 -10t-6 -18
q9 -30 20.5 -64.5t23.5 -68.5t23.5 -64t20.5 -51q10 -22 14 -25.5t12 -4.5q13 0 13 -17q0 -12 -14 -12q-5 0 -18.5 1t-32 1.5t-40 1t-41.5 0.5q-25 0 -45 -1.5t-28 -3.5h-1q-5 0 -7 6.5t-2 11.5q0 7 7 7q6 1 11 2.5t5 9.5q0 4 -1 7q-2 6 -8.5 27t-15 48.5t-18.5 59
t-18.5 58.5t-15 46t-7.5 23q-3 -12 -13 -33t-22.5 -45.5t-26.5 -50.5t-26 -49t-20.5 -39.5t-10.5 -22.5t-3 -10.5t-1 -7.5q0 -7 6 -10.5t15 -3.5q3 0 5 -4.5t2 -9.5q0 -6 -3 -11.5t-10 -6.5h-1q-4 0 -21.5 1.5t-39.5 1.5q-23 0 -42 -3q-2 0 -6 1t-4 6q0 6 3 15t12 9
q4 -1 8 -1h14q5 0 9.5 4.5t11.5 18.5q6 10 22.5 42t36.5 71.5t40 80.5t33 70q-10 11 -20.5 13.5t-10.5 11.5v1q0 6 4.5 8t11 3.5t13.5 5t12 12.5q-5 18 -14 50t-21 70t-25 77t-26 71t-25.5 52.5t-21.5 20.5q-3 0 -7 -0.5t-11 -0.5q-8 0 -10 2.5t-2 10.5v6q0 10 6 12.5
t11 2.5q13 0 43.5 0.5t64 1.5t63.5 2t41 3q2 0 4.5 0.5t4.5 0.5q11 0 15.5 -5t4.5 -10q0 -4 -3 -5q-11 -5 -21.5 -11t-10.5 -25q2 -19 13 -56.5t24 -78.5t26 -77.5t20 -53.5q4 10 13.5 32t21.5 50t25.5 58t24.5 56t18.5 44.5t8.5 22.5q1 3 1 9q0 9 -4 13.5t-9.5 7.5
t-9.5 5.5t-4 7.5t3.5 9.5t8.5 4.5z" />
    <glyph glyph-name="y" unicode="y" horiz-adv-x="577" 
d="M543 764q2 1 4.5 2t4.5 1q5 0 7 -5.5t2 -10.5t-0.5 -9.5t-0.5 -7.5q-1 -6 -7 -6q-2 0 -4.5 0.5t-4.5 0.5q-11 0 -25.5 -6t-17.5 -11q-4 -9 -14 -34.5t-23 -59.5t-27 -72.5t-27 -73.5t-22.5 -62t-13.5 -38q0 -8 6 -13.5t13.5 -10t13.5 -8.5t6 -8q0 -8 -5.5 -9.5t-13 -4
t-15.5 -8.5t-12 -23q-1 -19 -1 -39.5v-41.5q0 -25 0.5 -49t1 -43.5t1 -33.5t1.5 -20q2 -11 2.5 -16t11.5 -7q3 -1 10.5 -5.5t7.5 -15.5q0 -10 -6 -13t-14 -3h-5t-13.5 0.5t-30.5 0.5h-55q-26 0 -51 -0.5t-43 -2.5q-7 0 -12 4.5t-5 13.5q0 7 3.5 12.5t10.5 7.5q10 1 12 5t3 9
q1 14 2 37t2 50t1.5 55.5t0.5 54.5v30q-3 13 -10 19.5t-13.5 10.5t-12 7t-5.5 9q0 5 4 7t9.5 3.5t11.5 3.5t12 8q-5 15 -17.5 45.5t-27.5 67.5t-31.5 76.5t-30 73t-23 57t-10.5 29.5q-2 8 -8.5 11t-14 6t-13.5 7t-6 15q0 5 3.5 8t17.5 3q19 0 47.5 2t59 5t59 6t46.5 5
q5 1 8.5 2t6.5 1q6 0 10 -5.5t4 -12.5q0 -8 -4.5 -13t-7.5 -6q-15 -5 -23 -8.5t-8 -13.5q0 -9 6 -25l12 -33t18 -49t20.5 -56t20 -55t16.5 -46.5t10 -29.5q5 -20 7 -20q1 0 1.5 2.5t0.5 4.5q1 4 10 28t21.5 58t27 72.5t26.5 72.5t20.5 57.5t8.5 26.5v1q0 4 -4.5 7t-10 5
t-11 3.5t-7.5 3.5t-4.5 7.5t-2.5 10.5q0 3 1 7t6 4q3 0 8 -3q5 -2 14.5 -3t21.5 -1q20 0 41 2.5t30 5.5z" />
    <glyph glyph-name="z" unicode="z" horiz-adv-x="582" 
d="M384 361q0 -12 3.5 -20.5t7.5 -14.5t7.5 -10.5t3.5 -7.5q0 -10 -10 -10q-4 0 -8.5 1t-9.5 1q-6 0 -13 -2.5t-15 -10.5q-23 -51 -43.5 -96.5t-36.5 -80t-26 -55t-11 -22.5q15 0 38.5 3.5t48.5 10.5t45.5 18.5t29.5 28.5q6 11 7 25t3 29.5t7 31t17 30.5q8 9 18.5 12t19.5 3
t15 -3.5t6 -17.5q-2 -12 -4.5 -36t-5 -49.5t-4.5 -49.5l-3 -36v-1q0 -10 -10 -16t-27 -9.5t-41 -4.5t-51 -1q-33 0 -70 1t-74 1q-47 0 -88.5 -3t-69.5 -13q-2 -1 -5.5 -3.5t-6.5 -2.5q-4 0 -6 4t-2 8q0 5 9 14q10 9 22.5 28t20.5 33q4 6 19.5 38t36 75.5t42.5 91.5t40 86
q5 11 7 19t2 15q0 10 -3.5 16.5t-7.5 11.5t-7.5 9t-3.5 8q0 10 11 10q4 0 8.5 -1t9.5 -1q9 0 19.5 6t21.5 29q21 45 40 85.5t33 71.5t23 50.5t10 22.5q-14 1 -28.5 1h-29.5h-59q-24 0 -39 -19.5t-25 -47t-14.5 -57t-7.5 -48.5l-2 -13q-2 -5 -14.5 -10t-21.5 -5q-11 0 -11 14
v7q1 4 2 16t2 27t1.5 32.5t0.5 34.5q0 20 -1 36t-4 22q-5 12 -5 18q0 14 16 18q9 3 38.5 4t69.5 1.5t86 1t88.5 3t76.5 7.5t51 15q6 2 8 2q10 0 10 -13q0 -6 -3 -12z" />
    <glyph glyph-name="braceleft" unicode="{" horiz-adv-x="402" 
d="M386 -73q5 0 10.5 -2t5.5 -10q0 -15 -17.5 -19t-69.5 -4q-65 0 -104 27t-60 66.5t-27.5 85.5t-6.5 85q0 20 2.5 41t2.5 45q0 16 -7 31t-19.5 27t-30 20t-38.5 9q-14 1 -20.5 12t-6.5 25q0 13 6.5 23.5t20.5 10.5q31 0 50.5 3.5t29.5 10.5t13.5 17t3.5 22q0 28 -3.5 56.5
t-3.5 61.5q0 39 6.5 85t27.5 85.5t60 66.5t104 27q51 0 68.5 -4t17.5 -17q0 -10 -5.5 -12t-9.5 -2q-43 0 -68 -12t-37.5 -33t-15.5 -49.5t-3 -60.5v-51q0 -29 -2.5 -58t-10.5 -57t-24 -53t-44 -45q-13 -9 -15 -17v-1q2 -8 15 -17q27 -20 43 -44.5t24.5 -52t10.5 -57t2 -57.5
v-53q0 -32 3.5 -60.5t16 -49.5t37.5 -33t68 -12z" />
    <glyph glyph-name="bar" unicode="|" horiz-adv-x="200" 
d="M154 953q10 0 14.5 -9.5t4.5 -19.5q0 -46 -15.5 -297t-46.5 -724q-2 -27 -2.5 -43.5t-1.5 -20.5q0 -5 -1.5 -13.5t-6 -16.5t-13.5 -13.5t-25 -5.5q-11 0 -16.5 9.5t-5.5 21.5q0 2 3 45t7.5 112.5t11 158t13 183t12.5 187.5t11 170q7 112 10.5 169.5t3.5 60.5
q2 15 13 30.5t30 15.5z" />
    <glyph glyph-name="braceright" unicode="}" horiz-adv-x="402" 
d="M16 -73q43 0 68 12t37.5 33t16 49.5t3.5 60.5v53q0 28 2 57.5t10.5 57t24.5 52t43 44.5q13 9 15 17v1q-2 8 -15 17q-28 20 -44 45t-24.5 53t-10.5 57t-2 58v51q0 32 -3 60.5t-15.5 49.5t-37.5 33t-68 12q-4 0 -9.5 2t-5.5 12q0 13 17.5 17t68.5 4q43 0 74.5 -12.5
t53.5 -33t35.5 -47.5t21.5 -56.5t10.5 -59t2.5 -55.5q0 -33 -3.5 -61.5t-3.5 -56.5q0 -12 3.5 -22t13.5 -17t29 -10.5t51 -3.5q14 0 20.5 -10.5t6.5 -23.5q0 -14 -6.5 -25t-20.5 -12q-21 -1 -38.5 -9t-30 -20t-19.5 -27t-7 -31q0 -24 2.5 -45t2.5 -41q0 -26 -2.5 -55.5
t-10.5 -59t-21.5 -56.5t-35.5 -47.5t-53.5 -33t-74.5 -12.5q-26 0 -43 1t-27 3t-13.5 6.5t-3.5 12.5t5.5 10t10.5 2z" />
    <glyph glyph-name="exclamdown" unicode="&#xa1;" horiz-adv-x="246" 
d="M60 -329q-24 0 -42 17.5t-18 43.5l44 252q0 16 -5.5 24.5t-12 13.5t-12 8t-5.5 9v2q1 7 7.5 7.5t14.5 2t16.5 7.5t14.5 23l51 290q2 19 12 24.5t27 5.5q11 0 21 -8.5t10 -28.5v-2q0 -5 -2.5 -30t-5.5 -64t-7.5 -88t-9.5 -102q2 -15 8.5 -22.5t13.5 -12t12.5 -7t5.5 -8.5
v-1q0 -8 -6 -9t-14 -3.5t-16 -8.5t-12 -24q-5 -49 -9 -94t-7.5 -81t-6 -60.5t-3.5 -31.5q-1 -5 -5 -12t-11.5 -14.5t-19.5 -12.5t-28 -5zM169 473q-27 0 -40.5 17.5t-13.5 40.5t14.5 43t43.5 23q26 0 39.5 -19.5t13.5 -42.5q0 -22 -13 -40.5t-44 -21.5z" />
    <glyph glyph-name="cent" unicode="&#xa2;" horiz-adv-x="446" 
d="M276 743q8 0 13 -8.5t5 -19.5q0 -9 -0.5 -30.5t-2.5 -51.5q5 0 9 0.5t9 0.5q23 0 44.5 -7t37.5 -20t25.5 -33t9.5 -45q0 -26 -10 -57q-12 -42 -47 -42q-11 0 -22 6t-11 21q0 14 11 31q18 37 18 61q0 18 -14.5 24.5t-31.5 6.5q-15 0 -31 -8q-4 -76 -10 -187t-14 -256
q-1 -5 -1 -10v-10q24 3 42 19t30.5 38.5t18.5 48.5t6 49q0 20 5 34t27 14q17 0 21 -20t4 -42q-1 -36 -12 -69.5t-31.5 -61t-49.5 -47t-65 -26.5q-2 -17 -2 -28.5v-14.5v-2q0 -5 -1.5 -13.5t-5 -16t-10.5 -13t-19 -5.5q-11 0 -15.5 10.5t-4.5 21.5q0 3 0.5 6.5t0.5 5.5
q0 5 1 17t2 29q-37 4 -69 22t-54 48q-17 23 -25.5 56t-8.5 73q0 14 2 28t2 29q0 14 -5 22t-11 13.5t-11 9t-5 8.5v2q1 7 7 7.5t14 1.5t16.5 5.5t15.5 19.5l15 41q27 65 65.5 114.5t84.5 72.5q2 38 3 58t2 22q1 13 8.5 30t24.5 17zM148 254q0 -17 2 -37t9 -39.5t19 -35.5
t32 -25q3 42 5.5 92.5t5.5 104l6 107t6 101.5q-18 -25 -34 -57t-27 -67.5t-17.5 -72.5t-6.5 -71z" />
    <glyph glyph-name="sterling" unicode="&#xa3;" horiz-adv-x="472" 
d="M466 114q7 0 13 -6t6 -14q0 -22 -17.5 -46t-38.5 -38q-23 -15 -51 -18.5t-58 -3.5q-36 0 -57.5 12.5t-38.5 27.5t-33.5 27.5t-42.5 12.5q-29 0 -50 -18q-11 -9 -25 -26t-25 -36q-5 -12 -15 -12q-6 0 -10.5 5.5t-4.5 11.5q0 11 6.5 25t17 28.5t22.5 28t23 24.5
q20 29 27.5 54t7.5 49q0 34 -8.5 68t-11.5 73q-1 5 -1 15q-16 -1 -31.5 -1h-34.5q-8 1 -15 6t-7 15q0 9 4.5 18.5t16.5 9.5q14 0 29.5 0.5t34.5 1.5v28q0 66 15 122t48 97t84.5 64.5t125.5 23.5q14 0 29.5 -3t29.5 -10.5t23.5 -19.5t11.5 -30q0 -9 -2 -19.5t-6 -19.5
t-9.5 -15t-12.5 -6q-11 0 -16 9.5t-5 20.5q0 5 0.5 9.5t0.5 9.5q0 20 -17.5 27.5t-36.5 7.5q-27 0 -47 -23.5t-34 -63.5t-22 -92.5t-12 -110.5q34 1 63.5 2t49.5 1q29 0 47 -3.5t18 -24.5q0 -12 -11.5 -18.5t-29.5 -6.5h-139q-1 -15 -1 -30v-29q0 -55 -13 -102t-37 -80
q16 0 36.5 -11t44 -24.5t48.5 -24.5t51 -11q29 0 47 17.5t32 36.5q6 8 14 8z" />
    <glyph glyph-name="yen" unicode="&#xa5;" horiz-adv-x="511" 
d="M173 333q-1 1 -1 2t-1 3q-20 -1 -40.5 -1.5t-45.5 -0.5q-9 2 -15.5 7.5t-6.5 13.5q0 11 5 19.5t16 8.5l69 2q-15 37 -35 86t-39 94t-32.5 79t-15.5 41q-3 9 -9.5 12.5t-14 6t-13 6t-5.5 14.5q0 5 4 8t18 3q15 0 35 1t41.5 2.5t43.5 4t41 4.5q26 3 44 6t22 3q8 0 10.5 -7
t2.5 -12q0 -8 -4.5 -12.5t-7.5 -5.5q-15 -6 -23 -9t-8 -13q0 -8 6 -24q4 -12 12 -33.5t18 -48.5t20.5 -56.5t20 -55.5t16.5 -46.5t10 -29.5l3 -11h7q2 7 11.5 32t22 58.5t26.5 71.5t25.5 70.5t19.5 55t9 25.5q-1 6 -5.5 8.5t-10 4t-10.5 2.5t-8 5q-2 2 -4.5 8t-2.5 11
q0 10 7 10q3 0 5.5 -1t7 -2.5t12 -2.5t20.5 -1q20 0 41 2.5t29 5.5q2 1 4.5 2t4.5 1q6 0 7.5 -6t1.5 -10v-9q0 -6 -1.5 -10t-7.5 -4q-12 0 -28.5 -2.5t-22.5 -13.5q-6 -12 -20.5 -50t-32.5 -85.5t-35.5 -95.5t-28.5 -79q16 1 31 1h31q20 0 37.5 -4t17.5 -24q-3 -25 -41 -25
q-14 0 -32.5 1t-57.5 1q-1 -11 -2 -26.5t-1 -33.5q38 2 65 3t32 1q24 -2 24 -24q-2 -27 -53 -29q-7 -1 -25.5 -1.5t-43.5 -0.5v-39q0 -24 0.5 -47.5t1 -42.5t1 -32.5t1.5 -19.5q2 -11 2.5 -16t11.5 -7q4 -1 11 -5.5t7 -15.5q0 -10 -6.5 -13t-13.5 -3q-11 0 -19.5 0.5
t-17.5 0.5h-66q-38 0 -58 -1t-37 -1q-5 0 -9.5 2t-6.5 8v5q0 8 3.5 14t10.5 8q10 1 12 3.5t3 10.5q1 14 2 35.5t1.5 47t1.5 52.5t1 53h-73q-17 0 -24.5 0.5t-9.5 0.5q-12 0 -19.5 6t-7.5 17q0 14 10 18.5t18 4.5h23h39t44 1q-1 20 -1.5 34.5t-1.5 19.5z" />
    <glyph glyph-name="section" unicode="&#xa7;" horiz-adv-x="441" 
d="M338 760q28 0 48 -10t32 -26.5t17.5 -37t5.5 -41.5q0 -35 -12.5 -61t-31.5 -26q-8 0 -14 8t-6 23q0 7 0.5 18t0.5 40q0 44 -13 61.5t-30 17.5q-12 0 -24.5 -6.5t-22 -17t-16 -23.5t-6.5 -26q0 -29 18 -64.5t41 -77.5l15 -27q9 -11 18 -14t17 -3q4 0 7.5 0.5t6.5 0.5
q4 0 8 -2t4 -8q0 -4 -3.5 -7.5l-7.5 -7.5t-7.5 -10t-3.5 -15q0 -4 2 -14q14 -30 22 -60.5t8 -61.5q0 -34 -12 -67q-10 -29 -39.5 -44t-61.5 -16q0 -5 0.5 -9.5t0.5 -13.5q0 -31 -14.5 -59.5t-38 -50.5t-52.5 -35t-57 -13q-22 0 -41.5 9t-34 25t-23 36.5t-8.5 43.5
q0 15 5.5 32t15.5 32t24 24.5t32 9.5q10 0 21 -4.5t11 -17.5q0 -10 -12 -17q-18 -7 -27 -26.5t-9 -42.5q0 -39 19 -56.5t42 -17.5q26 0 48 18t22 48q0 32 -20 69.5t-58 88.5q-6 8 -13.5 9t-13.5 1q-8 0 -14 -1.5t-11 -1.5q-3 0 -7 2t-4 7q0 8 9.5 16t9.5 24q0 6 -3 15
q-23 38 -39 75t-16 72q0 26 11 50.5t29 43t41 29.5t47 11q8 0 17 -2t20 -8q-2 8 -3 20.5t-1 26.5q0 26 9.5 51.5t27 46t42.5 33t56 12.5zM350 275q-4 13 -15 38t-27.5 54t-35.5 59t-38.5 54.5t-38 40t-31.5 15.5h-1q-16 0 -25 -18t-9 -33q0 -19 8 -40t19.5 -41t24 -38.5
t22.5 -31.5q11 -17 25.5 -39t30.5 -42t31.5 -33.5t28.5 -13.5q7 0 13.5 5t11 12.5t7 15.5t2.5 15q0 9 -3 21z" />
    <glyph glyph-name="dieresis" unicode="&#xa8;" 
d="M245 881q1 22 17.5 33.5t36.5 11.5q17 0 31.5 -10t14.5 -33q0 -29 -15 -42.5t-33 -13.5q-20 0 -36 13.5t-16 38.5v2zM387 880q0 23 18 35.5t38 12.5q17 0 30.5 -10t13.5 -31q0 -29 -16 -42.5t-36 -13.5q-18 0 -33 12t-15 37z" />
    <glyph glyph-name="copyright" unicode="&#xa9;" horiz-adv-x="610" 
d="M562 349q3 -8 7.5 -13t9 -9t8 -7t3.5 -7v-3q-2 -6 -6.5 -7t-11 -1t-13.5 -2t-14 -9q-20 -57 -53.5 -101t-75 -73t-87 -44t-88.5 -15q-39 0 -74.5 12.5t-62.5 37.5t-43 63.5t-16 89.5q0 15 2 31t2 36q0 13 -4.5 20.5t-10 12.5t-10 8.5t-4.5 8.5q0 10 13 10h5q8 0 16.5 2.5
t16.5 13.5q7 20 28.5 56.5t57 72.5t86 62.5t116.5 26.5q46 0 85 -11.5t67 -35.5t43.5 -61t15.5 -87q0 -20 -2 -39t-6 -39zM100 236q0 -71 38 -104.5t93 -33.5q46 0 96.5 22.5t92.5 64.5t69.5 103.5t27.5 139.5q0 34 -8.5 63t-26 50t-44.5 33t-65 12q-66 0 -117 -32
t-85.5 -83t-52.5 -113t-18 -122zM180 291q0 31 11.5 67t33.5 66t52 50t68 20q22 0 37 -13t15 -43q0 -6 -1 -13.5t-4 -14.5t-8.5 -12t-13.5 -5q-9 0 -18 4.5t-9 16.5q0 5 1.5 7t3.5 7q3 6 6.5 13.5t3.5 12.5q0 4 -5 5q-17 0 -37.5 -16.5t-38 -41.5t-29 -54t-11.5 -54
q0 -49 49 -49q13 0 22 6t15.5 15.5t11 20.5t8.5 22q2 5 5.5 12t14.5 7q8 0 15.5 -5.5t7.5 -14.5q0 -6 -4 -16q-7 -22 -19.5 -38.5t-28.5 -28t-33.5 -17t-34.5 -5.5q-34 0 -60 22t-26 67z" />
    <glyph glyph-name="ordfeminine" unicode="&#xaa;" horiz-adv-x="356" 
d="M84 435q-30 0 -46.5 21.5t-16.5 50.5q0 19 8.5 39.5t25.5 37t44 27t64 10.5h13q2 14 3.5 28t1.5 30q0 22 -9.5 31t-22.5 9q-16 0 -30.5 -12t-15.5 -31q-1 -26 -14 -38t-27 -12q-11 0 -19 7t-8 21q0 16 7.5 35t22.5 35.5t38 27t54 10.5q94 0 105 -114q3 -13 9.5 -19
t13 -10t11.5 -6.5t5 -8.5v-1q0 -6 -6.5 -8.5t-15 -5.5t-16 -9t-9.5 -18q-2 -17 -3.5 -33.5t-1.5 -28.5q0 -2 1.5 -10t10.5 -8q6 0 11.5 5.5t10 13t7.5 16t4 14.5q2 8 7.5 10t10.5 2q7 0 13.5 -5.5t6.5 -14.5q0 -8 -2.5 -16t-6.5 -16q-11 -27 -31.5 -41t-43.5 -14
q-20 0 -38.5 11.5t-32.5 35.5q-25 -21 -47.5 -34.5t-45.5 -13.5zM317 400q7 0 13 -5t6 -13q0 -13 -10.5 -26.5t-25.5 -24t-31.5 -17t-29.5 -6.5q-18 0 -35 5.5t-34 12t-35 12t-37 5.5q-14 -1 -22.5 -7t-19.5 -17q-8 -6 -15 -6q-8 0 -14.5 5.5t-6.5 13.5v3q13 32 39.5 46
t60.5 14q17 0 34.5 -5.5t34.5 -12t33 -12t29 -5.5q16 0 27 8t22 22q4 10 17 10zM172 571q-5 1 -10.5 1.5t-10.5 0.5q-15 0 -27 -6t-20.5 -14.5t-13 -19t-4.5 -19.5t5 -15t16 -6q14 0 32 13.5t29 28.5z" />
    <glyph glyph-name="guillemotleft" unicode="&#xab;" horiz-adv-x="549" 
d="M110 332q16 -7 40 -19t50 -25.5t51.5 -27.5t46.5 -25.5t34.5 -19.5t15.5 -9q8 -8 8 -18q0 -14 -16.5 -19.5t-36.5 5.5q-13 7 -43.5 22.5t-69 34t-80.5 38t-76 34.5q-12 5 -14 16q0 3 1.5 7.5t9.5 9.5q7 4 25.5 18t42.5 32.5t51.5 40t52.5 41t44.5 35t28.5 22.5q10 9 21 9
q8 0 17 -5.5t9 -15.5q0 -5 -3 -10t-5 -8q-11 -16 -35.5 -37t-54.5 -43.5t-61 -44t-54 -38.5zM516 232q9 -5 11 -10t2 -10q0 -13 -10.5 -20.5t-23.5 -7.5q-9 0 -16.5 2.5t-11.5 4.5q-16 8 -45 24.5t-63 35.5l-133 73q-5 2 -9.5 6t-4.5 13q0 7 5.5 10t10.5 6q9 3 25 13.5
t35.5 25t42 32t43.5 34.5t39.5 31.5t31.5 24.5q13 9 23 9q11 0 18 -9t7 -20q0 -14 -10 -24q-18 -16 -39.5 -33t-44.5 -34t-45.5 -34t-41.5 -33q14 -6 40.5 -20.5t56.5 -31t58.5 -33t48.5 -25.5z" />
    <glyph glyph-name="registered" unicode="&#xae;" horiz-adv-x="489" 
d="M435 577q4 -8 10 -12.5t11.5 -7.5t9 -6t3.5 -7v-1q0 -6 -4.5 -8t-11 -3.5t-13.5 -4t-13 -11.5q-7 -36 -25.5 -63t-44.5 -45t-57 -27t-63 -9q-33 0 -64.5 9.5t-56.5 29t-41 49t-19 68.5q-1 14 -7 22t-12.5 12.5t-11.5 7.5t-5 9v2q1 7 6.5 8t13 2.5t15.5 6t14 18.5
q9 36 27.5 62.5t43 44t52.5 26t57 8.5q34 0 66.5 -11.5t58 -34t42.5 -56.5t19 -78zM103 562q0 -38 11.5 -65.5t30.5 -45.5t43.5 -27t50.5 -9q27 0 54 9.5t48 28.5t34 46.5t13 63.5q0 37 -11.5 64.5t-31 45.5t-44.5 27t-51 9q-27 0 -53.5 -9.5t-47.5 -28t-33.5 -46
t-12.5 -63.5zM321 571q15 0 23.5 -11.5t8.5 -26.5q-1 -23 -18 -44t-40 -21q-26 0 -42 21t-27 43q-3 9 -6 9q-2 0 -5 -1t-5 -2q-9 -2 -14 -5.5t-6 -12.5l-4 -24q-3 -17 -10.5 -21.5t-12.5 -4.5q-1 0 -2 0.5t-3 0.5q-8 2 -13 8t-5 15q0 11 5.5 30t12 41.5t12 46t5.5 43.5
q2 6 5.5 8t5.5 2q3 0 4 -1q5 -1 9 -1.5t9 -0.5q16 0 32 3.5t33 3.5q15 0 26.5 -11t11.5 -28q0 -20 -15 -40.5t-33 -31.5v-2q0 -5 3 -13.5t8 -16.5t11 -14t13 -6q4 0 7 4.5t3 8.5q0 2 -1 4q-4 8 -4 23q0 8 3 15.5t15 9.5zM215 584q20 5 36.5 13.5t19.5 31.5h-4
q-5 0 -10.5 -0.5t-10.5 -0.5q-2 0 -5 -0.5t-5 -0.5q-9 0 -14.5 -4t-8 -11t-3.5 -15t-2 -15q1 0 7 2z" />
    <glyph glyph-name="macron" unicode="&#xaf;" 
d="M474 898q5 0 9.5 -5t4.5 -16q0 -20 -11 -26t-22 -6q-7 0 -31 1t-54 1.5t-60.5 1.5t-49.5 1q-6 0 -12 0.5t-12 0.5q-5 0 -10.5 5t-5.5 15q0 11 5 18t13 7q95 0 156 1t80 1z" />
    <glyph glyph-name="degree" unicode="&#xb0;" horiz-adv-x="247" 
d="M127 720q25 0 43.5 -8t30.5 -21.5t17.5 -31.5t5.5 -37q0 -22 -7 -43.5t-20.5 -38.5t-33 -27.5t-44.5 -10.5q-26 0 -44.5 8.5t-30.5 22.5t-18 32t-6 38q0 21 7 42t20.5 37.5t33.5 27t46 10.5zM119 546q24 0 37 22t13 48q0 23 -11.5 42t-37.5 19q-22 0 -33 -21.5t-11 -46.5
q0 -24 10.5 -43.5t32.5 -19.5z" />
    <glyph glyph-name="uni00B2" unicode="&#xb2;" horiz-adv-x="282" 
d="M258 504l0.5 -5.5t1.5 -13t1.5 -14.5t0.5 -10v-3q0 -14 -12 -23.5t-26 -9.5t-29 4.5t-32 4.5t-34 -2.5t-32 -4.5q-14 -2 -25.5 -3.5t-21.5 -1.5q-11 0 -20 3q-5 2 -7 7t-3 10q0 9 5 12q4 3 12.5 10.5t19 18.5t23 24.5t24.5 27.5q-3 7 -8.5 11t-5.5 9v2q3 7 8 7t10 -2.5
t13 -2.5q2 0 3 0.5t3 0.5l51 59q8 11 8 18q0 13 -11 19.5t-26 6.5q-20 0 -39 -12.5t-19 -39.5q0 -17 -6 -25t-14 -8t-14 7t-6 20q0 23 9 39.5t23.5 26.5t33 14.5t36.5 4.5q33 0 59.5 -17t26.5 -55q0 -22 -11 -40.5t-27 -35.5q0 -9 3.5 -10.5t3.5 -4.5q0 -8 -9 -8q-3 0 -6 1
t-7 1t-10 -3q-11 -10 -22.5 -18.5t-22.5 -19.5q19 -1 33.5 -3t34.5 -7q0 14 4 27.5t11 20.5q4 6 15 6q10 0 19.5 -5.5t9.5 -14.5z" />
    <glyph glyph-name="uni00B3" unicode="&#xb3;" horiz-adv-x="278" 
d="M232 480q-12 -36 -44 -54.5t-67 -18.5q-38 0 -68 21t-33 63q0 11 6.5 18t14.5 7q11 0 14 -17q0 -29 19.5 -43.5t42.5 -14.5t41.5 15t18.5 47q0 7 -2.5 15.5t-10.5 16.5q-13 14 -43 14q-7 -1 -14 -3.5t-12 -8.5q-6 -7 -13 -7q-6 0 -12.5 5t-6.5 13v2q2 8 16 14
q18 7 34 18.5t29.5 24t23.5 24t15 19.5h-11q-16 0 -31.5 2t-31.5 5q-12 0 -14 -3q-3 -3 -3 -12v-16q0 -9 -4 -19t-17 -10q-16 0 -23.5 13t-7.5 29q0 19 10.5 35.5t32.5 16.5q23 0 47 -5.5t51 -5.5q14 0 27 2t30 2q15 0 18 -13q0 -15 -10 -30.5t-22 -29t-22 -24t-10 -14.5
q0 -3 7 -6q36 -19 38 -57q10 -3 16.5 -4t6.5 -6q0 -7 -9 -10.5t-17 -9.5z" />
    <glyph glyph-name="acute" unicode="&#xb4;" 
d="M423 978q9 0 18 -5t9 -16t-4 -19t-10 -18q-3 -5 -16.5 -23t-29.5 -38t-31.5 -35.5t-22.5 -15.5q-6 0 -11.5 5t-5.5 13q0 5 2 8.5t4 5.5q17 22 36 54.5t30 64.5q4 10 13.5 14.5t18.5 4.5z" />
    <glyph glyph-name="paragraph" unicode="&#xb6;" horiz-adv-x="570" 
d="M436 797q8 3 16 4t17 1q20 0 36 -4.5t20 -9.5q-20 -11 -32 -33t-19 -52.5t-9 -68.5t-2 -80q0 -36 1 -74t1 -77q4 -11 10.5 -16t13 -8t11 -5.5t4.5 -8.5t-4.5 -8t-10.5 -3.5t-13 -5t-12 -12.5q-2 -72 -12.5 -139t-38 -118.5t-77 -82.5t-128.5 -31q-90 0 -126.5 42.5
t-36.5 124.5q0 18 5.5 42.5t17.5 47t29.5 38t41.5 15.5q11 0 18 -7t7 -17q0 -12 -10 -19q-6 -6 -13.5 -11t-14 -14.5t-10.5 -27.5t-4 -49q0 -23 3 -45t12.5 -39.5t27.5 -28.5t48 -11q39 0 63.5 31t38 81.5t18 114.5t4.5 131q0 75 -3 145t-3 120q0 32 2 52t8 25
q-48 0 -80.5 -17.5t-52 -45.5t-27.5 -62t-8 -68q0 -27 4.5 -51t11.5 -43t16.5 -30t19.5 -11q8 -3 9.5 -7.5t2.5 -9.5q0 -5 -6 -7.5t-13.5 -4t-15.5 -1.5h-12q-23 0 -51 8t-52 29.5t-40.5 60t-16.5 100.5q0 70 26 111.5t66.5 63.5t89.5 30t95 12.5t83.5 10t55.5 23.5z" />
    <glyph glyph-name="periodcentered" unicode="&#xb7;" horiz-adv-x="155" 
d="M81 395q27 0 40.5 -17.5t13.5 -40.5t-14 -43t-40 -23h-4q-26 0 -39.5 19.5t-13.5 42.5q0 22 12 40.5t38 21.5h7z" />
    <glyph glyph-name="cedilla" unicode="&#xb8;" horiz-adv-x="502" 
d="M284 -63q8 3 16 4t15 1q29 0 42 -15.5t13 -37.5q0 -15 -6 -30.5t-18 -28.5t-28.5 -21t-37.5 -8q-17 0 -34 5t-30 15q-9 6 -9 14q0 5 2.5 14t7.5 9t12 -4q16 -10 33 -10q26 0 40 13t14 27q0 11 -10 20t-31 9q-11 0 -24 -3q-7 0 -9 4q-1 2 -1 5l35 90l31 2z" />
    <glyph glyph-name="uni00B9" unicode="&#xb9;" horiz-adv-x="214" 
d="M184 392q-8 -5 -20.5 -6t-37.5 -1q-19 0 -37 -3.5t-30 -19.5q-6 -6 -12 -6q-7 0 -12.5 4.5t-5.5 12.5q0 7 7.5 12.5t17 13t19 20t12.5 34.5q-4 5 -10 5q-3 0 -5.5 -0.5t-4.5 -0.5q-6 0 -6 7q0 10 8.5 11t24.5 11l11 71q-6 -11 -12.5 -22.5t-12.5 -21.5t-11 -17.5
t-8 -10.5q-9 -9 -19 -9q-6 0 -13 5.5t-7 13.5q0 7 10 21q5 7 16 24t23.5 37t25 40.5t19.5 34.5q5 10 18 15.5t24 5.5q8 0 16.5 -3.5t8.5 -14.5q0 -4 -3.5 -20.5t-8 -39t-9.5 -47t-8 -44.5q0 -5 3.5 -6t8 -1.5t8 -1.5t3.5 -5q0 -5 -7.5 -8t-20.5 -11q-2 -18 -4 -31t-2 -17
q3 -3 10 -3q8 0 15.5 4.5t15.5 4.5q6 0 9 -6t3 -12q0 -5 -2 -10t-8 -9z" />
    <glyph glyph-name="ordmasculine" unicode="&#xba;" horiz-adv-x="356" 
d="M313 600q0 -8 3.5 -12t7.5 -6t7.5 -3t3.5 -4v-1q-1 -3 -4 -3t-7 -1t-8 -3t-6 -9q-4 -21 -16 -44.5t-29.5 -43t-39 -32.5t-43.5 -13q-44 0 -71 14t-42 35t-20.5 44.5t-6.5 42.5q-5 10 -13.5 11t-8.5 6q0 3 2.5 4t6 1.5t7 3t6.5 8.5q0 24 8.5 52t26.5 52.5t46 40.5t68 16
t64 -17t37 -40t17 -46.5t4 -36.5v-16zM129 591q0 -72 15 -105.5t33 -33.5q20 0 37 38.5t17 111.5q0 72 -12 103t-29 31q-11 0 -21.5 -11t-19.5 -30.5t-14.5 -46t-5.5 -57.5zM317 400q7 0 13 -5t6 -13q0 -13 -10.5 -26.5t-25.5 -24t-31.5 -17t-29.5 -6.5q-18 0 -35 5.5
t-34 12t-35 12t-37 5.5q-14 -1 -22.5 -7t-19.5 -17q-8 -6 -15 -6q-8 0 -14.5 5.5t-6.5 13.5v3q13 32 39.5 46t60.5 14q17 0 34.5 -5.5t34.5 -12t33 -12t29 -5.5q16 0 27 8t22 22q4 10 17 10z" />
    <glyph glyph-name="guillemotright" unicode="&#xbb;" horiz-adv-x="549" 
d="M439 336q-23 17 -54 38.5t-61 44t-54.5 43.5t-35.5 37q-2 3 -5 8t-3 10q0 10 9 15.5t17 5.5q10 0 21 -9q9 -7 28.5 -22.5t44.5 -35t52.5 -41t51.5 -40t42.5 -32.5t25.5 -18q8 -5 9.5 -9.5t1.5 -7.5q-2 -11 -14 -16q-35 -15 -76 -35t-79.5 -38.5t-69.5 -34t-44 -21.5
q-19 -13 -36 -6.5t-17 20.5q0 6 2.5 10.5t5.5 7.5q1 1 15 9t35 19.5t46.5 25.5t51.5 27.5t49.5 25.5t40.5 19zM33 236q19 9 48 25.5t59 33t56.5 31t40.5 20.5q-19 16 -41.5 33t-45.5 34t-44.5 34t-39.5 33q-10 10 -10 24q0 11 7 20t18 9q9 0 23 -9q19 -14 50.5 -39.5t64 -51
t60.5 -46t42 -24.5q5 -3 10.5 -6t5.5 -10q0 -9 -4.5 -13t-9.5 -6l-133 -73q-34 -19 -63 -35.5t-45 -24.5q-4 -2 -11.5 -4.5t-16.5 -2.5q-13 0 -23.5 7.5t-10.5 20.5q0 5 2 10t11 10z" />
    <glyph glyph-name="onequarter" unicode="&#xbc;" horiz-adv-x="586" 
d="M475 827q20 0 20 -15q0 -2 -2 -12q-27 -62 -63.5 -145t-76.5 -173t-79.5 -179.5t-72.5 -165.5t-55.5 -130t-28.5 -73q-1 -6 -8 -19.5t-23 -13.5q-11 0 -18 7t-7 19q0 5 1 10.5t3 10.5q12 29 33.5 79t48 112t56.5 132t61 140.5t60.5 136.5t55 120.5t44.5 93t29 52.5
q4 7 10 10t12 3zM540 231q4 -4 8.5 -5t8.5 -2t6.5 -3t2.5 -8q0 -9 -9.5 -11t-17.5 -14v-52q11 0 14 -4.5t3 -13.5q0 -14 -10 -16t-15 -2q-14 0 -27.5 2t-28.5 2h-8.5t-8.5 -1q-15 0 -15 14q0 6 4.5 12.5t10.5 6.5h6q16 0 16 20q0 7 -1 14.5t-1 12.5q-3 1 -11 1.5t-17.5 1
t-18 0.5h-11.5q-15 0 -29 -2t-31 -10q-6 0 -15.5 5.5t-9.5 14.5q0 2 3.5 9t16 28t38 61t70.5 107q0 1 4.5 5.5t20.5 4.5h19q8 0 21 -2.5t13 -14.5v-3v-20.5t-0.5 -43.5t-0.5 -51v-43zM184 392q-8 -5 -20.5 -6t-37.5 -1q-19 0 -37 -3.5t-30 -19.5q-6 -6 -12 -6
q-7 0 -12.5 4.5t-5.5 12.5q0 7 7.5 12.5t17 13t19 20t12.5 34.5q-4 5 -10 5q-3 0 -5.5 -0.5t-4.5 -0.5q-6 0 -6 7q0 10 8.5 11t24.5 11l11 71q-6 -11 -12.5 -22.5t-12.5 -21.5t-11 -17.5t-8 -10.5q-9 -9 -19 -9q-6 0 -13 5.5t-7 13.5q0 7 10 21q5 7 16 24t23.5 37t25 40.5
t19.5 34.5q5 10 18 15.5t24 5.5q8 0 16.5 -3.5t8.5 -14.5q0 -4 -3.5 -20.5t-8 -39t-9.5 -47t-8 -44.5q0 -5 3.5 -6t8 -1.5t8 -1.5t3.5 -5q0 -5 -7.5 -8t-20.5 -11q-2 -18 -4 -31t-2 -17q3 -3 10 -3q8 0 15.5 4.5t15.5 4.5q6 0 9 -6t3 -12q0 -5 -2 -10t-8 -9zM486 242v15v20
t0.5 29t0.5 43q-16 -17 -39 -50t-39 -68q8 0 19 0.5t22 0.5h10.5t11.5 -1q9 0 12 3q2 2 2 8z" />
    <glyph glyph-name="onehalf" unicode="&#xbd;" horiz-adv-x="593" 
d="M475 827q14 0 18 -6t0 -21q-27 -62 -63.5 -145t-76.5 -173t-79.5 -179.5t-72.5 -165.5t-55.5 -130t-28.5 -73q-1 -6 -8 -19.5t-23 -13.5q-11 0 -18 7t-7 19q0 5 1 10.5t3 10.5q12 29 33.5 79t48 112t56.5 132t61 140.5t60.5 136.5t55 120.5t44.5 93t29 52.5q4 7 10 10
t12 3zM569 214l0.5 -5.5t1.5 -13t1.5 -14.5t0.5 -10v-3q0 -14 -12 -23.5t-26 -9.5t-29 4.5t-32 4.5t-34 -2.5t-32 -4.5q-14 -2 -25.5 -3.5t-21.5 -1.5q-11 0 -20 3q-5 2 -7 7t-3 10q0 9 5 12q4 3 12.5 10.5t19 18.5t23 24.5t24.5 27.5q-3 7 -8.5 11t-5.5 9v2q3 7 8 7
t10 -2.5t13 -2.5q2 0 3 0.5t3 0.5l51 59q8 11 8 18q0 13 -11 19.5t-26 6.5q-20 0 -39 -12.5t-19 -39.5q0 -17 -6 -25t-14 -8t-14 7t-6 20q0 23 9 39.5t23.5 26.5t33 14.5t36.5 4.5q33 0 59.5 -17t26.5 -55q0 -22 -11 -40.5t-27 -35.5q0 -9 3.5 -10.5t3.5 -4.5q0 -8 -9 -8
q-3 0 -6 1t-7 1t-10 -3q-11 -10 -22.5 -18.5t-22.5 -19.5q19 -1 33.5 -3t34.5 -7q0 14 4 27.5t11 20.5q4 6 15 6q10 0 19.5 -5.5t9.5 -14.5zM184 392q-8 -5 -20.5 -6t-37.5 -1q-19 0 -37 -3.5t-30 -19.5q-6 -6 -12 -6q-7 0 -12.5 4.5t-5.5 12.5q0 7 7.5 12.5t17 13t19 20
t12.5 34.5q-4 5 -10 5q-3 0 -5.5 -0.5t-4.5 -0.5q-6 0 -6 7q0 10 8.5 11t24.5 11l11 71q-6 -11 -12.5 -22.5t-12.5 -21.5t-11 -17.5t-8 -10.5q-9 -9 -19 -9q-6 0 -13 5.5t-7 13.5q0 7 10 21q5 7 16 24t23.5 37t25 40.5t19.5 34.5q5 10 18 15.5t24 5.5q8 0 16.5 -3.5
t8.5 -14.5q0 -4 -3.5 -20.5t-8 -39t-9.5 -47t-8 -44.5q0 -5 3.5 -6t8 -1.5t8 -1.5t3.5 -5q0 -5 -7.5 -8t-20.5 -11q-2 -18 -4 -31t-2 -17q3 -3 10 -3q8 0 15.5 4.5t15.5 4.5q6 0 9 -6t3 -12q0 -5 -2 -10t-8 -9z" />
    <glyph glyph-name="threequarters" unicode="&#xbe;" horiz-adv-x="626" 
d="M515 827q20 0 20 -15q0 -2 -2 -12q-27 -62 -63.5 -145t-76.5 -173t-79.5 -179.5t-72.5 -165.5t-55.5 -130t-28.5 -73q-1 -6 -8 -19.5t-23 -13.5q-11 0 -18 7t-7 19q0 5 1 10.5t3 10.5q12 29 33.5 79t48 112t56.5 132t61 140.5t60.5 136.5t55 120.5t44.5 93t29 52.5
q4 7 10 10t12 3zM580 231q4 -4 8.5 -5t8.5 -2t6.5 -3t2.5 -8q0 -9 -9.5 -11t-17.5 -14v-52q11 0 14 -4.5t3 -13.5q0 -14 -10 -16t-15 -2q-14 0 -27.5 2t-28.5 2h-8.5t-8.5 -1q-15 0 -15 14q0 6 4.5 12.5t10.5 6.5h6q16 0 16 20q0 7 -1 14.5t-1 12.5q-3 1 -11 1.5t-17.5 1
t-18 0.5h-11.5q-15 0 -29 -2t-31 -10q-6 0 -15.5 5.5t-9.5 14.5q0 2 3.5 9t16 28t38 61t70.5 107q0 1 4.5 5.5t20.5 4.5h19q8 0 21 -2.5t13 -14.5v-3v-20.5t-0.5 -43.5t-0.5 -51v-43zM232 480q-12 -36 -44 -54.5t-67 -18.5q-38 0 -68 21t-33 63q0 11 6.5 18t14.5 7
q11 0 14 -17q0 -29 19.5 -43.5t42.5 -14.5t41.5 15t18.5 47q0 7 -2.5 15.5t-10.5 16.5q-13 14 -43 14q-7 -1 -14 -3.5t-12 -8.5q-6 -7 -13 -7q-6 0 -12.5 5t-6.5 13v2q2 8 16 14q18 7 34 18.5t29.5 24t23.5 24t15 19.5h-11q-16 0 -31.5 2t-31.5 5q-12 0 -14 -3q-3 -3 -3 -12
v-16q0 -9 -4 -19t-17 -10q-16 0 -23.5 13t-7.5 29q0 19 10.5 35.5t32.5 16.5q23 0 47 -5.5t51 -5.5q14 0 27 2t30 2q15 0 18 -13q0 -15 -10 -30.5t-22 -29t-22 -24t-10 -14.5q0 -3 7 -6q36 -19 38 -57q10 -3 16.5 -4t6.5 -6q0 -7 -9 -10.5t-17 -9.5zM526 242v15v20t0.5 29
t0.5 43q-16 -17 -39 -50t-39 -68q8 0 19 0.5t22 0.5h10.5t11.5 -1q9 0 12 3q2 2 2 8z" />
    <glyph glyph-name="questiondown" unicode="&#xbf;" horiz-adv-x="429" 
d="M15 -57q-4 9 -10 13.5t-11.5 7.5t-9.5 5.5t-4 7.5v2q0 7 5.5 8t13 3t15.5 7t13 20q13 39 35.5 64t49.5 43t55.5 31t53 28t42 35t22.5 51q3 20 4.5 36.5t4 28t8 18t17.5 6.5q17 0 28 -8t11 -26q0 -47 -13.5 -81t-34 -61.5t-44 -51t-44 -49.5t-34 -57t-13.5 -74
q0 -41 6.5 -68t17 -43.5t24.5 -23.5t29 -7q18 0 35 7.5t31 18.5t22.5 22.5t8.5 20.5q0 23 -7 39t-15 28.5t-15 22.5t-7 21q0 17 15 32t34 15q20 0 38 -18.5t18 -59.5q0 -48 -17.5 -83.5t-45.5 -59t-64 -35t-73 -11.5t-72 11t-62.5 33t-44 55t-16.5 76zM381 498
q0 -27 -15 -41t-34 -14q-21 0 -35.5 17t-14.5 42q0 22 16 33.5t35 11.5q21 0 34.5 -13.5t13.5 -35.5z" />
    <glyph glyph-name="Agrave" unicode="&#xc0;" horiz-adv-x="667" 
d="M640 57q7 0 7 -8q0 -6 -4 -15t-11.5 -17t-17.5 -14t-22 -6h-153q-23 0 -44.5 -4t-42.5 -15q-2 -2 -5.5 -3.5t-6.5 -1.5q-6 0 -9 7t-3 13q0 9 17 16q25 9 37 23.5t14 34.5q0 28 -6.5 86t-16.5 132q-19 1 -37.5 1.5t-38.5 0.5q-28 0 -54 -1t-49 -3q-8 -35 -15 -66t-12 -56
t-8.5 -43t-4.5 -25q0 -8 -2.5 -17t-2.5 -19q0 -14 7.5 -21.5t30.5 -8.5q4 -1 5.5 -8.5t1.5 -10.5v-2q0 -6 -7 -6q-42 0 -70 -1.5t-46.5 -3t-29 -2.5t-16.5 -1q-5 0 -5 5q0 8 9 15.5t17 10.5q18 7 29 23.5t16 33.5q8 26 18 72t23 108q0 15 -5 23.5t-11.5 14t-11.5 9t-5 8.5v2
q1 7 8 7.5t15.5 2t17.5 7.5t15 26q12 55 22.5 111t19 104.5t13.5 87t5 59.5q0 6 0.5 10.5t1.5 8.5q-19 0 -37 -6t-32.5 -18t-23.5 -29t-9 -39v-4q0 -2 -3.5 -4t-8.5 -2q-9 0 -15.5 7.5t-6.5 17.5q0 3 0.5 6t1.5 7q16 58 57 78.5t108 20.5q51 0 105 -5.5t96 -5.5q19 0 37.5 3
t34.5 18q4 3 8 3q7 0 9 -6.5t2 -12.5q0 -7 -2 -12.5t-5 -6.5q-21 -6 -27.5 -9.5t-8.5 -5.5q-5 -3 -5 -34q0 -24 3 -62t8 -84.5t11.5 -99t14.5 -104.5q6 -15 14 -21t16 -8.5t14 -4.5t7 -8v-1q0 -6 -5 -8.5l-12 -6t-13 -10t-7 -21.5q6 -43 12.5 -81.5t11.5 -69t9.5 -52.5
t6.5 -31q2 0 3.5 -0.5t3.5 -0.5q10 0 17.5 4.5t13 10l10 10t9.5 4.5zM200 314q32 2 72 3t85 1h12q-10 71 -20 145t-19 134q-11 70 -20 137q-3 0 -7 -0.5t-9 -0.5zM340 974q11 -29 28 -57.5t39 -61.5q5 -5 5 -13q0 -7 -4.5 -13t-12.5 -6q-5 0 -9 3.5t-6 5.5
q-29 32 -48.5 55.5t-35.5 47.5q-5 8 -9.5 15.5t-5.5 18.5q0 11 8 17.5t19 6.5q9 0 19 -4.5t13 -14.5z" />
    <glyph glyph-name="Aacute" unicode="&#xc1;" horiz-adv-x="667" 
d="M434 997q9 0 18 -5t9 -16t-4 -19t-10 -18q-3 -5 -16.5 -23t-29.5 -38t-31.5 -35.5t-22.5 -15.5q-6 0 -11.5 5t-5.5 13q0 5 2 8.5t4 5.5q17 22 36 54.5t30 64.5q4 10 13.5 14.5t18.5 4.5zM640 57q7 0 7 -8q0 -6 -4 -15t-11.5 -17t-17.5 -14t-22 -6h-153q-23 0 -44.5 -4
t-42.5 -15q-2 -2 -5.5 -3.5t-6.5 -1.5q-6 0 -9 7t-3 13q0 9 17 16q25 9 37 23.5t14 34.5q0 28 -6.5 86t-16.5 132q-19 1 -37.5 1.5t-38.5 0.5q-28 0 -54 -1t-49 -3q-8 -35 -15 -66t-12 -56t-8.5 -43t-4.5 -25q0 -8 -2.5 -17t-2.5 -19q0 -14 7.5 -21.5t30.5 -8.5
q4 -1 5.5 -8.5t1.5 -10.5v-2q0 -6 -7 -6q-42 0 -70 -1.5t-46.5 -3t-29 -2.5t-16.5 -1q-5 0 -5 5q0 8 9 15.5t17 10.5q18 7 29 23.5t16 33.5q8 26 18 72t23 108q0 15 -5 23.5t-11.5 14t-11.5 9t-5 8.5v2q1 7 8 7.5t15.5 2t17.5 7.5t15 26q12 55 22.5 111t19 104.5t13.5 87
t5 59.5q0 6 0.5 10.5t1.5 8.5q-19 0 -37 -6t-32.5 -18t-23.5 -29t-9 -39v-4q0 -2 -3.5 -4t-8.5 -2q-9 0 -15.5 7.5t-6.5 17.5q0 3 0.5 6t1.5 7q16 58 57 78.5t108 20.5q51 0 105 -5.5t96 -5.5q19 0 37.5 3t34.5 18q4 3 8 3q7 0 9 -6.5t2 -12.5q0 -7 -2 -12.5t-5 -6.5
q-21 -6 -27.5 -9.5t-8.5 -5.5q-5 -3 -5 -34q0 -24 3 -62t8 -84.5t11.5 -99t14.5 -104.5q6 -15 14 -21t16 -8.5t14 -4.5t7 -8v-1q0 -6 -5 -8.5l-12 -6t-13 -10t-7 -21.5q6 -43 12.5 -81.5t11.5 -69t9.5 -52.5t6.5 -31q2 0 3.5 -0.5t3.5 -0.5q10 0 17.5 4.5t13 10l10 10
t9.5 4.5zM200 314q32 2 72 3t85 1h12q-10 71 -20 145t-19 134q-11 70 -20 137q-3 0 -7 -0.5t-9 -0.5z" />
    <glyph glyph-name="Acircumflex" unicode="&#xc2;" horiz-adv-x="667" 
d="M640 57q7 0 7 -8q0 -6 -4 -15t-11.5 -17t-17.5 -14t-22 -6h-153q-23 0 -44.5 -4t-42.5 -15q-2 -2 -5.5 -3.5t-6.5 -1.5q-6 0 -9 7t-3 13q0 9 17 16q25 9 37 23.5t14 34.5q0 28 -6.5 86t-16.5 132q-19 1 -37.5 1.5t-38.5 0.5q-28 0 -54 -1t-49 -3q-8 -35 -15 -66t-12 -56
t-8.5 -43t-4.5 -25q0 -8 -2.5 -17t-2.5 -19q0 -14 7.5 -21.5t30.5 -8.5q4 -1 5.5 -8.5t1.5 -10.5v-2q0 -6 -7 -6q-42 0 -70 -1.5t-46.5 -3t-29 -2.5t-16.5 -1q-5 0 -5 5q0 8 9 15.5t17 10.5q18 7 29 23.5t16 33.5q8 26 18 72t23 108q0 15 -5 23.5t-11.5 14t-11.5 9t-5 8.5v2
q1 7 8 7.5t15.5 2t17.5 7.5t15 26q12 55 22.5 111t19 104.5t13.5 87t5 59.5q0 6 0.5 10.5t1.5 8.5q-19 0 -37 -6t-32.5 -18t-23.5 -29t-9 -39v-4q0 -2 -3.5 -4t-8.5 -2q-9 0 -15.5 7.5t-6.5 17.5q0 3 0.5 6t1.5 7q16 58 57 78.5t108 20.5q51 0 105 -5.5t96 -5.5q19 0 37.5 3
t34.5 18q4 3 8 3q7 0 9 -6.5t2 -12.5q0 -7 -2 -12.5t-5 -6.5q-21 -6 -27.5 -9.5t-8.5 -5.5q-5 -3 -5 -34q0 -24 3 -62t8 -84.5t11.5 -99t14.5 -104.5q6 -15 14 -21t16 -8.5t14 -4.5t7 -8v-1q0 -6 -5 -8.5l-12 -6t-13 -10t-7 -21.5q6 -43 12.5 -81.5t11.5 -69t9.5 -52.5
t6.5 -31q2 0 3.5 -0.5t3.5 -0.5q10 0 17.5 4.5t13 10l10 10t9.5 4.5zM200 314q32 2 72 3t85 1h12q-10 71 -20 145t-19 134q-11 70 -20 137q-3 0 -7 -0.5t-9 -0.5zM382 956q7 -9 18.5 -23.5t23 -30t20 -30t8.5 -23.5q0 -6 -5 -15t-13 -9q-4 0 -8 4q-17 18 -30.5 34t-35.5 35
q-13 -7 -23 -13.5t-20 -13.5t-22.5 -15t-29.5 -19q-6 -4 -12 -4q-5 0 -9.5 3.5t-4.5 12.5q0 8 5 13q24 24 50 46.5t54 49.5q10 7 17 7q8 0 17 -9z" />
    <glyph glyph-name="Atilde" unicode="&#xc3;" horiz-adv-x="667" 
d="M640 57q7 0 7 -8q0 -6 -4 -15t-11.5 -17t-17.5 -14t-22 -6h-153q-23 0 -44.5 -4t-42.5 -15q-2 -2 -5.5 -3.5t-6.5 -1.5q-6 0 -9 7t-3 13q0 9 17 16q25 9 37 23.5t14 34.5q0 28 -6.5 86t-16.5 132q-19 1 -37.5 1.5t-38.5 0.5q-28 0 -54 -1t-49 -3q-8 -35 -15 -66t-12 -56
t-8.5 -43t-4.5 -25q0 -8 -2.5 -17t-2.5 -19q0 -14 7.5 -21.5t30.5 -8.5q4 -1 5.5 -8.5t1.5 -10.5v-2q0 -6 -7 -6q-42 0 -70 -1.5t-46.5 -3t-29 -2.5t-16.5 -1q-5 0 -5 5q0 8 9 15.5t17 10.5q18 7 29 23.5t16 33.5q8 26 18 72t23 108q0 15 -5 23.5t-11.5 14t-11.5 9t-5 8.5v2
q1 7 8 7.5t15.5 2t17.5 7.5t15 26q12 55 22.5 111t19 104.5t13.5 87t5 59.5q0 6 0.5 10.5t1.5 8.5q-19 0 -37 -6t-32.5 -18t-23.5 -29t-9 -39v-4q0 -2 -3.5 -4t-8.5 -2q-9 0 -15.5 7.5t-6.5 17.5q0 3 0.5 6t1.5 7q16 58 57 78.5t108 20.5q51 0 105 -5.5t96 -5.5q19 0 37.5 3
t34.5 18q4 3 8 3q7 0 9 -6.5t2 -12.5q0 -7 -2 -12.5t-5 -6.5q-21 -6 -27.5 -9.5t-8.5 -5.5q-5 -3 -5 -34q0 -24 3 -62t8 -84.5t11.5 -99t14.5 -104.5q6 -15 14 -21t16 -8.5t14 -4.5t7 -8v-1q0 -6 -5 -8.5l-12 -6t-13 -10t-7 -21.5q6 -43 12.5 -81.5t11.5 -69t9.5 -52.5
t6.5 -31q2 0 3.5 -0.5t3.5 -0.5q10 0 17.5 4.5t13 10l10 10t9.5 4.5zM200 314q32 2 72 3t85 1h12q-10 71 -20 145t-19 134q-11 70 -20 137q-3 0 -7 -0.5t-9 -0.5zM222 841q-8 0 -8 8v2q1 21 9 41.5t21.5 37t33 27t43.5 10.5q3 0 6 -0.5t6 -0.5q13 -1 28 -7t28.5 -13.5
t26 -13.5t21.5 -6q8 0 15.5 3t13.5 8q8 6 13 14t10 17q2 5 5 5q6 0 6 -11q-1 -5 -3 -25t-12 -42.5t-32 -40.5t-64 -18q-12 0 -27 6t-30.5 13.5t-30 13.5t-26.5 6q-21 0 -38 -18q-3 -3 -5.5 -6.5t-4.5 -6.5t-5 -3z" />
    <glyph glyph-name="Adieresis" unicode="&#xc4;" horiz-adv-x="667" 
d="M640 57q7 0 7 -8q0 -6 -4 -15t-11.5 -17t-17.5 -14t-22 -6h-153q-23 0 -44.5 -4t-42.5 -15q-2 -2 -5.5 -3.5t-6.5 -1.5q-6 0 -9 7t-3 13q0 9 17 16q25 9 37 23.5t14 34.5q0 28 -6.5 86t-16.5 132q-19 1 -37.5 1.5t-38.5 0.5q-28 0 -54 -1t-49 -3q-8 -35 -15 -66t-12 -56
t-8.5 -43t-4.5 -25q0 -8 -2.5 -17t-2.5 -19q0 -14 7.5 -21.5t30.5 -8.5q4 -1 5.5 -8.5t1.5 -10.5v-2q0 -6 -7 -6q-42 0 -70 -1.5t-46.5 -3t-29 -2.5t-16.5 -1q-5 0 -5 5q0 8 9 15.5t17 10.5q18 7 29 23.5t16 33.5q8 26 18 72t23 108q0 15 -5 23.5t-11.5 14t-11.5 9t-5 8.5v2
q1 7 8 7.5t15.5 2t17.5 7.5t15 26q12 55 22.5 111t19 104.5t13.5 87t5 59.5q0 6 0.5 10.5t1.5 8.5q-19 0 -37 -6t-32.5 -18t-23.5 -29t-9 -39v-4q0 -2 -3.5 -4t-8.5 -2q-9 0 -15.5 7.5t-6.5 17.5q0 3 0.5 6t1.5 7q16 58 57 78.5t108 20.5q51 0 105 -5.5t96 -5.5q19 0 37.5 3
t34.5 18q4 3 8 3q7 0 9 -6.5t2 -12.5q0 -7 -2 -12.5t-5 -6.5q-21 -6 -27.5 -9.5t-8.5 -5.5q-5 -3 -5 -34q0 -24 3 -62t8 -84.5t11.5 -99t14.5 -104.5q6 -15 14 -21t16 -8.5t14 -4.5t7 -8v-1q0 -6 -5 -8.5l-12 -6t-13 -10t-7 -21.5q6 -43 12.5 -81.5t11.5 -69t9.5 -52.5
t6.5 -31q2 0 3.5 -0.5t3.5 -0.5q10 0 17.5 4.5t13 10l10 10t9.5 4.5zM200 314q32 2 72 3t85 1h12q-10 71 -20 145t-19 134q-11 70 -20 137q-3 0 -7 -0.5t-9 -0.5zM210 889q1 22 17.5 33.5t36.5 11.5q17 0 31.5 -10t14.5 -33q0 -29 -15 -42.5t-33 -13.5q-20 0 -36 13.5
t-16 38.5v2zM352 888q0 23 18 35.5t38 12.5q17 0 30.5 -10t13.5 -31q0 -29 -16 -42.5t-36 -13.5q-18 0 -33 12t-15 37z" />
    <glyph glyph-name="Aring" unicode="&#xc5;" horiz-adv-x="667" 
d="M640 57q7 0 7 -8q0 -6 -4 -15t-11.5 -17t-17.5 -14t-22 -6h-153q-23 0 -44.5 -4t-42.5 -15q-2 -2 -5.5 -3.5t-6.5 -1.5q-6 0 -9 7t-3 13q0 9 17 16q25 9 37 23.5t14 34.5q0 28 -6.5 86t-16.5 132q-19 1 -37.5 1.5t-38.5 0.5q-28 0 -54 -1t-49 -3q-8 -35 -15 -66t-12 -56
t-8.5 -43t-4.5 -25q0 -8 -2.5 -17t-2.5 -19q0 -14 7.5 -21.5t30.5 -8.5q4 -1 5.5 -8.5t1.5 -10.5v-2q0 -6 -7 -6q-42 0 -70 -1.5t-46.5 -3t-29 -2.5t-16.5 -1q-5 0 -5 5q0 8 9 15.5t17 10.5q18 7 29 23.5t16 33.5q8 26 18 72t23 108q0 15 -5 23.5t-11.5 14t-11.5 9t-5 8.5v2
q1 7 8 7.5t15.5 2t17.5 7.5t15 26q12 55 22.5 111t19 104.5t13.5 87t5 59.5q0 6 0.5 10.5t1.5 8.5q-19 0 -37 -6t-32.5 -18t-23.5 -29t-9 -39v-4q0 -2 -3.5 -4t-8.5 -2q-9 0 -15.5 7.5t-6.5 17.5q0 3 0.5 6t1.5 7q16 58 57 78.5t108 20.5q51 0 105 -5.5t96 -5.5q19 0 37.5 3
t34.5 18q4 3 8 3q7 0 9 -6.5t2 -12.5q0 -7 -2 -12.5t-5 -6.5q-21 -6 -27.5 -9.5t-8.5 -5.5q-5 -3 -5 -34q0 -24 3 -62t8 -84.5t11.5 -99t14.5 -104.5q6 -15 14 -21t16 -8.5t14 -4.5t7 -8v-1q0 -6 -5 -8.5l-12 -6t-13 -10t-7 -21.5q6 -43 12.5 -81.5t11.5 -69t9.5 -52.5
t6.5 -31q2 0 3.5 -0.5t3.5 -0.5q10 0 17.5 4.5t13 10l10 10t9.5 4.5zM200 314q32 2 72 3t85 1h12q-10 71 -20 145t-19 134q-11 70 -20 137q-3 0 -7 -0.5t-9 -0.5zM345 980q44 0 63 -22t19 -50q0 -15 -5.5 -30t-15.5 -27t-25 -19.5t-33 -7.5q-37 0 -54 22.5t-17 51.5
q0 15 4.5 29.5t13.5 26.5t21.5 19t28.5 7zM349 879q15 0 22.5 8.5t7.5 19.5t-7.5 19.5t-21.5 8.5q-15 0 -22.5 -8t-7.5 -19t7.5 -20t21.5 -9z" />
    <glyph glyph-name="AE" unicode="&#xc6;" horiz-adv-x="877" 
d="M384 59v44v56t0.5 62.5t1.5 65.5q-21 0 -50 -0.5t-57.5 -1t-51.5 -1t-33 -1.5q-8 -35 -15 -66t-12 -56t-8.5 -43t-4.5 -25q0 -8 -2.5 -17t-2.5 -19q0 -14 7.5 -21.5t30.5 -8.5q4 -1 5.5 -8.5t1.5 -10.5v-2q0 -6 -7 -6q-42 0 -70 -1.5t-46.5 -3t-29 -2.5t-16.5 -1
q-5 0 -5 5q0 8 9 15.5t17 10.5q18 7 29 23.5t16 33.5q8 26 18 71t23 100v9q0 15 -5 23.5t-11.5 14t-11.5 9t-5 8.5v2q1 7 8 7.5t15.5 2t17.5 7.5t15 26q12 55 22.5 111t19 104.5t13.5 87t5 59.5q0 6 0.5 10.5t1.5 8.5q-19 0 -37 -6t-32.5 -18t-23.5 -29t-9 -39v-4
q0 -2 -3.5 -4t-8.5 -2q-9 0 -15.5 7.5t-6.5 17.5q0 33 14.5 54.5t38 34t53.5 18t61 5.5q21 0 66 -2.5t102.5 -6t121.5 -7.5t121.5 -7.5t102.5 -6t66 -2.5q4 0 9 -2t5 -9q0 -2 -2 -8t-5 -13.5t-5.5 -15t-3.5 -13.5q-4 -16 -4.5 -36.5t-2.5 -34.5q-3 -20 -19 -20
q-13 0 -16.5 6.5t-3.5 11.5q1 6 1 9.5v7.5q0 37 -22.5 60t-69.5 23q-12 0 -22 0.5l-20 1t-21.5 1t-26.5 0.5q-18 0 -26 -12t-9 -25q-2 -15 -3.5 -42t-2 -62t-1 -76t-0.5 -84q42 0 78.5 0.5t53.5 0.5q14 0 25 8.5t19.5 19t14.5 19t10 8.5q3 0 4.5 -6t1.5 -14
q0 -12 -1.5 -25.5t-1.5 -20.5t1.5 -23t1.5 -30q0 -10 -1.5 -16.5t-4.5 -6.5q-4 0 -10.5 9t-15.5 19.5t-19.5 19.5t-22.5 9q-33 0 -66 -1.5t-67 -3.5q0 -44 0.5 -86.5t1 -80.5t1.5 -70t3 -53q1 -18 4.5 -30.5t13 -20t26 -11t44.5 -3.5q27 0 50.5 7t43.5 27q17 17 32.5 40
t15.5 41q1 4 5.5 9t15.5 5q7 0 12.5 -2.5t5.5 -11.5q0 -7 -1 -12q-4 -18 -4.5 -42t-3 -45t-8 -36t-19.5 -15q-19 0 -47 1t-62 1q-49 0 -105 -1.5t-106 -5.5t-89 -11.5t-55 -18.5q-1 -1 -3 -1q-11 0 -11 11q0 6 3 11q2 6 12 12.5t21.5 15.5t20.5 22.5t9 34.5zM202 323
q43 0 93 0.5t92 2.5q1 60 2.5 121.5t3 112.5l2.5 85t1 38q0 15 -9.5 24.5t-24.5 15t-33 8t-35 2.5z" />
    <glyph glyph-name="Ccedilla" unicode="&#xc7;" horiz-adv-x="521" 
d="M369 747q23 0 46.5 1t55.5 1q7 0 13 -1t6 -6q0 -1 -2 -5q-11 -15 -16 -35.5t-6.5 -43t-1.5 -45.5t-2 -42q-1 -2 -3.5 -5.5t-8.5 -3.5q-22 0 -29.5 8.5t-7.5 15.5v14q0 31 -5.5 51.5t-13.5 32.5t-18.5 16.5t-20.5 4.5q-23 0 -41 -19t-30.5 -50.5t-21 -72t-14 -84t-7.5 -86
t-2 -78.5q0 -57 5.5 -109.5t17 -92t29.5 -63.5t42 -24q27 0 43.5 12t25 30t11 40t2.5 42q0 12 -0.5 22.5t-0.5 18.5q0 11 1 14q1 5 8 8t15 3q11 0 20.5 -4.5t9.5 -12.5q0 -3 -0.5 -6.5t-0.5 -8.5q-1 -14 -2 -34.5t-6.5 -42t-15.5 -43t-28 -39t-45 -28t-66 -10.5h-5l-15 -50
q8 3 16 4t15 1q29 0 42 -15.5t13 -37.5q0 -15 -6 -30.5t-18 -28.5t-28.5 -21t-37.5 -8q-17 0 -34 5t-30 15q-9 6 -9 14q0 5 2.5 14t7.5 9t12 -4q16 -10 33 -10q26 0 40 13t14 27q0 11 -10 20t-31 9q-11 0 -24 -3q-7 0 -9 4q-1 2 -1 5l27 70q-53 6 -87.5 28.5t-57 59.5
t-35 87t-20.5 110q-2 18 -9.5 26t-16 11.5t-15 6t-6.5 9.5v1q0 6 5.5 8t12.5 5t14 9t10 21v34q0 82 22 145.5t62 107t96.5 66.5t125.5 23z" />
    <glyph glyph-name="Egrave" unicode="&#xc8;" horiz-adv-x="600" 
d="M551 749q3 0 8.5 -2t5.5 -9q0 -1 -0.5 -2t-0.5 -2q-12 -25 -15.5 -49t-5 -43.5t-3 -31.5t-8.5 -12h-3q-16 0 -21 6t-5 13q0 3 0.5 6t0.5 10q0 37 -22.5 59.5t-69.5 22.5q-20 0 -40.5 1.5t-49.5 1.5q-18 0 -26 -11.5t-9 -25.5q-3 -50 -4.5 -129t-1.5 -165q39 0 72.5 0.5
t50.5 0.5q15 0 26 7t19.5 15.5t14.5 15.5t10 7q3 0 4 -6t1 -14q0 -12 -1 -25.5t-1 -20.5t1 -18t1 -21q0 -7 -1 -12t-4 -5q-4 0 -10.5 7.5t-15.5 16t-19.5 16t-22.5 7.5q-31 0 -62 -1.5t-63 -3.5v-77t1 -71.5t1.5 -62t2.5 -49.5q1 -18 4.5 -30.5t12.5 -20t26 -11t45 -3.5
q22 0 46 8.5t44.5 24t35 36.5t16.5 46q0 4 4 9t15 5q7 0 13.5 -2t6.5 -12q0 -6 -0.5 -30.5t-4 -51t-11 -47.5t-20.5 -21q-31 0 -73.5 1.5t-89.5 1.5q-44 0 -88.5 -1t-81 -2.5t-62.5 -5t-34 -7.5h-1q-8 -2 -10 -2q-5 0 -7 4.5t-2 9.5q0 16 11 18q19 6 28 6q0 6 1 31.5t2 62
t2 80.5t1 87q0 16 -6.5 23.5t-15 11.5t-15 6.5t-6.5 8.5v1q0 8 7 9.5t15 5t15 12.5t7 33q0 48 -1 96t-3 90.5t-5 79t-8 62.5q-1 5 -8 6.5t-13 1.5h-7q-10 0 -10 14q0 5 2 8.5t7 4.5q7 1 20.5 2t29.5 1.5t34 0.5h34q30 0 62.5 -1t74.5 -2t96.5 -2t129.5 -1zM308 958
q11 -29 28 -57.5t39 -61.5q5 -5 5 -13q0 -7 -4.5 -13t-12.5 -6q-5 0 -9 3.5t-6 5.5q-29 32 -48.5 55.5t-35.5 47.5q-5 8 -9.5 15.5t-5.5 18.5q0 11 8 17.5t19 6.5q9 0 19 -4.5t13 -14.5z" />
    <glyph glyph-name="Eacute" unicode="&#xc9;" horiz-adv-x="600" 
d="M551 749q3 0 8.5 -2t5.5 -9q0 -1 -0.5 -2t-0.5 -2q-12 -25 -15.5 -49t-5 -43.5t-3 -31.5t-8.5 -12h-3q-16 0 -21 6t-5 13q0 3 0.5 6t0.5 10q0 37 -22.5 59.5t-69.5 22.5q-20 0 -40.5 1.5t-49.5 1.5q-18 0 -26 -11.5t-9 -25.5q-3 -50 -4.5 -129t-1.5 -165q39 0 72.5 0.5
t50.5 0.5q15 0 26 7t19.5 15.5t14.5 15.5t10 7q3 0 4 -6t1 -14q0 -12 -1 -25.5t-1 -20.5t1 -18t1 -21q0 -7 -1 -12t-4 -5q-4 0 -10.5 7.5t-15.5 16t-19.5 16t-22.5 7.5q-31 0 -62 -1.5t-63 -3.5v-77t1 -71.5t1.5 -62t2.5 -49.5q1 -18 4.5 -30.5t12.5 -20t26 -11t45 -3.5
q22 0 46 8.5t44.5 24t35 36.5t16.5 46q0 4 4 9t15 5q7 0 13.5 -2t6.5 -12q0 -6 -0.5 -30.5t-4 -51t-11 -47.5t-20.5 -21q-31 0 -73.5 1.5t-89.5 1.5q-44 0 -88.5 -1t-81 -2.5t-62.5 -5t-34 -7.5h-1q-8 -2 -10 -2q-5 0 -7 4.5t-2 9.5q0 16 11 18q19 6 28 6q0 6 1 31.5t2 62
t2 80.5t1 87q0 16 -6.5 23.5t-15 11.5t-15 6.5t-6.5 8.5v1q0 8 7 9.5t15 5t15 12.5t7 33q0 48 -1 96t-3 90.5t-5 79t-8 62.5q-1 5 -8 6.5t-13 1.5h-7q-10 0 -10 14q0 5 2 8.5t7 4.5q7 1 20.5 2t29.5 1.5t34 0.5h34q30 0 62.5 -1t74.5 -2t96.5 -2t129.5 -1zM400 969
q9 0 18 -5t9 -16t-4 -19t-10 -18q-3 -5 -16.5 -23t-29.5 -38t-31.5 -35.5t-22.5 -15.5q-6 0 -11.5 5t-5.5 13q0 5 2 8.5t4 5.5q17 22 36 54.5t30 64.5q4 10 13.5 14.5t18.5 4.5z" />
    <glyph glyph-name="Ecircumflex" unicode="&#xca;" horiz-adv-x="600" 
d="M341 952q5 -8 14 -20t19 -24.5t19 -24t14 -18.5q5 -5 9.5 -11.5t4.5 -14.5v-1q0 -6 -5 -15t-12 -9q-3 0 -7 3l-73 72q-7 -4 -22.5 -15t-31.5 -23t-29.5 -21.5t-17.5 -9.5q-7 0 -11 5.5t-4 12.5t4 11q22 26 45.5 51t49.5 54q10 8 18 8q10 0 16 -10zM551 749q3 0 8.5 -2
t5.5 -9q0 -1 -0.5 -2t-0.5 -2q-12 -25 -15.5 -49t-5 -43.5t-3 -31.5t-8.5 -12h-3q-16 0 -21 6t-5 13q0 3 0.5 6t0.5 10q0 37 -22.5 59.5t-69.5 22.5q-20 0 -40.5 1.5t-49.5 1.5q-18 0 -26 -11.5t-9 -25.5q-3 -50 -4.5 -129t-1.5 -165q39 0 72.5 0.5t50.5 0.5q15 0 26 7
t19.5 15.5t14.5 15.5t10 7q3 0 4 -6t1 -14q0 -12 -1 -25.5t-1 -20.5t1 -18t1 -21q0 -7 -1 -12t-4 -5q-4 0 -10.5 7.5t-15.5 16t-19.5 16t-22.5 7.5q-31 0 -62 -1.5t-63 -3.5v-77t1 -71.5t1.5 -62t2.5 -49.5q1 -18 4.5 -30.5t12.5 -20t26 -11t45 -3.5q22 0 46 8.5t44.5 24
t35 36.5t16.5 46q0 4 4 9t15 5q7 0 13.5 -2t6.5 -12q0 -6 -0.5 -30.5t-4 -51t-11 -47.5t-20.5 -21q-31 0 -73.5 1.5t-89.5 1.5q-44 0 -88.5 -1t-81 -2.5t-62.5 -5t-34 -7.5h-1q-8 -2 -10 -2q-5 0 -7 4.5t-2 9.5q0 16 11 18q19 6 28 6q0 6 1 31.5t2 62t2 80.5t1 87
q0 16 -6.5 23.5t-15 11.5t-15 6.5t-6.5 8.5v1q0 8 7 9.5t15 5t15 12.5t7 33q0 48 -1 96t-3 90.5t-5 79t-8 62.5q-1 5 -8 6.5t-13 1.5h-7q-10 0 -10 14q0 5 2 8.5t7 4.5q7 1 20.5 2t29.5 1.5t34 0.5h34q30 0 62.5 -1t74.5 -2t96.5 -2t129.5 -1z" />
    <glyph glyph-name="Edieresis" unicode="&#xcb;" horiz-adv-x="600" 
d="M551 749q3 0 8.5 -2t5.5 -9q0 -1 -0.5 -2t-0.5 -2q-12 -25 -15.5 -49t-5 -43.5t-3 -31.5t-8.5 -12h-3q-16 0 -21 6t-5 13q0 3 0.5 6t0.5 10q0 37 -22.5 59.5t-69.5 22.5q-20 0 -40.5 1.5t-49.5 1.5q-18 0 -26 -11.5t-9 -25.5q-3 -50 -4.5 -129t-1.5 -165q39 0 72.5 0.5
t50.5 0.5q15 0 26 7t19.5 15.5t14.5 15.5t10 7q3 0 4 -6t1 -14q0 -12 -1 -25.5t-1 -20.5t1 -18t1 -21q0 -7 -1 -12t-4 -5q-4 0 -10.5 7.5t-15.5 16t-19.5 16t-22.5 7.5q-31 0 -62 -1.5t-63 -3.5v-77t1 -71.5t1.5 -62t2.5 -49.5q1 -18 4.5 -30.5t12.5 -20t26 -11t45 -3.5
q22 0 46 8.5t44.5 24t35 36.5t16.5 46q0 4 4 9t15 5q7 0 13.5 -2t6.5 -12q0 -6 -0.5 -30.5t-4 -51t-11 -47.5t-20.5 -21q-31 0 -73.5 1.5t-89.5 1.5q-44 0 -88.5 -1t-81 -2.5t-62.5 -5t-34 -7.5h-1q-8 -2 -10 -2q-5 0 -7 4.5t-2 9.5q0 16 11 18q19 6 28 6q0 6 1 31.5t2 62
t2 80.5t1 87q0 16 -6.5 23.5t-15 11.5t-15 6.5t-6.5 8.5v1q0 8 7 9.5t15 5t15 12.5t7 33q0 48 -1 96t-3 90.5t-5 79t-8 62.5q-1 5 -8 6.5t-13 1.5h-7q-10 0 -10 14q0 5 2 8.5t7 4.5q7 1 20.5 2t29.5 1.5t34 0.5h34q30 0 62.5 -1t74.5 -2t96.5 -2t129.5 -1zM216 890
q1 22 17.5 33.5t36.5 11.5q17 0 31.5 -10t14.5 -33q0 -29 -15 -42.5t-33 -13.5q-20 0 -36 13.5t-16 38.5v2zM358 889q0 23 18 35.5t38 12.5q17 0 30.5 -10t13.5 -31q0 -29 -16 -42.5t-36 -13.5q-18 0 -33 12t-15 37z" />
    <glyph glyph-name="Igrave" unicode="&#xcc;" horiz-adv-x="385" 
d="M310 746q8 -1 11 -6t3 -12q0 -17 -18 -17q-5 0 -11 0.5t-7 0.5q-7 0 -10.5 -5.5t-5 -13.5t-2 -16.5t-0.5 -13.5q0 -17 -3.5 -91.5t-4.5 -199.5q3 -17 11 -24.5t15.5 -11.5t13.5 -6.5t6 -8.5v-1q0 -8 -7 -9.5t-15.5 -5.5t-15.5 -14t-7 -35q0 -53 3 -105.5t3 -107.5
q1 -14 3 -22t13 -8h3q4 0 5.5 -6.5t1.5 -11.5q0 -8 -10 -8q-11 1 -35 1.5t-54 0.5t-60.5 -2t-62.5 -2q-12 0 -12 9v1q1 7 11 12.5t18 8.5q14 5 16 25t2 63q0 26 1.5 73.5t1.5 101.5q0 12 -7 18.5t-15 11t-15 8.5t-7 10v1q0 7 6 8.5t14 4.5t15 10.5t10 26.5q1 49 1.5 96.5
t0.5 88.5q0 33 -0.5 59t-1.5 42v4q-2 26 -4.5 36.5t-14.5 10.5q-2 0 -5.5 -0.5t-8.5 -0.5q-6 0 -11 2t-5 9t5.5 13t10.5 7q50 0 104 0.5t127 0.5zM186 954q11 -29 28 -57.5t39 -61.5q5 -5 5 -13q0 -7 -4.5 -13t-12.5 -6q-5 0 -9 3.5t-6 5.5q-29 32 -48.5 55.5t-35.5 47.5
q-5 8 -9.5 15.5t-5.5 18.5q0 11 8 17.5t19 6.5q9 0 19 -4.5t13 -14.5z" />
    <glyph glyph-name="Iacute" unicode="&#xcd;" horiz-adv-x="385" 
d="M310 746q8 -1 11 -6t3 -12q0 -17 -18 -17q-5 0 -11 0.5t-7 0.5q-7 0 -10.5 -5.5t-5 -13.5t-2 -16.5t-0.5 -13.5q0 -17 -3.5 -91.5t-4.5 -199.5q3 -17 11 -24.5t15.5 -11.5t13.5 -6.5t6 -8.5v-1q0 -8 -7 -9.5t-15.5 -5.5t-15.5 -14t-7 -35q0 -53 3 -105.5t3 -107.5
q1 -14 3 -22t13 -8h3q4 0 5.5 -6.5t1.5 -11.5q0 -8 -10 -8q-11 1 -35 1.5t-54 0.5t-60.5 -2t-62.5 -2q-12 0 -12 9v1q1 7 11 12.5t18 8.5q14 5 16 25t2 63q0 26 1.5 73.5t1.5 101.5q0 12 -7 18.5t-15 11t-15 8.5t-7 10v1q0 7 6 8.5t14 4.5t15 10.5t10 26.5q1 49 1.5 96.5
t0.5 88.5q0 33 -0.5 59t-1.5 42v4q-2 26 -4.5 36.5t-14.5 10.5q-2 0 -5.5 -0.5t-8.5 -0.5q-6 0 -11 2t-5 9t5.5 13t10.5 7q50 0 104 0.5t127 0.5zM241 981q9 0 18 -5t9 -16t-4 -19t-10 -18q-3 -5 -16.5 -23t-29.5 -38t-31.5 -35.5t-22.5 -15.5q-6 0 -11.5 5t-5.5 13
q0 5 2 8.5t4 5.5q17 22 36 54.5t30 64.5q4 10 13.5 14.5t18.5 4.5z" />
    <glyph glyph-name="Icircumflex" unicode="&#xce;" horiz-adv-x="385" 
d="M310 746q8 -1 11 -6t3 -12q0 -17 -18 -17q-5 0 -11 0.5t-7 0.5q-7 0 -10.5 -5.5t-5 -13.5t-2 -16.5t-0.5 -13.5q0 -17 -3.5 -91.5t-4.5 -199.5q3 -17 11 -24.5t15.5 -11.5t13.5 -6.5t6 -8.5v-1q0 -8 -7 -9.5t-15.5 -5.5t-15.5 -14t-7 -35q0 -53 3 -105.5t3 -107.5
q1 -14 3 -22t13 -8h3q4 0 5.5 -6.5t1.5 -11.5q0 -8 -10 -8q-11 1 -35 1.5t-54 0.5t-60.5 -2t-62.5 -2q-12 0 -12 9v1q1 7 11 12.5t18 8.5q14 5 16 25t2 63q0 26 1.5 73.5t1.5 101.5q0 12 -7 18.5t-15 11t-15 8.5t-7 10v1q0 7 6 8.5t14 4.5t15 10.5t10 26.5q1 49 1.5 96.5
t0.5 88.5q0 33 -0.5 59t-1.5 42v4q-2 26 -4.5 36.5t-14.5 10.5q-2 0 -5.5 -0.5t-8.5 -0.5q-6 0 -11 2t-5 9t5.5 13t10.5 7q50 0 104 0.5t127 0.5zM232 958q7 -9 18.5 -23.5t23 -30t20 -30t8.5 -23.5q0 -6 -5 -15t-13 -9q-4 0 -8 4q-17 18 -30.5 34t-35.5 35
q-13 -7 -23 -13.5t-20 -13.5t-22.5 -15t-29.5 -19q-6 -4 -12 -4q-5 0 -9.5 3.5t-4.5 12.5q0 8 5 13q24 24 50 46.5t54 49.5q10 7 17 7q8 0 17 -9z" />
    <glyph glyph-name="Idieresis" unicode="&#xcf;" horiz-adv-x="385" 
d="M310 746q8 -1 11 -6t3 -12q0 -17 -18 -17q-5 0 -11 0.5t-7 0.5q-7 0 -10.5 -5.5t-5 -13.5t-2 -16.5t-0.5 -13.5q0 -17 -3.5 -91.5t-4.5 -199.5q3 -17 11 -24.5t15.5 -11.5t13.5 -6.5t6 -8.5v-1q0 -8 -7 -9.5t-15.5 -5.5t-15.5 -14t-7 -35q0 -53 3 -105.5t3 -107.5
q1 -14 3 -22t13 -8h3q4 0 5.5 -6.5t1.5 -11.5q0 -8 -10 -8q-11 1 -35 1.5t-54 0.5t-60.5 -2t-62.5 -2q-12 0 -12 9v1q1 7 11 12.5t18 8.5q14 5 16 25t2 63q0 26 1.5 73.5t1.5 101.5q0 12 -7 18.5t-15 11t-15 8.5t-7 10v1q0 7 6 8.5t14 4.5t15 10.5t10 26.5q1 49 1.5 96.5
t0.5 88.5q0 33 -0.5 59t-1.5 42v4q-2 26 -4.5 36.5t-14.5 10.5q-2 0 -5.5 -0.5t-8.5 -0.5q-6 0 -11 2t-5 9t5.5 13t10.5 7q50 0 104 0.5t127 0.5zM72 896q1 22 17.5 33.5t36.5 11.5q17 0 31.5 -10t14.5 -33q0 -29 -15 -42.5t-33 -13.5q-20 0 -36 13.5t-16 38.5v2zM214 895
q0 23 18 35.5t38 12.5q17 0 30.5 -10t13.5 -31q0 -29 -16 -42.5t-36 -13.5q-18 0 -33 12t-15 37z" />
    <glyph glyph-name="Eth" unicode="&#xd0;" horiz-adv-x="658" 
d="M600 369q2 -14 8 -21t12.5 -11.5t11.5 -7.5t5 -9v-1q-1 -7 -7 -8t-13.5 -2t-15.5 -6t-14 -19q-12 -57 -40 -111t-79 -96t-129.5 -67.5t-192.5 -25.5h-24.5t-25.5 1q-9 0 -11.5 6.5t-2.5 14.5q0 9 2.5 31.5t5.5 57t7 80t7 98.5q-2 13 -6 20.5t-9 12.5q-8 0 -16.5 0.5
t-18.5 0.5q-8 0 -16 5t-8 15q0 11 8 18t20 7h40q4 5 7 12.5t5 19.5q2 42 3 83.5t1 81.5q0 37 -1.5 70.5t-3.5 64.5q-1 12 -5.5 20t-10.5 12.5t-13 7t-12 4.5q-2 1 -2 7q0 5 2 11t6 6h1q5 -1 18.5 -3t31.5 -4.5t39 -4t41 -1.5q37 0 73 6t77 6q85 0 135 -24t76 -60t33 -77
t7 -75q0 -35 -1.5 -70t-4.5 -76zM324 364q9 0 16 -5t7 -16q0 -20 -17.5 -26t-35.5 -6q-7 0 -17 -0.5t-23 -0.5q0 -52 1 -99.5t2 -85t2 -62t1 -30.5q0 -4 5 -4q2 0 12 2q65 23 103.5 71t59 108.5t27 128t6.5 130.5q0 76 -11 123.5t-29 73.5t-41 35t-47 9q-14 0 -27 -2t-25 -4
q-11 -2 -18.5 -33t-12 -79.5t-6.5 -109.5t-2 -124q25 2 40.5 4t29.5 2z" />
    <glyph glyph-name="Ntilde" unicode="&#xd1;" horiz-adv-x="662" 
d="M494 741q3 0 7 -0.5t15 -1t32.5 -1t59.5 -0.5q7 0 10.5 -3t3.5 -14q0 -10 -3 -13q-6 -5 -15 -5.5t-16 -2.5q-9 -2 -12.5 -16.5t-3.5 -26.5q0 -32 -0.5 -67.5t-1.5 -70t-1.5 -67.5t-0.5 -60q0 -20 7 -29.5t15 -14t15 -7t7 -9.5v-1q0 -7 -6 -8.5t-13.5 -4t-15 -8.5
t-11.5 -22q-2 -55 -2.5 -105t-1.5 -89q-1 -46 -2 -85q0 -8 -10 -12q-4 -2 -9 -3h-97q-5 2 -18.5 23.5t-33 55.5t-43 77.5t-47.5 89t-47 89.5t-41.5 79.5t-30.5 58.5t-14 27q-4 -2 -4 -6q0 -10 0.5 -20t0.5 -25q0 -25 -0.5 -61.5t-1.5 -77t-2.5 -82t-2.5 -77t-1.5 -63
t-0.5 -38.5v-7q2 -6 13 -8.5t19 -5.5q3 -1 6.5 -6.5t3.5 -11.5q0 -11 -12 -11q-5 0 -21.5 1.5t-34.5 1.5q-26 0 -41.5 -2t-20.5 -2t-8.5 3.5t-3.5 8.5q0 6 5.5 12t13.5 8q24 4 28.5 16t5.5 24v3q0 6 0.5 25t1.5 46.5t1.5 62.5t0.5 74q-1 20 -8 29.5t-15 14.5t-14.5 7.5
t-6.5 9.5v1q0 7 5.5 8.5t13 4t15 8.5t11.5 23q0 42 0.5 81.5t0.5 74.5q0 50 -0.5 85.5t-1.5 46.5v2q-2 13 -5 21.5t-15 8.5q-9 0 -16 -0.5t-12 -0.5q-8 0 -11.5 3t-4.5 13q0 2 0.5 6t3 8t7.5 7t14 3h11q14 0 28 -0.5t28 -0.5q23 0 44 1t35 4h3q6 0 11 -8q5 -9 19.5 -36.5
t34.5 -67t44 -87.5l48.5 -97t48 -95.5t42 -83.5t31 -61.5t15.5 -29.5q0 3 1.5 37.5t3 84.5t3.5 109t3.5 111.5t2.5 91t1 48.5q0 18 -2.5 26t-7 11.5t-11.5 3.5t-15 1q-5 1 -10 6.5t-5 14.5q0 5 2.5 11t9.5 6zM235 805q-8 0 -8 8v2q1 21 9 41.5t21.5 37t33 27t43.5 10.5
q3 0 6 -0.5t6 -0.5q13 -1 28 -7t28.5 -13.5t26 -13.5t21.5 -6q8 0 15.5 3t13.5 8q8 6 13 14t10 17q2 5 5 5q6 0 6 -11q-1 -5 -3 -25t-12 -42.5t-32 -40.5t-64 -18q-12 0 -27 6t-30.5 13.5t-30 13.5t-26.5 6q-21 0 -38 -18q-3 -3 -5.5 -6.5t-4.5 -6.5t-5 -3z" />
    <glyph glyph-name="Ograve" unicode="&#xd2;" horiz-adv-x="644" 
d="M583 384q1 -18 7 -26.5t13.5 -13t13.5 -8t6 -9.5v-1q-1 -7 -7 -8t-13.5 -3t-15.5 -7.5t-12 -21.5q-7 -49 -21.5 -103t-43 -99t-73 -74.5t-110.5 -29.5q-83 0 -134 32.5t-80 80.5t-39.5 102.5t-12.5 99.5q-4 11 -11 16.5t-13.5 8.5t-11.5 5.5t-5 8.5t5 8t11.5 4t13.5 6.5
t12 15.5q0 38 7 81t21.5 85t37 80.5t54 68t72.5 47t93 17.5q70 0 115.5 -34.5t72.5 -87.5t37.5 -117t10.5 -124zM328 9q24 0 40.5 21t27.5 55t17 76t8.5 84.5t3 80.5t0.5 64q0 72 -3 132t-11 103.5t-23 67.5t-39 24q-26 0 -45 -18t-32.5 -47.5t-22.5 -67t-14.5 -76.5
t-7.5 -77t-2 -67q0 -27 1 -63.5t5 -76t11 -78t18.5 -69t28 -49.5t39.5 -19zM336 951q11 -29 28 -57.5t39 -61.5q5 -5 5 -13q0 -7 -4.5 -13t-12.5 -6q-5 0 -9 3.5t-6 5.5q-29 32 -48.5 55.5t-35.5 47.5q-5 8 -9.5 15.5t-5.5 18.5q0 11 8 17.5t19 6.5q9 0 19 -4.5t13 -14.5z
" />
    <glyph glyph-name="Oacute" unicode="&#xd3;" horiz-adv-x="644" 
d="M583 384q1 -18 7 -26.5t13.5 -13t13.5 -8t6 -9.5v-1q-1 -7 -7 -8t-13.5 -3t-15.5 -7.5t-12 -21.5q-7 -49 -21.5 -103t-43 -99t-73 -74.5t-110.5 -29.5q-83 0 -134 32.5t-80 80.5t-39.5 102.5t-12.5 99.5q-4 11 -11 16.5t-13.5 8.5t-11.5 5.5t-5 8.5t5 8t11.5 4t13.5 6.5
t12 15.5q0 38 7 81t21.5 85t37 80.5t54 68t72.5 47t93 17.5q70 0 115.5 -34.5t72.5 -87.5t37.5 -117t10.5 -124zM328 9q24 0 40.5 21t27.5 55t17 76t8.5 84.5t3 80.5t0.5 64q0 72 -3 132t-11 103.5t-23 67.5t-39 24q-26 0 -45 -18t-32.5 -47.5t-22.5 -67t-14.5 -76.5
t-7.5 -77t-2 -67q0 -27 1 -63.5t5 -76t11 -78t18.5 -69t28 -49.5t39.5 -19zM391 962q9 0 18 -5t9 -16t-4 -19t-10 -18q-3 -5 -16.5 -23t-29.5 -38t-31.5 -35.5t-22.5 -15.5q-6 0 -11.5 5t-5.5 13q0 5 2 8.5t4 5.5q17 22 36 54.5t30 64.5q4 10 13.5 14.5t18.5 4.5z" />
    <glyph glyph-name="Ocircumflex" unicode="&#xd4;" horiz-adv-x="644" 
d="M583 384q1 -18 7 -26.5t13.5 -13t13.5 -8t6 -9.5v-1q-1 -7 -7 -8t-13.5 -3t-15.5 -7.5t-12 -21.5q-7 -49 -21.5 -103t-43 -99t-73 -74.5t-110.5 -29.5q-83 0 -134 32.5t-80 80.5t-39.5 102.5t-12.5 99.5q-4 11 -11 16.5t-13.5 8.5t-11.5 5.5t-5 8.5t5 8t11.5 4t13.5 6.5
t12 15.5q0 38 7 81t21.5 85t37 80.5t54 68t72.5 47t93 17.5q70 0 115.5 -34.5t72.5 -87.5t37.5 -117t10.5 -124zM328 9q24 0 40.5 21t27.5 55t17 76t8.5 84.5t3 80.5t0.5 64q0 72 -3 132t-11 103.5t-23 67.5t-39 24q-26 0 -45 -18t-32.5 -47.5t-22.5 -67t-14.5 -76.5
t-7.5 -77t-2 -67q0 -27 1 -63.5t5 -76t11 -78t18.5 -69t28 -49.5t39.5 -19zM383 926q7 -9 18.5 -23.5t23 -30t20 -30t8.5 -23.5q0 -6 -5 -15t-13 -9q-4 0 -8 4q-17 18 -30.5 34t-35.5 35q-13 -7 -23 -13.5t-20 -13.5t-22.5 -15t-29.5 -19q-6 -4 -12 -4q-5 0 -9.5 3.5
t-4.5 12.5q0 8 5 13q24 24 50 46.5t54 49.5q10 7 17 7q8 0 17 -9z" />
    <glyph glyph-name="Otilde" unicode="&#xd5;" horiz-adv-x="644" 
d="M583 384q1 -18 7 -26.5t13.5 -13t13.5 -8t6 -9.5v-1q-1 -7 -7 -8t-13.5 -3t-15.5 -7.5t-12 -21.5q-7 -49 -21.5 -103t-43 -99t-73 -74.5t-110.5 -29.5q-83 0 -134 32.5t-80 80.5t-39.5 102.5t-12.5 99.5q-4 11 -11 16.5t-13.5 8.5t-11.5 5.5t-5 8.5t5 8t11.5 4t13.5 6.5
t12 15.5q0 38 7 81t21.5 85t37 80.5t54 68t72.5 47t93 17.5q70 0 115.5 -34.5t72.5 -87.5t37.5 -117t10.5 -124zM328 9q24 0 40.5 21t27.5 55t17 76t8.5 84.5t3 80.5t0.5 64q0 72 -3 132t-11 103.5t-23 67.5t-39 24q-26 0 -45 -18t-32.5 -47.5t-22.5 -67t-14.5 -76.5
t-7.5 -77t-2 -67q0 -27 1 -63.5t5 -76t11 -78t18.5 -69t28 -49.5t39.5 -19zM216 804q-8 0 -8 8v2q1 21 9 41.5t21.5 37t33 27t43.5 10.5q3 0 6 -0.5t6 -0.5q13 -1 28 -7t28.5 -13.5t26 -13.5t21.5 -6q8 0 15.5 3t13.5 8q8 6 13 14t10 17q2 5 5 5q6 0 6 -11q-1 -5 -3 -25
t-12 -42.5t-32 -40.5t-64 -18q-12 0 -27 6t-30.5 13.5t-30 13.5t-26.5 6q-21 0 -38 -18q-3 -3 -5.5 -6.5t-4.5 -6.5t-5 -3z" />
    <glyph glyph-name="Odieresis" unicode="&#xd6;" horiz-adv-x="644" 
d="M583 384q1 -18 7 -26.5t13.5 -13t13.5 -8t6 -9.5v-1q-1 -7 -7 -8t-13.5 -3t-15.5 -7.5t-12 -21.5q-7 -49 -21.5 -103t-43 -99t-73 -74.5t-110.5 -29.5q-83 0 -134 32.5t-80 80.5t-39.5 102.5t-12.5 99.5q-4 11 -11 16.5t-13.5 8.5t-11.5 5.5t-5 8.5t5 8t11.5 4t13.5 6.5
t12 15.5q0 38 7 81t21.5 85t37 80.5t54 68t72.5 47t93 17.5q70 0 115.5 -34.5t72.5 -87.5t37.5 -117t10.5 -124zM328 9q24 0 40.5 21t27.5 55t17 76t8.5 84.5t3 80.5t0.5 64q0 72 -3 132t-11 103.5t-23 67.5t-39 24q-26 0 -45 -18t-32.5 -47.5t-22.5 -67t-14.5 -76.5
t-7.5 -77t-2 -67q0 -27 1 -63.5t5 -76t11 -78t18.5 -69t28 -49.5t39.5 -19zM225 865q1 22 17.5 33.5t36.5 11.5q17 0 31.5 -10t14.5 -33q0 -29 -15 -42.5t-33 -13.5q-20 0 -36 13.5t-16 38.5v2zM367 864q0 23 18 35.5t38 12.5q17 0 30.5 -10t13.5 -31q0 -29 -16 -42.5
t-36 -13.5q-18 0 -33 12t-15 37z" />
    <glyph glyph-name="multiply" unicode="&#xd7;" horiz-adv-x="291" 
d="M256 277q5 -5 10 -12.5t5 -15.5t-6.5 -13t-14.5 -5q-7 0 -12.5 4.5t-10.5 10.5q-15 16 -36 36.5t-41 41.5l-50 -50t-51 -48q-5 -3 -8 -3q-8 0 -14.5 7t-6.5 16q0 7 6 15q8 10 34 37.5t56 59.5q-27 27 -45 46t-29 32t-15.5 20.5t-4.5 11.5q0 9 8 15t16 6q5 0 10 -3
t24.5 -23.5t54.5 -57.5l13 -14q23 25 42 43.5t27 25.5q14 13 29 13q8 0 15.5 -6t7.5 -16q0 -11 -7 -18q-8 -9 -29.5 -30.5t-50.5 -48.5l74 -77v0z" />
    <glyph glyph-name="Oslash" unicode="&#xd8;" horiz-adv-x="644" 
d="M583 384q1 -18 7 -26.5t13.5 -13t13.5 -8t6 -9.5v-1q-1 -7 -7 -8t-13.5 -3t-15.5 -7.5t-12 -21.5q-7 -49 -21.5 -103t-43 -99t-73 -74.5t-110.5 -29.5q-35 0 -64.5 6.5t-53.5 17.5q-5 -17 -13 -34t-13 -36q-1 -6 -8 -19.5t-23 -13.5q-11 0 -18 7t-7 19q0 5 1 10.5t3 10.5
q6 16 15 36.5t20 46.5q-31 25 -50.5 58t-31.5 68.5t-17 71.5t-6 66q-4 11 -11 16.5t-13.5 8.5t-11.5 5.5t-5 8.5t5 8t11.5 4t13.5 6.5t12 15.5q0 38 7 81t21.5 85t37 80.5t54 68t72.5 47t93 17.5q37 0 66.5 -10t53.5 -27q17 38 30.5 65t21.5 39q4 7 10 10t12 3q22 0 22 -14
q0 -3 -1 -6t-3 -7q-12 -26 -26.5 -57t-30.5 -66q25 -29 41 -65t25 -71.5t12.5 -67t3.5 -51.5q0 -6 -0.5 -14t-0.5 -24zM235 191q43 99 90.5 206t89.5 201q-8 56 -23 87.5t-43 31.5q-26 0 -45 -18t-32.5 -47.5t-22.5 -67t-14.5 -76.5t-7.5 -77t-2 -67q0 -32 2 -78.5t8 -94.5z
M328 9q24 0 40.5 21t27.5 55t17 76t8.5 84.5t3 80.5t0.5 64q0 29 -0.5 57t-1.5 54q-46 -104 -91.5 -208t-80.5 -188q12 -42 30.5 -69t46.5 -27z" />
    <glyph glyph-name="Ugrave" unicode="&#xd9;" horiz-adv-x="617" 
d="M562 766q1 3 4 3q6 0 11 -8.5t5 -14.5t-4.5 -10.5t-10.5 -7.5t-12 -4.5t-9 -1.5q-28 -1 -28 -27q0 -30 0.5 -63t1.5 -66.5t1.5 -65.5t0.5 -60q0 -16 -0.5 -30t-0.5 -26q0 -16 6.5 -24t14 -12.5t13.5 -7.5t6 -9q0 -8 -6 -9.5t-13.5 -3.5t-16 -8t-12.5 -22
q-6 -59 -17.5 -112.5t-31 -94.5t-47 -65.5t-66.5 -24.5q-60 0 -102.5 7.5t-71 25.5t-44 49t-21.5 78q-4 31 -6.5 64t-4.5 67q-3 18 -10.5 26.5t-15.5 12t-14 6t-6 9.5t6 9.5t13.5 5.5t15 10.5t9.5 25.5q0 73 2.5 146.5t2.5 154.5q-1 5 -1 10t-5 6h-19q-8 0 -11 11t-3 19
q0 5 1.5 10t9.5 5q2 0 3 -0.5t2 -0.5q24 -4 65.5 -6.5t83.5 -2.5q31 0 51.5 1.5t33 4t18.5 4t9 1.5q4 0 6 -2q3 -3 3 -16q0 -9 -3 -17.5t-12 -8.5q-28 0 -44.5 -6.5t-18.5 -33.5q-4 -48 -5 -103t-1 -112q0 -78 2 -154.5t5 -137.5q3 -67 18.5 -99t55.5 -32q41 0 65 32.5
t36 91t15.5 139.5t3.5 178t-6 225q0 5 -9.5 7.5t-19.5 2.5q-8 0 -12.5 -1.5t-7.5 -1.5q-6 0 -9.5 5.5t-3.5 11.5q0 9 5.5 16.5t9.5 7.5t25.5 1t46.5 3.5t47.5 7t27.5 12.5zM333 950q11 -29 28 -57.5t39 -61.5q5 -5 5 -13q0 -7 -4.5 -13t-12.5 -6q-5 0 -9 3.5t-6 5.5
q-29 32 -48.5 55.5t-35.5 47.5q-5 8 -9.5 15.5t-5.5 18.5q0 11 8 17.5t19 6.5q9 0 19 -4.5t13 -14.5z" />
    <glyph glyph-name="Uacute" unicode="&#xda;" horiz-adv-x="617" 
d="M562 766q1 3 4 3q6 0 11 -8.5t5 -14.5t-4.5 -10.5t-10.5 -7.5t-12 -4.5t-9 -1.5q-28 -1 -28 -27q0 -30 0.5 -63t1.5 -66.5t1.5 -65.5t0.5 -60q0 -16 -0.5 -30t-0.5 -26q0 -16 6.5 -24t14 -12.5t13.5 -7.5t6 -9q0 -8 -6 -9.5t-13.5 -3.5t-16 -8t-12.5 -22
q-6 -59 -17.5 -112.5t-31 -94.5t-47 -65.5t-66.5 -24.5q-60 0 -102.5 7.5t-71 25.5t-44 49t-21.5 78q-4 31 -6.5 64t-4.5 67q-3 18 -10.5 26.5t-15.5 12t-14 6t-6 9.5t6 9.5t13.5 5.5t15 10.5t9.5 25.5q0 73 2.5 146.5t2.5 154.5q-1 5 -1 10t-5 6h-19q-8 0 -11 11t-3 19
q0 5 1.5 10t9.5 5q2 0 3 -0.5t2 -0.5q24 -4 65.5 -6.5t83.5 -2.5q31 0 51.5 1.5t33 4t18.5 4t9 1.5q4 0 6 -2q3 -3 3 -16q0 -9 -3 -17.5t-12 -8.5q-28 0 -44.5 -6.5t-18.5 -33.5q-4 -48 -5 -103t-1 -112q0 -78 2 -154.5t5 -137.5q3 -67 18.5 -99t55.5 -32q41 0 65 32.5
t36 91t15.5 139.5t3.5 178t-6 225q0 5 -9.5 7.5t-19.5 2.5q-8 0 -12.5 -1.5t-7.5 -1.5q-6 0 -9.5 5.5t-3.5 11.5q0 9 5.5 16.5t9.5 7.5t25.5 1t46.5 3.5t47.5 7t27.5 12.5zM417 964q9 0 18 -5t9 -16t-4 -19t-10 -18q-3 -5 -16.5 -23t-29.5 -38t-31.5 -35.5t-22.5 -15.5
q-6 0 -11.5 5t-5.5 13q0 5 2 8.5t4 5.5q17 22 36 54.5t30 64.5q4 10 13.5 14.5t18.5 4.5z" />
    <glyph glyph-name="Ucircumflex" unicode="&#xdb;" horiz-adv-x="617" 
d="M562 766q1 3 4 3q6 0 11 -8.5t5 -14.5t-4.5 -10.5t-10.5 -7.5t-12 -4.5t-9 -1.5q-28 -1 -28 -27q0 -30 0.5 -63t1.5 -66.5t1.5 -65.5t0.5 -60q0 -16 -0.5 -30t-0.5 -26q0 -16 6.5 -24t14 -12.5t13.5 -7.5t6 -9q0 -8 -6 -9.5t-13.5 -3.5t-16 -8t-12.5 -22
q-6 -59 -17.5 -112.5t-31 -94.5t-47 -65.5t-66.5 -24.5q-60 0 -102.5 7.5t-71 25.5t-44 49t-21.5 78q-4 31 -6.5 64t-4.5 67q-3 18 -10.5 26.5t-15.5 12t-14 6t-6 9.5t6 9.5t13.5 5.5t15 10.5t9.5 25.5q0 73 2.5 146.5t2.5 154.5q-1 5 -1 10t-5 6h-19q-8 0 -11 11t-3 19
q0 5 1.5 10t9.5 5q2 0 3 -0.5t2 -0.5q24 -4 65.5 -6.5t83.5 -2.5q31 0 51.5 1.5t33 4t18.5 4t9 1.5q4 0 6 -2q3 -3 3 -16q0 -9 -3 -17.5t-12 -8.5q-28 0 -44.5 -6.5t-18.5 -33.5q-4 -48 -5 -103t-1 -112q0 -78 2 -154.5t5 -137.5q3 -67 18.5 -99t55.5 -32q41 0 65 32.5
t36 91t15.5 139.5t3.5 178t-6 225q0 5 -9.5 7.5t-19.5 2.5q-8 0 -12.5 -1.5t-7.5 -1.5q-6 0 -9.5 5.5t-3.5 11.5q0 9 5.5 16.5t9.5 7.5t25.5 1t46.5 3.5t47.5 7t27.5 12.5zM383 931q7 -9 18.5 -23.5t23 -30t20 -30t8.5 -23.5q0 -6 -5 -15t-13 -9q-4 0 -8 4q-17 18 -30.5 34
t-35.5 35q-13 -7 -23 -13.5t-20 -13.5t-22.5 -15t-29.5 -19q-6 -4 -12 -4q-5 0 -9.5 3.5t-4.5 12.5q0 8 5 13q24 24 50 46.5t54 49.5q10 7 17 7q8 0 17 -9z" />
    <glyph glyph-name="Udieresis" unicode="&#xdc;" horiz-adv-x="617" 
d="M562 766q1 3 4 3q6 0 11 -8.5t5 -14.5t-4.5 -10.5t-10.5 -7.5t-12 -4.5t-9 -1.5q-28 -1 -28 -27q0 -30 0.5 -63t1.5 -66.5t1.5 -65.5t0.5 -60q0 -16 -0.5 -30t-0.5 -26q0 -16 6.5 -24t14 -12.5t13.5 -7.5t6 -9q0 -8 -6 -9.5t-13.5 -3.5t-16 -8t-12.5 -22
q-6 -59 -17.5 -112.5t-31 -94.5t-47 -65.5t-66.5 -24.5q-60 0 -102.5 7.5t-71 25.5t-44 49t-21.5 78q-4 31 -6.5 64t-4.5 67q-3 18 -10.5 26.5t-15.5 12t-14 6t-6 9.5t6 9.5t13.5 5.5t15 10.5t9.5 25.5q0 73 2.5 146.5t2.5 154.5q-1 5 -1 10t-5 6h-19q-8 0 -11 11t-3 19
q0 5 1.5 10t9.5 5q2 0 3 -0.5t2 -0.5q24 -4 65.5 -6.5t83.5 -2.5q31 0 51.5 1.5t33 4t18.5 4t9 1.5q4 0 6 -2q3 -3 3 -16q0 -9 -3 -17.5t-12 -8.5q-28 0 -44.5 -6.5t-18.5 -33.5q-4 -48 -5 -103t-1 -112q0 -78 2 -154.5t5 -137.5q3 -67 18.5 -99t55.5 -32q41 0 65 32.5
t36 91t15.5 139.5t3.5 178t-6 225q0 5 -9.5 7.5t-19.5 2.5q-8 0 -12.5 -1.5t-7.5 -1.5q-6 0 -9.5 5.5t-3.5 11.5q0 9 5.5 16.5t9.5 7.5t25.5 1t46.5 3.5t47.5 7t27.5 12.5zM234 866q1 22 17.5 33.5t36.5 11.5q17 0 31.5 -10t14.5 -33q0 -29 -15 -42.5t-33 -13.5
q-20 0 -36 13.5t-16 38.5v2zM376 865q0 23 18 35.5t38 12.5q17 0 30.5 -10t13.5 -31q0 -29 -16 -42.5t-36 -13.5q-18 0 -33 12t-15 37z" />
    <glyph glyph-name="Yacute" unicode="&#xdd;" horiz-adv-x="582" 
d="M548 770q2 1 5 2t5 1q5 0 7 -4.5t2 -10.5q0 -4 -1 -14t-7 -10q-1 0 -2.5 0.5t-5.5 0.5q-5 0 -12 -1.5t-14 -4t-12 -5t-6 -5.5q-5 -9 -13.5 -35t-20 -61t-23.5 -74.5t-22.5 -75t-19 -63.5t-12.5 -39q4 -11 11 -16.5t13.5 -9t11 -6t4.5 -8.5q0 -7 -5.5 -8.5t-12.5 -3.5
t-14.5 -7t-12.5 -18q0 -32 1 -69.5t3 -71.5l3.5 -59.5t3.5 -34.5q2 -11 2.5 -16t11.5 -7q3 -1 10.5 -5.5t7.5 -15.5q0 -10 -6 -13t-14 -3q-4 0 -11 0.5t-32 0.5h-75q-19 0 -38.5 -1t-42.5 -1q-16 0 -16 17q0 7 3.5 13t10.5 7q10 2 11.5 4.5t3.5 10.5q2 13 2.5 33t0.5 45
q0 31 -1 62t-3 66q-2 22 -8.5 32t-14.5 15.5t-14 8t-6 9.5v1q0 5 3.5 7t9 3.5t11.5 3.5t12 8q-5 15 -17 46t-26.5 69t-31 78.5t-30 75.5t-23.5 59t-12 29q-5 12 -13.5 21t-17 15t-15 9t-7.5 4q-5 2 -8.5 9t-3.5 13q0 10 9 10q4 0 7.5 -1.5t5.5 -2.5q9 -4 28 -7t42.5 -4.5
t48.5 -2.5t46 -1q42 0 62 4.5t22 4.5q6 0 10 -5t4 -12q0 -5 -4 -7t-7 -3q-32 -10 -32 -22q0 -9 6 -25q5 -14 13.5 -39t19 -55.5t22 -63.5t21 -62.5t17.5 -52.5t11 -34q1 4 9 29t18.5 60.5t23 75.5t23.5 75.5t18 60t8 28.5v1q0 4 -4.5 7t-10.5 5t-11.5 3.5t-7.5 3.5
q-2 3 -4.5 9t-2.5 11q0 2 1.5 6t5.5 4q2 0 4.5 -1t4.5 -2q5 -2 15 -3t22 -1q20 0 40.5 2t28.5 5zM388 993q9 0 18 -5t9 -16t-4 -19t-10 -18q-3 -5 -16.5 -23t-29.5 -38t-31.5 -35.5t-22.5 -15.5q-6 0 -11.5 5t-5.5 13q0 5 2 8.5t4 5.5q17 22 36 54.5t30 64.5q4 10 13.5 14.5
t18.5 4.5z" />
    <glyph glyph-name="Thorn" unicode="&#xde;" horiz-adv-x="646" 
d="M290 608q32 1 54 3t40 4t35 3t40 1q49 0 83 -16t55 -41.5t30 -57t9 -61.5q0 -61 -27 -105t-71 -74.5t-99.5 -49t-111.5 -27.5q-11 0 -22 4t-11 18q0 6 2 7q50 11 85 37.5t57.5 63.5t32.5 82t10 94q0 29 -8 47t-21 28.5t-28.5 14.5t-31.5 4q-25 0 -44.5 -5t-21.5 -7
q-11 -6 -18 -12.5t-11 -23t-5.5 -48t-1.5 -88.5t1 -113t2.5 -103t2.5 -81.5t1 -48.5t5 -18.5t10 -4.5q13 0 17.5 -7t4.5 -15t-4.5 -10.5t-14.5 -2.5h-99h-68t-50 1q-5 0 -8.5 2.5t-3.5 5.5q0 11 7 17.5t9 6.5q14 1 18 4t4 20v35t-0.5 44t-0.5 62v89q-4 15 -11.5 22t-15 10.5
t-13 6t-5.5 8.5q0 7 6 9t14 5.5t15.5 11t9.5 27.5v138v70t-2 70v4q-2 26 -4.5 36.5t-14.5 10.5q-2 0 -5.5 -0.5t-8.5 -0.5q-6 0 -11 2t-5 9t5.5 13t10.5 7q51 0 110 0.5t132 0.5q8 -1 11 -6t3 -12q0 -17 -18 -17q-5 0 -11 0.5t-7 0.5q-10 0 -13.5 -11t-4.5 -22v-71z" />
    <glyph glyph-name="germandbls" unicode="&#xdf;" horiz-adv-x="676" 
d="M256 43q0 -14 2.5 -22t13.5 -8h3q4 0 5.5 -6.5t1.5 -11.5q0 -8 -10 -8q-11 1 -35 1.5t-54 0.5t-60 -2t-63 -2q-12 0 -12 9v1q1 7 11 12.5t18 8.5q14 5 14 25t3 63q1 18 2 36.5t2.5 40t3 48t4.5 60.5q-2 15 -9 22.5t-14 11.5t-12.5 7t-5.5 9v1q0 7 6 8.5l14 3.5t16 8.5
t12 23.5q3 49 6.5 94.5t6 82.5t4.5 62.5t2 34.5q1 9 2.5 17t1.5 15q0 15 -15 15q-3 0 -6 -0.5t-7 -0.5q-10 0 -18.5 6.5t-8.5 19.5q0 7 5 9t7 2q52 1 112.5 3t120.5 2q32 0 62 -1t57 -3q36 -3 66.5 -8.5t53 -19.5t35 -40.5t12.5 -71.5q0 -24 -7 -50.5t-23.5 -51.5
t-42.5 -48.5t-65 -41.5q54 -17 91.5 -41t61 -53t34 -61t10.5 -64q0 -50 -19.5 -89t-51 -65t-70 -39.5t-77.5 -13.5q-31 0 -60 9t-51 27.5t-35 46.5t-13 66q0 23 4.5 41t12.5 25q1 1 12.5 7.5t28 13.5t35 12.5t33.5 5.5q6 0 17 -2.5t11 -12.5q0 -6 -6 -12
q-35 -35 -50.5 -67.5t-15.5 -59.5q0 -41 21.5 -60t50.5 -19q45 0 73.5 33.5t28.5 83.5q0 30 -3 60t-18 61.5t-47 65t-90 72.5q-6 8 -13 17t-7 18q0 8 10 17q50 35 69.5 86t19.5 122q0 48 -26 64.5t-67 16.5q-34 0 -51.5 -16t-23.5 -48q-9 -51 -14 -110t-9 -116
q-1 -9 -2.5 -33.5t-4.5 -59t-6 -75.5t-5.5 -81t-4 -77t-1.5 -63z" />
    <glyph glyph-name="agrave" unicode="&#xe0;" 
d="M343 952q11 -29 28 -57.5t39 -61.5q5 -5 5 -13q0 -7 -4.5 -13t-12.5 -6q-5 0 -9 3.5t-6 5.5q-29 32 -48.5 55.5t-35.5 47.5q-5 8 -9.5 15.5t-5.5 18.5q0 11 8 17.5t19 6.5q9 0 19 -4.5t13 -14.5zM572 757q6 0 11 -4t5 -12t-4 -14t-8 -7q-21 -5 -28 -8t-8 -6
q-1 -5 -3.5 -27t-4.5 -54.5t-4 -71t-4 -76t-3.5 -69.5t-2.5 -51q3 -16 10 -23.5t14.5 -11.5t13.5 -6.5t6 -8.5q0 -8 -6.5 -9.5t-14 -4.5t-15 -10t-10.5 -25q0 -49 2.5 -101t5.5 -103q0 -5 1 -17t7 -12q2 0 4 0.5t6 0.5q5 0 13 -2.5t8 -16.5q0 -6 -3.5 -9.5t-8.5 -3.5t-24 3
t-71 3q-33 0 -67.5 -2t-66.5 -13q-10 0 -10 13q0 5 2 10.5t5 6.5q2 0 7.5 1.5t7.5 5.5q5 11 6 18.5t3 19.5q3 29 6.5 93.5t6.5 143.5h-44q-43 0 -82 0.5t-73 0.5q-2 -53 -6.5 -99.5t-9.5 -73.5q-4 -18 -14.5 -43.5t-24.5 -49t-29 -39.5t-27 -16q-10 0 -10 10q0 3 9 13.5
t14 25.5q13 39 18.5 101.5t9.5 134.5q-2 16 -9 23.5t-14.5 11.5t-13 6.5t-5.5 8.5v1q0 7 6 8.5t14 4t15.5 9t11.5 23.5q3 63 8 119.5t16 100.5q4 16 7 31.5t10 33.5t19.5 39.5t35.5 49.5q-13 -1 -29.5 -4.5t-32 -10.5t-27.5 -17.5t-16 -25.5q-1 -6 -7 -6q-4 0 -8.5 1.5
t-4.5 6.5q0 1 0.5 2t0.5 2q5 19 19 34.5t32.5 26.5t40 16.5t41.5 5.5q22 0 48 -4.5t59 -10t75.5 -10t96.5 -4.5q20 0 41.5 2t31.5 9q7 5 12.5 8.5t10.5 3.5zM246 683q-27 -27 -43 -67.5t-25.5 -88.5t-13.5 -100.5t-6 -103.5q54 0 104.5 1.5t94.5 3.5q2 45 2.5 90t0.5 87
q0 43 -1 81t-3.5 67t-6 46.5t-8.5 19.5q-11 4 -22 4q-21 0 -39 -12t-34 -28z" />
    <glyph glyph-name="aacute" unicode="&#xe1;" 
d="M423 978q9 0 18 -5t9 -16t-4 -19t-10 -18q-3 -5 -16.5 -23t-29.5 -38t-31.5 -35.5t-22.5 -15.5q-6 0 -11.5 5t-5.5 13q0 5 2 8.5t4 5.5q17 22 36 54.5t30 64.5q4 10 13.5 14.5t18.5 4.5zM572 757q6 0 11 -4t5 -12t-4 -14t-8 -7q-21 -5 -28 -8t-8 -6q-1 -5 -3.5 -27
t-4.5 -54.5t-4 -71t-4 -76t-3.5 -69.5t-2.5 -51q3 -16 10 -23.5t14.5 -11.5t13.5 -6.5t6 -8.5q0 -8 -6.5 -9.5t-14 -4.5t-15 -10t-10.5 -25q0 -49 2.5 -101t5.5 -103q0 -5 1 -17t7 -12q2 0 4 0.5t6 0.5q5 0 13 -2.5t8 -16.5q0 -6 -3.5 -9.5t-8.5 -3.5t-24 3t-71 3
q-33 0 -67.5 -2t-66.5 -13q-10 0 -10 13q0 5 2 10.5t5 6.5q2 0 7.5 1.5t7.5 5.5q5 11 6 18.5t3 19.5q3 29 6.5 93.5t6.5 143.5h-44q-43 0 -82 0.5t-73 0.5q-2 -53 -6.5 -99.5t-9.5 -73.5q-4 -18 -14.5 -43.5t-24.5 -49t-29 -39.5t-27 -16q-10 0 -10 10q0 3 9 13.5t14 25.5
q13 39 18.5 101.5t9.5 134.5q-2 16 -9 23.5t-14.5 11.5t-13 6.5t-5.5 8.5v1q0 7 6 8.5t14 4t15.5 9t11.5 23.5q3 63 8 119.5t16 100.5q4 16 7 31.5t10 33.5t19.5 39.5t35.5 49.5q-13 -1 -29.5 -4.5t-32 -10.5t-27.5 -17.5t-16 -25.5q-1 -6 -7 -6q-4 0 -8.5 1.5t-4.5 6.5
q0 1 0.5 2t0.5 2q5 19 19 34.5t32.5 26.5t40 16.5t41.5 5.5q22 0 48 -4.5t59 -10t75.5 -10t96.5 -4.5q20 0 41.5 2t31.5 9q7 5 12.5 8.5t10.5 3.5zM246 683q-27 -27 -43 -67.5t-25.5 -88.5t-13.5 -100.5t-6 -103.5q54 0 104.5 1.5t94.5 3.5q2 45 2.5 90t0.5 87q0 43 -1 81
t-3.5 67t-6 46.5t-8.5 19.5q-11 4 -22 4q-21 0 -39 -12t-34 -28z" />
    <glyph glyph-name="acircumflex" unicode="&#xe2;" 
d="M406 939q4 -8 12 -21.5t16.5 -27.5t16.5 -26t13 -17q12 -12 12 -27q0 -6 -4.5 -15t-12.5 -9q-6 0 -9 4q-19 17 -33.5 36.5t-33.5 41.5q-16 -7 -26.5 -13t-20.5 -12t-20.5 -13.5t-26.5 -16.5q-2 -1 -4.5 -3t-6.5 -2q-7 0 -11 5t-4 12q0 8 5 13q24 24 50 46.5t54 49.5
q4 3 7.5 5.5t8.5 2.5q7 0 11 -4t7 -9zM572 757q6 0 11 -4t5 -12t-4 -14t-8 -7q-21 -5 -28 -8t-8 -6q-1 -5 -3.5 -27t-4.5 -54.5t-4 -71t-4 -76t-3.5 -69.5t-2.5 -51q3 -16 10 -23.5t14.5 -11.5t13.5 -6.5t6 -8.5q0 -8 -6.5 -9.5t-14 -4.5t-15 -10t-10.5 -25q0 -49 2.5 -101
t5.5 -103q0 -5 1 -17t7 -12q2 0 4 0.5t6 0.5q5 0 13 -2.5t8 -16.5q0 -6 -3.5 -9.5t-8.5 -3.5t-24 3t-71 3q-33 0 -67.5 -2t-66.5 -13q-10 0 -10 13q0 5 2 10.5t5 6.5q2 0 7.5 1.5t7.5 5.5q5 11 6 18.5t3 19.5q3 29 6.5 93.5t6.5 143.5h-44q-43 0 -82 0.5t-73 0.5
q-2 -53 -6.5 -99.5t-9.5 -73.5q-4 -18 -14.5 -43.5t-24.5 -49t-29 -39.5t-27 -16q-10 0 -10 10q0 3 9 13.5t14 25.5q13 39 18.5 101.5t9.5 134.5q-2 16 -9 23.5t-14.5 11.5t-13 6.5t-5.5 8.5v1q0 7 6 8.5t14 4t15.5 9t11.5 23.5q3 63 8 119.5t16 100.5q4 16 7 31.5t10 33.5
t19.5 39.5t35.5 49.5q-13 -1 -29.5 -4.5t-32 -10.5t-27.5 -17.5t-16 -25.5q-1 -6 -7 -6q-4 0 -8.5 1.5t-4.5 6.5q0 1 0.5 2t0.5 2q5 19 19 34.5t32.5 26.5t40 16.5t41.5 5.5q22 0 48 -4.5t59 -10t75.5 -10t96.5 -4.5q20 0 41.5 2t31.5 9q7 5 12.5 8.5t10.5 3.5zM246 683
q-27 -27 -43 -67.5t-25.5 -88.5t-13.5 -100.5t-6 -103.5q54 0 104.5 1.5t94.5 3.5q2 45 2.5 90t0.5 87q0 43 -1 81t-3.5 67t-6 46.5t-8.5 19.5q-11 4 -22 4q-21 0 -39 -12t-34 -28z" />
    <glyph glyph-name="atilde" unicode="&#xe3;" 
d="M572 757q6 0 11 -4t5 -12t-4 -14t-8 -7q-21 -5 -28 -8t-8 -6q-1 -5 -3.5 -27t-4.5 -54.5t-4 -71t-4 -76t-3.5 -69.5t-2.5 -51q3 -16 10 -23.5t14.5 -11.5t13.5 -6.5t6 -8.5q0 -8 -6.5 -9.5t-14 -4.5t-15 -10t-10.5 -25q0 -49 2.5 -101t5.5 -103q0 -5 1 -17t7 -12
q2 0 4 0.5t6 0.5q5 0 13 -2.5t8 -16.5q0 -6 -3.5 -9.5t-8.5 -3.5t-24 3t-71 3q-33 0 -67.5 -2t-66.5 -13q-10 0 -10 13q0 5 2 10.5t5 6.5q2 0 7.5 1.5t7.5 5.5q5 11 6 18.5t3 19.5q3 29 6.5 93.5t6.5 143.5h-44q-43 0 -82 0.5t-73 0.5q-2 -53 -6.5 -99.5t-9.5 -73.5
q-4 -18 -14.5 -43.5t-24.5 -49t-29 -39.5t-27 -16q-10 0 -10 10q0 3 9 13.5t14 25.5q13 39 18.5 101.5t9.5 134.5q-2 16 -9 23.5t-14.5 11.5t-13 6.5t-5.5 8.5v1q0 7 6 8.5t14 4t15.5 9t11.5 23.5q3 63 8 119.5t16 100.5q4 16 7 31.5t10 33.5t19.5 39.5t35.5 49.5
q-13 -1 -29.5 -4.5t-32 -10.5t-27.5 -17.5t-16 -25.5q-1 -6 -7 -6q-4 0 -8.5 1.5t-4.5 6.5q0 1 0.5 2t0.5 2q5 19 19 34.5t32.5 26.5t40 16.5t41.5 5.5q22 0 48 -4.5t59 -10t75.5 -10t96.5 -4.5q20 0 41.5 2t31.5 9q7 5 12.5 8.5t10.5 3.5zM246 683q-27 -27 -43 -67.5
t-25.5 -88.5t-13.5 -100.5t-6 -103.5q54 0 104.5 1.5t94.5 3.5q2 45 2.5 90t0.5 87q0 43 -1 81t-3.5 67t-6 46.5t-8.5 19.5q-11 4 -22 4q-21 0 -39 -12t-34 -28zM235 808q-8 0 -8 8v2q1 21 9 41.5t21.5 37t33 27t43.5 10.5q3 0 6 -0.5t6 -0.5q13 -1 28 -7t28.5 -13.5
t26 -13.5t21.5 -6q8 0 15.5 3t13.5 8q8 6 13 14t10 17q2 5 5 5q6 0 6 -11q-1 -5 -3 -25t-12 -42.5t-32 -40.5t-64 -18q-12 0 -27 6t-30.5 13.5t-30 13.5t-26.5 6q-21 0 -38 -18q-3 -3 -5.5 -6.5t-4.5 -6.5t-5 -3z" />
    <glyph glyph-name="adieresis" unicode="&#xe4;" 
d="M245 881q1 22 17.5 33.5t36.5 11.5q17 0 31.5 -10t14.5 -33q0 -29 -15 -42.5t-33 -13.5q-20 0 -36 13.5t-16 38.5v2zM387 880q0 23 18 35.5t38 12.5q17 0 30.5 -10t13.5 -31q0 -29 -16 -42.5t-36 -13.5q-18 0 -33 12t-15 37zM572 757q6 0 11 -4t5 -12t-4 -14t-8 -7
q-21 -5 -28 -8t-8 -6q-1 -5 -3.5 -27t-4.5 -54.5t-4 -71t-4 -76t-3.5 -69.5t-2.5 -51q3 -16 10 -23.5t14.5 -11.5t13.5 -6.5t6 -8.5q0 -8 -6.5 -9.5t-14 -4.5t-15 -10t-10.5 -25q0 -49 2.5 -101t5.5 -103q0 -5 1 -17t7 -12q2 0 4 0.5t6 0.5q5 0 13 -2.5t8 -16.5
q0 -6 -3.5 -9.5t-8.5 -3.5t-24 3t-71 3q-33 0 -67.5 -2t-66.5 -13q-10 0 -10 13q0 5 2 10.5t5 6.5q2 0 7.5 1.5t7.5 5.5q5 11 6 18.5t3 19.5q3 29 6.5 93.5t6.5 143.5h-44q-43 0 -82 0.5t-73 0.5q-2 -53 -6.5 -99.5t-9.5 -73.5q-4 -18 -14.5 -43.5t-24.5 -49t-29 -39.5
t-27 -16q-10 0 -10 10q0 3 9 13.5t14 25.5q13 39 18.5 101.5t9.5 134.5q-2 16 -9 23.5t-14.5 11.5t-13 6.5t-5.5 8.5v1q0 7 6 8.5t14 4t15.5 9t11.5 23.5q3 63 8 119.5t16 100.5q4 16 7 31.5t10 33.5t19.5 39.5t35.5 49.5q-13 -1 -29.5 -4.5t-32 -10.5t-27.5 -17.5
t-16 -25.5q-1 -6 -7 -6q-4 0 -8.5 1.5t-4.5 6.5q0 1 0.5 2t0.5 2q5 19 19 34.5t32.5 26.5t40 16.5t41.5 5.5q22 0 48 -4.5t59 -10t75.5 -10t96.5 -4.5q20 0 41.5 2t31.5 9q7 5 12.5 8.5t10.5 3.5zM246 683q-27 -27 -43 -67.5t-25.5 -88.5t-13.5 -100.5t-6 -103.5
q54 0 104.5 1.5t94.5 3.5q2 45 2.5 90t0.5 87q0 43 -1 81t-3.5 67t-6 46.5t-8.5 19.5q-11 4 -22 4q-21 0 -39 -12t-34 -28z" />
    <glyph glyph-name="aring" unicode="&#xe5;" 
d="M354 975q44 0 63 -22t19 -50q0 -15 -5.5 -30t-15.5 -27t-25 -19.5t-33 -7.5q-37 0 -54 22.5t-17 51.5q0 15 4.5 29.5t13.5 26.5t21.5 19t28.5 7zM358 874q15 0 22.5 8.5t7.5 19.5t-7.5 19.5t-21.5 8.5q-15 0 -22.5 -8t-7.5 -19t7.5 -20t21.5 -9zM572 757q6 0 11 -4t5 -12
t-4 -14t-8 -7q-21 -5 -28 -8t-8 -6q-1 -5 -3.5 -27t-4.5 -54.5t-4 -71t-4 -76t-3.5 -69.5t-2.5 -51q3 -16 10 -23.5t14.5 -11.5t13.5 -6.5t6 -8.5q0 -8 -6.5 -9.5t-14 -4.5t-15 -10t-10.5 -25q0 -49 2.5 -101t5.5 -103q0 -5 1 -17t7 -12q2 0 4 0.5t6 0.5q5 0 13 -2.5
t8 -16.5q0 -6 -3.5 -9.5t-8.5 -3.5t-24 3t-71 3q-33 0 -67.5 -2t-66.5 -13q-10 0 -10 13q0 5 2 10.5t5 6.5q2 0 7.5 1.5t7.5 5.5q5 11 6 18.5t3 19.5q3 29 6.5 93.5t6.5 143.5h-44q-43 0 -82 0.5t-73 0.5q-2 -53 -6.5 -99.5t-9.5 -73.5q-4 -18 -14.5 -43.5t-24.5 -49
t-29 -39.5t-27 -16q-10 0 -10 10q0 3 9 13.5t14 25.5q13 39 18.5 101.5t9.5 134.5q-2 16 -9 23.5t-14.5 11.5t-13 6.5t-5.5 8.5v1q0 7 6 8.5t14 4t15.5 9t11.5 23.5q3 63 8 119.5t16 100.5q4 16 7 31.5t10 33.5t19.5 39.5t35.5 49.5q-13 -1 -29.5 -4.5t-32 -10.5
t-27.5 -17.5t-16 -25.5q-1 -6 -7 -6q-4 0 -8.5 1.5t-4.5 6.5q0 1 0.5 2t0.5 2q5 19 19 34.5t32.5 26.5t40 16.5t41.5 5.5q22 0 48 -4.5t59 -10t75.5 -10t96.5 -4.5q20 0 41.5 2t31.5 9q7 5 12.5 8.5t10.5 3.5zM246 683q-27 -27 -43 -67.5t-25.5 -88.5t-13.5 -100.5
t-6 -103.5q54 0 104.5 1.5t94.5 3.5q2 45 2.5 90t0.5 87q0 43 -1 81t-3.5 67t-6 46.5t-8.5 19.5q-11 4 -22 4q-21 0 -39 -12t-34 -28z" />
    <glyph glyph-name="ae" unicode="&#xe6;" horiz-adv-x="847" 
d="M357 297q-45 0 -98 0.5t-102 0.5q-2 -53 -6.5 -99.5t-9.5 -73.5q-4 -18 -14.5 -43.5t-24.5 -49t-29 -39.5t-27 -16q-10 0 -10 10q0 3 9 13.5t14 25.5q13 39 18.5 101.5t9.5 134.5q-2 16 -9 23.5t-14.5 11.5t-13 6.5t-5.5 8.5v1q0 7 6 8.5t14 4t15.5 9t11.5 23.5
q3 63 8 119.5t16 100.5q4 16 7 31.5t10 33.5t19.5 39.5t35.5 49.5q-13 -1 -29.5 -4.5t-32 -10.5t-27.5 -17.5t-16 -25.5q-1 -6 -7 -6q-4 0 -8.5 1.5t-4.5 6.5q0 1 0.5 2t0.5 2q5 19 19 34.5t32.5 26.5t40 16.5t41.5 5.5q21 0 67.5 -1.5t106.5 -3.5t126.5 -4.5t126.5 -4.5
t106.5 -3.5t67.5 -1.5q4 0 9 -2t5 -9q0 -2 -2 -8t-5 -13.5t-5.5 -15t-3.5 -13.5q-4 -16 -4.5 -36.5t-2.5 -34.5q-3 -20 -19 -20q-13 0 -16.5 6.5t-3.5 11.5q1 6 1 9.5v7.5q0 37 -22.5 60t-69.5 23q-12 0 -22 0.5l-20 1t-21.5 1t-26.5 0.5q-18 0 -26 -12t-9 -25
q-2 -15 -3.5 -42t-2 -62t-1 -76t-0.5 -84q42 0 78.5 0.5t53.5 0.5q14 0 25 8.5t19.5 19t14.5 19t10 8.5q3 0 4.5 -6t1.5 -14q0 -12 -1.5 -25.5t-1.5 -20.5t1.5 -23t1.5 -30q0 -10 -1.5 -16.5t-4.5 -6.5q-4 0 -10.5 9t-15.5 19.5t-19.5 19.5t-22.5 9q-33 0 -66 -1.5t-67 -3.5
q0 -44 0.5 -86.5t1 -80.5t1.5 -70t3 -53q1 -18 4.5 -30.5t13 -20t26 -11t44.5 -3.5q27 0 50.5 7t43.5 27q17 17 32.5 40t15.5 41q1 4 5.5 9t15.5 5q7 0 12.5 -2.5t5.5 -11.5q0 -7 -1 -12q-4 -18 -4.5 -42t-3 -45t-8 -36t-19.5 -15q-19 0 -47 1t-62 1q-49 0 -105 -1.5
t-106 -5.5t-89 -11.5t-55 -18.5q-1 -1 -3 -1q-11 0 -11 11q0 6 3 11q2 6 12 12.5t21.5 15.5t20.5 22.5t9 34.5q0 38 0.5 94t2.5 123v21zM158 323q44 0 99 0.5t100 2.5q1 60 2.5 121.5t3 112.5l2.5 85t1 38q0 15 -6.5 23t-14.5 11.5t-15.5 4.5t-10.5 1q-38 0 -64 -20.5
t-42.5 -54t-26 -76.5t-14.5 -87.5t-8 -86.5t-6 -75z" />
    <glyph glyph-name="ccedilla" unicode="&#xe7;" horiz-adv-x="502" 
d="M377 748q15 0 33.5 -5t34 -16t26 -30t10.5 -46q0 -11 -1.5 -23t-6.5 -26q-1 -3 -3 -6.5t-8 -3.5q-27 0 -33.5 8.5t-6.5 23.5v20q0 11 -2.5 22.5t-8 21t-15 15.5t-23.5 6q-41 0 -66.5 -35.5t-40.5 -90t-20.5 -120t-5.5 -125.5t6 -116.5t18 -100t29.5 -69.5t41.5 -26
q37 0 56.5 26.5t19.5 61.5q0 11 -0.5 21t-0.5 18q0 21 23 21q12 0 24 -5t12 -13q0 -17 -5.5 -45t-22.5 -55t-47.5 -47t-81.5 -20h-12l-16 -52q8 3 16 4t15 1q29 0 42 -15.5t13 -37.5q0 -15 -6 -30.5t-18 -28.5t-28.5 -21t-37.5 -8q-17 0 -34 5t-30 15q-9 6 -9 14q0 5 2.5 14
t7.5 9t12 -4q16 -10 33 -10q26 0 40 13t14 27q0 11 -10 20t-31 9q-11 0 -24 -3q-7 0 -9 4q-1 2 -1 5l28 73q-94 12 -141 82.5t-61 202.5q-3 17 -11 24.5t-15.5 11t-14 5.5t-6.5 9t5.5 9t12.5 4.5t14 8t10 19.5q-1 9 -1 18.5v19.5q0 82 23.5 146t65.5 107.5t100 66t127 22.5z
" />
    <glyph glyph-name="egrave" unicode="&#xe8;" horiz-adv-x="610" 
d="M561 744q4 0 9 -2t5 -9q0 -2 -2 -8t-5 -13.5t-5.5 -15t-3.5 -13.5q-4 -16 -4.5 -36.5t-2.5 -34.5q-3 -20 -19 -20q-13 0 -16.5 6.5t-3.5 11.5q1 6 1 9.5v7.5q0 37 -22.5 60t-69.5 23q-12 0 -22 0.5l-20 1t-21.5 1t-26.5 0.5q-18 0 -26 -12t-9 -25q-2 -15 -3.5 -42t-2 -62
t-1 -76t-0.5 -84q42 0 78.5 0.5t53.5 0.5q14 0 25 8.5t19.5 19t14.5 19t10 8.5q3 0 4.5 -6t1.5 -14q0 -12 -1.5 -25.5t-1.5 -20.5t1.5 -23t1.5 -30q0 -10 -1.5 -16.5t-4.5 -6.5q-4 0 -10.5 9t-15.5 19.5t-19.5 19.5t-22.5 9q-33 0 -66 -1.5t-67 -3.5q0 -44 0.5 -86.5
t1 -80.5t1.5 -70t3 -53q1 -18 4.5 -30.5t13 -20t26 -11t44.5 -3.5q27 0 50.5 7t43.5 27q17 17 32.5 40t15.5 41q1 4 5.5 9t15.5 5q7 0 12.5 -2.5t5.5 -11.5t-1.5 -33.5t-5.5 -50.5t-11 -46t-18 -20q-19 0 -47 1t-62 1q-49 0 -105 -1.5t-106 -5.5t-89 -11.5t-55 -18.5
q-1 -1 -3 -1q-11 0 -11 11q0 6 3 11q2 6 12 12.5t21.5 15.5t20.5 22.5t9 34.5q0 38 0.5 94t2.5 123q-3 16 -10 24t-14.5 12t-13.5 6.5t-6 8.5v1q0 7 6 9t14 5t15.5 10t10.5 26q1 63 2 117t2 94t2 64.5t1 29.5q0 15 -8 25.5t-18 18t-19 11.5t-11 5q-6 2 -9.5 9t-3.5 13
q0 3 2 7t7 4q4 0 7.5 -1.5t6.5 -2.5q13 -6 49.5 -10.5t85 -7.5t103 -5t103 -3t86 -1.5t51.5 -0.5zM299 952q11 -29 28 -57.5t39 -61.5q5 -5 5 -13q0 -7 -4.5 -13t-12.5 -6q-5 0 -9 3.5t-6 5.5q-29 32 -48.5 55.5t-35.5 47.5q-5 8 -9.5 15.5t-5.5 18.5q0 11 8 17.5t19 6.5
q9 0 19 -4.5t13 -14.5z" />
    <glyph glyph-name="eacute" unicode="&#xe9;" horiz-adv-x="610" 
d="M561 744q4 0 9 -2t5 -9q0 -2 -2 -8t-5 -13.5t-5.5 -15t-3.5 -13.5q-4 -16 -4.5 -36.5t-2.5 -34.5q-3 -20 -19 -20q-13 0 -16.5 6.5t-3.5 11.5q1 6 1 9.5v7.5q0 37 -22.5 60t-69.5 23q-12 0 -22 0.5l-20 1t-21.5 1t-26.5 0.5q-18 0 -26 -12t-9 -25q-2 -15 -3.5 -42t-2 -62
t-1 -76t-0.5 -84q42 0 78.5 0.5t53.5 0.5q14 0 25 8.5t19.5 19t14.5 19t10 8.5q3 0 4.5 -6t1.5 -14q0 -12 -1.5 -25.5t-1.5 -20.5t1.5 -23t1.5 -30q0 -10 -1.5 -16.5t-4.5 -6.5q-4 0 -10.5 9t-15.5 19.5t-19.5 19.5t-22.5 9q-33 0 -66 -1.5t-67 -3.5q0 -44 0.5 -86.5
t1 -80.5t1.5 -70t3 -53q1 -18 4.5 -30.5t13 -20t26 -11t44.5 -3.5q27 0 50.5 7t43.5 27q17 17 32.5 40t15.5 41q1 4 5.5 9t15.5 5q7 0 12.5 -2.5t5.5 -11.5t-1.5 -33.5t-5.5 -50.5t-11 -46t-18 -20q-19 0 -47 1t-62 1q-49 0 -105 -1.5t-106 -5.5t-89 -11.5t-55 -18.5
q-1 -1 -3 -1q-11 0 -11 11q0 6 3 11q2 6 12 12.5t21.5 15.5t20.5 22.5t9 34.5q0 38 0.5 94t2.5 123q-3 16 -10 24t-14.5 12t-13.5 6.5t-6 8.5v1q0 7 6 9t14 5t15.5 10t10.5 26q1 63 2 117t2 94t2 64.5t1 29.5q0 15 -8 25.5t-18 18t-19 11.5t-11 5q-6 2 -9.5 9t-3.5 13
q0 3 2 7t7 4q4 0 7.5 -1.5t6.5 -2.5q13 -6 49.5 -10.5t85 -7.5t103 -5t103 -3t86 -1.5t51.5 -0.5zM354 978q9 0 18 -5t9 -16t-4 -19t-10 -18q-3 -5 -16.5 -23t-29.5 -38t-31.5 -35.5t-22.5 -15.5q-6 0 -11.5 5t-5.5 13q0 5 2 8.5t4 5.5q17 22 36 54.5t30 64.5
q4 10 13.5 14.5t18.5 4.5z" />
    <glyph glyph-name="ecircumflex" unicode="&#xea;" horiz-adv-x="610" 
d="M561 744q4 0 9 -2t5 -9q0 -2 -2 -8t-5 -13.5t-5.5 -15t-3.5 -13.5q-4 -16 -4.5 -36.5t-2.5 -34.5q-3 -20 -19 -20q-13 0 -16.5 6.5t-3.5 11.5q1 6 1 9.5v7.5q0 37 -22.5 60t-69.5 23q-12 0 -22 0.5l-20 1t-21.5 1t-26.5 0.5q-18 0 -26 -12t-9 -25q-2 -15 -3.5 -42t-2 -62
t-1 -76t-0.5 -84q42 0 78.5 0.5t53.5 0.5q14 0 25 8.5t19.5 19t14.5 19t10 8.5q3 0 4.5 -6t1.5 -14q0 -12 -1.5 -25.5t-1.5 -20.5t1.5 -23t1.5 -30q0 -10 -1.5 -16.5t-4.5 -6.5q-4 0 -10.5 9t-15.5 19.5t-19.5 19.5t-22.5 9q-33 0 -66 -1.5t-67 -3.5q0 -44 0.5 -86.5
t1 -80.5t1.5 -70t3 -53q1 -18 4.5 -30.5t13 -20t26 -11t44.5 -3.5q27 0 50.5 7t43.5 27q17 17 32.5 40t15.5 41q1 4 5.5 9t15.5 5q7 0 12.5 -2.5t5.5 -11.5t-1.5 -33.5t-5.5 -50.5t-11 -46t-18 -20q-19 0 -47 1t-62 1q-49 0 -105 -1.5t-106 -5.5t-89 -11.5t-55 -18.5
q-1 -1 -3 -1q-11 0 -11 11q0 6 3 11q2 6 12 12.5t21.5 15.5t20.5 22.5t9 34.5q0 38 0.5 94t2.5 123q-3 16 -10 24t-14.5 12t-13.5 6.5t-6 8.5v1q0 7 6 9t14 5t15.5 10t10.5 26q1 63 2 117t2 94t2 64.5t1 29.5q0 15 -8 25.5t-18 18t-19 11.5t-11 5q-6 2 -9.5 9t-3.5 13
q0 3 2 7t7 4q4 0 7.5 -1.5t6.5 -2.5q13 -6 49.5 -10.5t85 -7.5t103 -5t103 -3t86 -1.5t51.5 -0.5zM359 943q7 -9 18.5 -23.5t23 -30t20 -30t8.5 -23.5q0 -6 -5 -15t-13 -9q-4 0 -8 4q-17 18 -30.5 34t-35.5 35q-13 -7 -23 -13.5t-20 -13.5t-22.5 -15t-29.5 -19q-6 -4 -12 -4
q-5 0 -9.5 3.5t-4.5 12.5q0 8 5 13q24 24 50 46.5t54 49.5q10 7 17 7q8 0 17 -9z" />
    <glyph glyph-name="edieresis" unicode="&#xeb;" horiz-adv-x="610" 
d="M561 744q4 0 9 -2t5 -9q0 -2 -2 -8t-5 -13.5t-5.5 -15t-3.5 -13.5q-4 -16 -4.5 -36.5t-2.5 -34.5q-3 -20 -19 -20q-13 0 -16.5 6.5t-3.5 11.5q1 6 1 9.5v7.5q0 37 -22.5 60t-69.5 23q-12 0 -22 0.5l-20 1t-21.5 1t-26.5 0.5q-18 0 -26 -12t-9 -25q-2 -15 -3.5 -42t-2 -62
t-1 -76t-0.5 -84q42 0 78.5 0.5t53.5 0.5q14 0 25 8.5t19.5 19t14.5 19t10 8.5q3 0 4.5 -6t1.5 -14q0 -12 -1.5 -25.5t-1.5 -20.5t1.5 -23t1.5 -30q0 -10 -1.5 -16.5t-4.5 -6.5q-4 0 -10.5 9t-15.5 19.5t-19.5 19.5t-22.5 9q-33 0 -66 -1.5t-67 -3.5q0 -44 0.5 -86.5
t1 -80.5t1.5 -70t3 -53q1 -18 4.5 -30.5t13 -20t26 -11t44.5 -3.5q27 0 50.5 7t43.5 27q17 17 32.5 40t15.5 41q1 4 5.5 9t15.5 5q7 0 12.5 -2.5t5.5 -11.5t-1.5 -33.5t-5.5 -50.5t-11 -46t-18 -20q-19 0 -47 1t-62 1q-49 0 -105 -1.5t-106 -5.5t-89 -11.5t-55 -18.5
q-1 -1 -3 -1q-11 0 -11 11q0 6 3 11q2 6 12 12.5t21.5 15.5t20.5 22.5t9 34.5q0 38 0.5 94t2.5 123q-3 16 -10 24t-14.5 12t-13.5 6.5t-6 8.5v1q0 7 6 9t14 5t15.5 10t10.5 26q1 63 2 117t2 94t2 64.5t1 29.5q0 15 -8 25.5t-18 18t-19 11.5t-11 5q-6 2 -9.5 9t-3.5 13
q0 3 2 7t7 4q4 0 7.5 -1.5t6.5 -2.5q13 -6 49.5 -10.5t85 -7.5t103 -5t103 -3t86 -1.5t51.5 -0.5zM184 876q1 22 17.5 33.5t36.5 11.5q17 0 31.5 -10t14.5 -33q0 -29 -15 -42.5t-33 -13.5q-20 0 -36 13.5t-16 38.5v2zM326 875q0 23 18 35.5t38 12.5q17 0 30.5 -10t13.5 -31
q0 -29 -16 -42.5t-36 -13.5q-18 0 -33 12t-15 37z" />
    <glyph glyph-name="igrave" unicode="&#xec;" horiz-adv-x="384" 
d="M309 738q8 -1 11.5 -5.5t3.5 -10.5q0 -14 -9 -21t-23 -7q-9 0 -13.5 -6.5t-6.5 -16t-2 -19.5v-17q-1 -17 -4.5 -83.5t-3.5 -183.5q3 -15 10.5 -22t15 -10.5t13.5 -6t6 -8.5q0 -8 -6.5 -9.5t-14.5 -5t-15 -11.5t-9 -29q1 -49 3 -106t4 -115q0 -11 2 -17t5 -8.5t7.5 -4
t9.5 -3.5q8 -4 11 -10.5t3 -11.5q0 -11 -13 -11q-13 1 -49 5.5t-76 4.5q-22 0 -36 -2t-24.5 -4t-19 -4t-18.5 -2q-11 0 -11 10q0 7 10.5 17.5t18.5 13.5q14 5 16 25t2 63q0 26 1 70.5t2 97.5q-3 18 -10 26t-15 12t-14 6.5t-6 9.5q0 8 7.5 9.5t16.5 5t16 13t7 33.5
q0 62 -0.5 124.5t-0.5 129.5q-2 25 -4.5 39.5t-14.5 14.5q-3 0 -7.5 2.5t-9.5 6.5t-9 9.5t-4 11.5q1 7 6 8.5t10 1.5q4 0 16.5 -1.5t30.5 -3.5t40 -3.5t46 -1.5q25 0 50 2.5t48 8.5zM196 932q11 -29 28 -57.5t39 -61.5q5 -5 5 -13q0 -7 -4.5 -13t-12.5 -6q-5 0 -9 3.5
t-6 5.5q-29 32 -48.5 55.5t-35.5 47.5q-5 8 -9.5 15.5t-5.5 18.5q0 11 8 17.5t19 6.5q9 0 19 -4.5t13 -14.5z" />
    <glyph glyph-name="iacute" unicode="&#xed;" horiz-adv-x="384" 
d="M309 738q8 -1 11.5 -5.5t3.5 -10.5q0 -14 -9 -21t-23 -7q-9 0 -13.5 -6.5t-6.5 -16t-2 -19.5v-17q-1 -17 -4.5 -83.5t-3.5 -183.5q3 -15 10.5 -22t15 -10.5t13.5 -6t6 -8.5q0 -8 -6.5 -9.5t-14.5 -5t-15 -11.5t-9 -29q1 -49 3 -106t4 -115q0 -11 2 -17t5 -8.5t7.5 -4
t9.5 -3.5q8 -4 11 -10.5t3 -11.5q0 -11 -13 -11q-13 1 -49 5.5t-76 4.5q-22 0 -36 -2t-24.5 -4t-19 -4t-18.5 -2q-11 0 -11 10q0 7 10.5 17.5t18.5 13.5q14 5 16 25t2 63q0 26 1 70.5t2 97.5q-3 18 -10 26t-15 12t-14 6.5t-6 9.5q0 8 7.5 9.5t16.5 5t16 13t7 33.5
q0 62 -0.5 124.5t-0.5 129.5q-2 25 -4.5 39.5t-14.5 14.5q-3 0 -7.5 2.5t-9.5 6.5t-9 9.5t-4 11.5q1 7 6 8.5t10 1.5q4 0 16.5 -1.5t30.5 -3.5t40 -3.5t46 -1.5q25 0 50 2.5t48 8.5zM253 959q9 0 18 -5t9 -16t-4 -19t-10 -18q-3 -5 -16.5 -23t-29.5 -38t-31.5 -35.5
t-22.5 -15.5q-6 0 -11.5 5t-5.5 13q0 5 2 8.5t4 5.5q17 22 36 54.5t30 64.5q4 10 13.5 14.5t18.5 4.5z" />
    <glyph glyph-name="icircumflex" unicode="&#xee;" horiz-adv-x="384" 
d="M309 738q8 -1 11.5 -5.5t3.5 -10.5q0 -14 -9 -21t-23 -7q-9 0 -13.5 -6.5t-6.5 -16t-2 -19.5v-17q-1 -17 -4.5 -83.5t-3.5 -183.5q3 -15 10.5 -22t15 -10.5t13.5 -6t6 -8.5q0 -8 -6.5 -9.5t-14.5 -5t-15 -11.5t-9 -29q1 -49 3 -106t4 -115q0 -11 2 -17t5 -8.5t7.5 -4
t9.5 -3.5q8 -4 11 -10.5t3 -11.5q0 -11 -13 -11q-13 1 -49 5.5t-76 4.5q-22 0 -36 -2t-24.5 -4t-19 -4t-18.5 -2q-11 0 -11 10q0 7 10.5 17.5t18.5 13.5q14 5 16 25t2 63q0 26 1 70.5t2 97.5q-3 18 -10 26t-15 12t-14 6.5t-6 9.5q0 8 7.5 9.5t16.5 5t16 13t7 33.5
q0 62 -0.5 124.5t-0.5 129.5q-2 25 -4.5 39.5t-14.5 14.5q-3 0 -7.5 2.5t-9.5 6.5t-9 9.5t-4 11.5q1 7 6 8.5t10 1.5q4 0 16.5 -1.5t30.5 -3.5t40 -3.5t46 -1.5q25 0 50 2.5t48 8.5zM233 922q7 -9 18.5 -23.5t23 -30t20 -30t8.5 -23.5q0 -6 -5 -15t-13 -9q-4 0 -8 4
q-17 18 -30.5 34t-35.5 35q-13 -7 -23 -13.5t-20 -13.5t-22.5 -15t-29.5 -19q-6 -4 -12 -4q-5 0 -9.5 3.5t-4.5 12.5q0 8 5 13q24 24 50 46.5t54 49.5q10 7 17 7q8 0 17 -9z" />
    <glyph glyph-name="idieresis" unicode="&#xef;" horiz-adv-x="384" 
d="M309 738q8 -1 11.5 -5.5t3.5 -10.5q0 -14 -9 -21t-23 -7q-9 0 -13.5 -6.5t-6.5 -16t-2 -19.5v-17q-1 -17 -4.5 -83.5t-3.5 -183.5q3 -15 10.5 -22t15 -10.5t13.5 -6t6 -8.5q0 -8 -6.5 -9.5t-14.5 -5t-15 -11.5t-9 -29q1 -49 3 -106t4 -115q0 -11 2 -17t5 -8.5t7.5 -4
t9.5 -3.5q8 -4 11 -10.5t3 -11.5q0 -11 -13 -11q-13 1 -49 5.5t-76 4.5q-22 0 -36 -2t-24.5 -4t-19 -4t-18.5 -2q-11 0 -11 10q0 7 10.5 17.5t18.5 13.5q14 5 16 25t2 63q0 26 1 70.5t2 97.5q-3 18 -10 26t-15 12t-14 6.5t-6 9.5q0 8 7.5 9.5t16.5 5t16 13t7 33.5
q0 62 -0.5 124.5t-0.5 129.5q-2 25 -4.5 39.5t-14.5 14.5q-3 0 -7.5 2.5t-9.5 6.5t-9 9.5t-4 11.5q1 7 6 8.5t10 1.5q4 0 16.5 -1.5t30.5 -3.5t40 -3.5t46 -1.5q25 0 50 2.5t48 8.5zM69 864q1 22 17.5 33.5t36.5 11.5q17 0 31.5 -10t14.5 -33q0 -29 -15 -42.5t-33 -13.5
q-20 0 -36 13.5t-16 38.5v2zM211 863q0 23 18 35.5t38 12.5q17 0 30.5 -10t13.5 -31q0 -29 -16 -42.5t-36 -13.5q-18 0 -33 12t-15 37z" />
    <glyph glyph-name="eth" unicode="&#xf0;" horiz-adv-x="658" 
d="M600 369q2 -14 8 -21t12.5 -11.5t11.5 -7.5t5 -9v-1q-1 -7 -7 -8t-13.5 -2t-15.5 -6t-14 -19q-12 -57 -40 -111t-79 -96t-129.5 -67.5t-192.5 -25.5h-24.5t-25.5 1q-9 0 -11.5 6.5t-2.5 14.5q0 9 2.5 31.5t5.5 57t7 80t7 98.5q-2 13 -6 20.5t-9 12.5q-8 0 -16.5 0.5
t-18.5 0.5q-8 0 -16 5t-8 15q0 11 8 18t20 7h40q4 5 7 12.5t5 19.5q2 42 3 83.5t1 81.5q0 37 -1.5 70.5t-3.5 64.5q-1 12 -5.5 20t-10.5 12.5t-13 7t-12 4.5q-2 1 -2 7q0 5 2 11t6 6h1q5 -1 18.5 -3t31.5 -4.5t39 -4t41 -1.5q37 0 73 6t77 6q85 0 135 -24t76 -60t33 -77
t7 -75q0 -35 -1.5 -70t-4.5 -76zM324 364q9 0 16 -5t7 -16q0 -20 -17.5 -26t-35.5 -6q-7 0 -17 -0.5t-23 -0.5q0 -52 1 -99.5t2 -85t2 -62t1 -30.5q0 -4 5 -4q2 0 12 2q65 23 103.5 71t59 108.5t27 128t6.5 130.5q0 76 -11 123.5t-29 73.5t-41 35t-47 9q-14 0 -27 -2t-25 -4
q-11 -2 -18.5 -33t-12 -79.5t-6.5 -109.5t-2 -124q25 2 40.5 4t29.5 2z" />
    <glyph glyph-name="ntilde" unicode="&#xf1;" horiz-adv-x="670" 
d="M573 148q0 -31 7 -52.5t16.5 -36.5t18.5 -26t14 -21v-1q0 -3 -3 -9t-8.5 -13t-12.5 -12t-14 -5q-65 0 -116.5 37.5t-93 93.5t-73.5 121.5t-56.5 121.5t-43.5 93.5t-34 37.5q-4 0 -5 -10.5t-1 -18.5q0 -13 1 -27t1 -35q0 -25 -0.5 -57t-1 -66.5t-1.5 -69t-1.5 -65t-1 -54
t-0.5 -35.5v-11q2 -7 13 -9.5t19 -4.5q2 -1 6 -6t4 -11q0 -12 -14 -12h-3q-24 3 -43 3q-46 0 -69 -17q-1 -1 -3 -1q-8 0 -8 9v3q2 7 9.5 12.5t16.5 14.5t16 22t9 35q0 4 0.5 22t1.5 45.5t1.5 63.5t1.5 76q-3 15 -10 22t-14.5 10.5t-13 6t-5.5 8.5v1q0 7 5.5 9t13 4.5
t14.5 8.5t11 21q0 21 0.5 41.5t0.5 40.5q0 44 -1 84.5t-2.5 72t-4.5 52t-6 26.5q-11 18 -27 26t-19 10q-5 2 -9.5 5t-4.5 10q0 5 1.5 9.5t8.5 4.5q102 0 176 -62q43 -36 77 -85t61 -103t48 -108t39 -99t33.5 -77t30.5 -41q1 53 4 112t5 120t4 122.5t2 121.5q0 19 -2.5 28
t-7.5 13t-11.5 4t-14.5 2q-5 1 -10 6.5t-5 14.5q0 5 2.5 11t9.5 6q19 0 40.5 -1.5t59.5 -1.5h21q5 0 6 -5.5t1 -10.5q0 -11 -4 -14q-5 -5 -14.5 -5.5t-15.5 -2.5q-9 -2 -12.5 -16.5t-3.5 -26.5q0 -57 -0.5 -119.5t-0.5 -148.5q0 -21 6.5 -31.5t15 -15.5t15 -7.5t6.5 -9.5v-1
q0 -7 -6 -8.5t-13.5 -4t-15 -8t-11.5 -21.5q-1 -37 -1.5 -69.5t-0.5 -55.5zM221 791q-8 0 -8 8v2q1 21 9 41.5t21.5 37t33 27t43.5 10.5q3 0 6 -0.5t6 -0.5q13 -1 28 -7t28.5 -13.5t26 -13.5t21.5 -6q8 0 15.5 3t13.5 8q8 6 13 14t10 17q2 5 5 5q6 0 6 -11q-1 -5 -3 -25
t-12 -42.5t-32 -40.5t-64 -18q-12 0 -27 6t-30.5 13.5t-30 13.5t-26.5 6q-21 0 -38 -18q-3 -3 -5.5 -6.5t-4.5 -6.5t-5 -3z" />
    <glyph glyph-name="ograve" unicode="&#xf2;" horiz-adv-x="646" 
d="M585 383q1 -17 7.5 -25.5t13.5 -13t13 -7.5t6 -9v-1q0 -5 -6.5 -7.5t-14.5 -6.5t-16 -11.5t-12 -20.5q-7 -49 -22 -102t-43.5 -97.5t-72.5 -73t-110 -28.5q-73 0 -120 28.5t-76 72t-43 96t-21 99.5q-3 21 -10.5 29.5t-16 12.5t-14.5 6t-6 9v1q0 7 6 8.5t13.5 4.5
t14.5 10.5t10 24.5q1 16 4 49t13 73.5t29 83.5t51 78.5t79.5 58t114.5 22.5q8 -2 8 -11q0 -7 -4.5 -13.5t-13.5 -6.5q-26 -4 -45 -24.5t-32.5 -51.5t-21.5 -68.5t-12.5 -75t-6 -72.5t-1.5 -60q0 -27 1 -63.5t5 -76t11 -78t18.5 -69t28 -49.5t39.5 -19t39 18.5t26.5 48.5
t17 68.5t9.5 77.5t4 76t1 65q0 88 -1.5 142.5t-6.5 84.5t-13.5 40.5t-23.5 10.5q-14 0 -37 -14q-1 -1 -3 -1q-5 0 -10 7t-5 16q0 11 8 16q25 17 45.5 22t39.5 5q46 0 77.5 -31.5t51 -75t28 -89.5t8.5 -76v-37zM343 931q11 -29 28 -57.5t39 -61.5q5 -5 5 -13q0 -7 -4.5 -13
t-12.5 -6q-5 0 -9 3.5t-6 5.5q-29 32 -48.5 55.5t-35.5 47.5q-5 8 -9.5 15.5t-5.5 18.5q0 11 8 17.5t19 6.5q9 0 19 -4.5t13 -14.5z" />
    <glyph glyph-name="oacute" unicode="&#xf3;" horiz-adv-x="646" 
d="M585 383q1 -17 7.5 -25.5t13.5 -13t13 -7.5t6 -9v-1q0 -5 -6.5 -7.5t-14.5 -6.5t-16 -11.5t-12 -20.5q-7 -49 -22 -102t-43.5 -97.5t-72.5 -73t-110 -28.5q-73 0 -120 28.5t-76 72t-43 96t-21 99.5q-3 21 -10.5 29.5t-16 12.5t-14.5 6t-6 9v1q0 7 6 8.5t13.5 4.5
t14.5 10.5t10 24.5q1 16 4 49t13 73.5t29 83.5t51 78.5t79.5 58t114.5 22.5q8 -2 8 -11q0 -7 -4.5 -13.5t-13.5 -6.5q-26 -4 -45 -24.5t-32.5 -51.5t-21.5 -68.5t-12.5 -75t-6 -72.5t-1.5 -60q0 -27 1 -63.5t5 -76t11 -78t18.5 -69t28 -49.5t39.5 -19t39 18.5t26.5 48.5
t17 68.5t9.5 77.5t4 76t1 65q0 88 -1.5 142.5t-6.5 84.5t-13.5 40.5t-23.5 10.5q-14 0 -37 -14q-1 -1 -3 -1q-5 0 -10 7t-5 16q0 11 8 16q25 17 45.5 22t39.5 5q46 0 77.5 -31.5t51 -75t28 -89.5t8.5 -76v-37zM416 962q9 0 18 -5t9 -16t-4 -19t-10 -18q-3 -5 -16.5 -23
t-29.5 -38t-31.5 -35.5t-22.5 -15.5q-6 0 -11.5 5t-5.5 13q0 5 2 8.5t4 5.5q17 22 36 54.5t30 64.5q4 10 13.5 14.5t18.5 4.5z" />
    <glyph glyph-name="ocircumflex" unicode="&#xf4;" horiz-adv-x="646" 
d="M585 383q1 -17 7.5 -25.5t13.5 -13t13 -7.5t6 -9v-1q0 -5 -6.5 -7.5t-14.5 -6.5t-16 -11.5t-12 -20.5q-7 -49 -22 -102t-43.5 -97.5t-72.5 -73t-110 -28.5q-73 0 -120 28.5t-76 72t-43 96t-21 99.5q-3 21 -10.5 29.5t-16 12.5t-14.5 6t-6 9v1q0 7 6 8.5t13.5 4.5
t14.5 10.5t10 24.5q1 16 4 49t13 73.5t29 83.5t51 78.5t79.5 58t114.5 22.5q8 -2 8 -11q0 -7 -4.5 -13.5t-13.5 -6.5q-26 -4 -45 -24.5t-32.5 -51.5t-21.5 -68.5t-12.5 -75t-6 -72.5t-1.5 -60q0 -27 1 -63.5t5 -76t11 -78t18.5 -69t28 -49.5t39.5 -19t39 18.5t26.5 48.5
t17 68.5t9.5 77.5t4 76t1 65q0 88 -1.5 142.5t-6.5 84.5t-13.5 40.5t-23.5 10.5q-14 0 -37 -14q-1 -1 -3 -1q-5 0 -10 7t-5 16q0 11 8 16q25 17 45.5 22t39.5 5q46 0 77.5 -31.5t51 -75t28 -89.5t8.5 -76v-37zM388 916q7 -9 18.5 -23.5t23 -30t20 -30t8.5 -23.5q0 -6 -5 -15
t-13 -9q-4 0 -8 4q-17 18 -30.5 34t-35.5 35q-13 -7 -23 -13.5t-20 -13.5t-22.5 -15t-29.5 -19q-6 -4 -12 -4q-5 0 -9.5 3.5t-4.5 12.5q0 8 5 13q24 24 50 46.5t54 49.5q10 7 17 7q8 0 17 -9z" />
    <glyph glyph-name="otilde" unicode="&#xf5;" horiz-adv-x="646" 
d="M585 383q1 -17 7.5 -25.5t13.5 -13t13 -7.5t6 -9v-1q0 -5 -6.5 -7.5t-14.5 -6.5t-16 -11.5t-12 -20.5q-7 -49 -22 -102t-43.5 -97.5t-72.5 -73t-110 -28.5q-73 0 -120 28.5t-76 72t-43 96t-21 99.5q-3 21 -10.5 29.5t-16 12.5t-14.5 6t-6 9v1q0 7 6 8.5t13.5 4.5
t14.5 10.5t10 24.5q1 16 4 49t13 73.5t29 83.5t51 78.5t79.5 58t114.5 22.5q8 -2 8 -11q0 -7 -4.5 -13.5t-13.5 -6.5q-26 -4 -45 -24.5t-32.5 -51.5t-21.5 -68.5t-12.5 -75t-6 -72.5t-1.5 -60q0 -27 1 -63.5t5 -76t11 -78t18.5 -69t28 -49.5t39.5 -19t39 18.5t26.5 48.5
t17 68.5t9.5 77.5t4 76t1 65q0 88 -1.5 142.5t-6.5 84.5t-13.5 40.5t-23.5 10.5q-14 0 -37 -14q-1 -1 -3 -1q-5 0 -10 7t-5 16q0 11 8 16q25 17 45.5 22t39.5 5q46 0 77.5 -31.5t51 -75t28 -89.5t8.5 -76v-37zM238 795q-8 0 -8 8v2q1 21 9 41.5t21.5 37t33 27t43.5 10.5
q3 0 6 -0.5t6 -0.5q13 -1 28 -7t28.5 -13.5t26 -13.5t21.5 -6q8 0 15.5 3t13.5 8q8 6 13 14t10 17q2 5 5 5q6 0 6 -11q-1 -5 -3 -25t-12 -42.5t-32 -40.5t-64 -18q-12 0 -27 6t-30.5 13.5t-30 13.5t-26.5 6q-21 0 -38 -18q-3 -3 -5.5 -6.5t-4.5 -6.5t-5 -3z" />
    <glyph glyph-name="odieresis" unicode="&#xf6;" horiz-adv-x="646" 
d="M585 383q1 -17 7.5 -25.5t13.5 -13t13 -7.5t6 -9v-1q0 -5 -6.5 -7.5t-14.5 -6.5t-16 -11.5t-12 -20.5q-7 -49 -22 -102t-43.5 -97.5t-72.5 -73t-110 -28.5q-73 0 -120 28.5t-76 72t-43 96t-21 99.5q-3 21 -10.5 29.5t-16 12.5t-14.5 6t-6 9v1q0 7 6 8.5t13.5 4.5
t14.5 10.5t10 24.5q1 16 4 49t13 73.5t29 83.5t51 78.5t79.5 58t114.5 22.5q8 -2 8 -11q0 -7 -4.5 -13.5t-13.5 -6.5q-26 -4 -45 -24.5t-32.5 -51.5t-21.5 -68.5t-12.5 -75t-6 -72.5t-1.5 -60q0 -27 1 -63.5t5 -76t11 -78t18.5 -69t28 -49.5t39.5 -19t39 18.5t26.5 48.5
t17 68.5t9.5 77.5t4 76t1 65q0 88 -1.5 142.5t-6.5 84.5t-13.5 40.5t-23.5 10.5q-14 0 -37 -14q-1 -1 -3 -1q-5 0 -10 7t-5 16q0 11 8 16q25 17 45.5 22t39.5 5q46 0 77.5 -31.5t51 -75t28 -89.5t8.5 -76v-37zM231 848q1 22 17.5 33.5t36.5 11.5q17 0 31.5 -10t14.5 -33
q0 -29 -15 -42.5t-33 -13.5q-20 0 -36 13.5t-16 38.5v2zM373 847q0 23 18 35.5t38 12.5q17 0 30.5 -10t13.5 -31q0 -29 -16 -42.5t-36 -13.5q-18 0 -33 12t-15 37z" />
    <glyph glyph-name="divide" unicode="&#xf7;" horiz-adv-x="471" 
d="M192 487q0 22 11.5 32t26.5 10q18 0 33.5 -13t15.5 -35q0 -20 -13 -30.5t-30 -10.5t-30.5 11.5t-13.5 35.5zM328 388q35 0 53.5 2t27 5t12 5t8.5 2q10 0 16 -10t6 -20q0 -20 -19 -25.5t-41 -5.5q-42 0 -83.5 1t-85.5 1q-41 0 -82 -2t-83 -8q-3 -1 -9 -1q-8 0 -18 5.5
t-10 17.5t11.5 18.5t29.5 10t38.5 4.5t38.5 1q42 0 87 -0.5t103 -0.5zM188 238q0 23 13 35t29 12q17 0 31 -13.5t14 -39.5q0 -19 -15 -31t-32 -12q-15 0 -27.5 11.5t-12.5 37.5z" />
    <glyph glyph-name="oslash" unicode="&#xf8;" horiz-adv-x="646" 
d="M585 383q1 -17 7.5 -25.5t13.5 -13t13 -7.5t6 -9v-1q0 -5 -6.5 -7.5t-14.5 -6.5t-16 -11.5t-12 -20.5q-7 -49 -22 -102t-43.5 -97.5t-72.5 -73t-110 -28.5q-47 0 -82 12t-62 32q-14 -36 -22.5 -59t-8.5 -31q-1 -6 -8 -19.5t-23 -13.5q-11 0 -18 7t-7 19q0 5 1 10.5
t3 10.5l47 111q-19 22 -32.5 49t-22.5 55.5t-15 57t-10 55.5q-3 21 -10.5 29.5t-16 12.5t-14.5 6t-6 9v1q0 7 6 8.5t13.5 4.5t14.5 10.5t10 24.5q1 16 4 49t13 73.5t29 83.5t51 78.5t79.5 58t114.5 22.5q8 -2 8 -11q0 -7 -4.5 -13.5t-13.5 -6.5q-26 -4 -45 -24.5
t-32.5 -51.5t-21.5 -68.5t-12.5 -75t-6 -72.5t-1.5 -60q0 -23 1 -51.5t3 -60.5q42 98 86.5 199t82.5 184q-8 6 -18 6q-14 0 -37 -14q-1 -1 -3 -1q-5 0 -10 7t-5 16q0 11 8 16q25 17 45.5 22t39.5 5q2 0 3 -0.5t3 -0.5q22 46 38 78t25 45q4 7 10 10t12 3q29 0 18 -27
q-26 -60 -54 -123q30 -18 51 -51t34 -70.5t19 -74.5t6 -61v-37zM422 560q-48 -108 -95 -211.5t-85 -190.5q5 -30 12.5 -57t18 -47.5t25 -32.5t32.5 -12q23 0 39 18.5t26.5 48.5t17 68.5t9.5 77.5t4 76t1 65q0 69 -1 117t-4 80z" />
    <glyph glyph-name="ugrave" unicode="&#xf9;" horiz-adv-x="594" 
d="M528 691q-4 0 -7.5 -3t-3.5 -14q0 -18 1 -63t1 -106v-58t-2 -61q3 -13 10 -19t14 -9.5l12 -6t5 -8.5q0 -7 -6 -9t-13.5 -4t-15 -8t-11.5 -22q-5 -56 -14 -108.5t-23 -95.5q-19 -56 -54.5 -87t-98.5 -31q-40 0 -76 8.5t-64 28t-46.5 50.5t-24.5 75q-5 38 -7.5 79.5
t-4.5 84.5q-4 13 -11.5 18.5t-14.5 8.5t-12.5 5.5t-5.5 8.5q0 7 5.5 9t13 5t14.5 9t10 21q0 73 2.5 145.5t2.5 148.5q0 9 -6 9h-9q-10 0 -12 11.5t-2 22.5t10 11q8 0 26 -2.5t60 -2.5q30 0 60 0.5t55 1.5q5 0 10.5 1.5t9.5 1.5q5 0 6 -5.5t1 -11.5q0 -9 -3 -17.5t-12 -8.5
q-16 0 -19.5 -6.5t-5.5 -33.5q-3 -46 -4.5 -97.5t-1.5 -105.5q0 -82 2.5 -161.5t5.5 -142.5q2 -37 6.5 -62t13 -40t20 -21.5t28.5 -6.5q15 0 26.5 7.5t20.5 19t15.5 26t12.5 28.5q22 55 32 138t10 204q0 53 -2 113t-5 129q-1 10 -10 10q-4 0 -7 -1.5t-8 -1.5t-8.5 6t-3.5 11
t4.5 14t14.5 9t33.5 -1.5t45.5 -1.5q8 0 15.5 1t17.5 1q8 0 10 -3.5t2 -5.5v-1q0 -14 -7 -20t-13 -7h-10zM322 940q11 -29 28 -57.5t39 -61.5q5 -5 5 -13q0 -7 -4.5 -13t-12.5 -6q-5 0 -9 3.5t-6 5.5q-29 32 -48.5 55.5t-35.5 47.5q-5 8 -9.5 15.5t-5.5 18.5q0 11 8 17.5
t19 6.5q9 0 19 -4.5t13 -14.5z" />
    <glyph glyph-name="uacute" unicode="&#xfa;" horiz-adv-x="594" 
d="M528 691q-4 0 -7.5 -3t-3.5 -14q0 -18 1 -63t1 -106v-58t-2 -61q3 -13 10 -19t14 -9.5l12 -6t5 -8.5q0 -7 -6 -9t-13.5 -4t-15 -8t-11.5 -22q-5 -56 -14 -108.5t-23 -95.5q-19 -56 -54.5 -87t-98.5 -31q-40 0 -76 8.5t-64 28t-46.5 50.5t-24.5 75q-5 38 -7.5 79.5
t-4.5 84.5q-4 13 -11.5 18.5t-14.5 8.5t-12.5 5.5t-5.5 8.5q0 7 5.5 9t13 5t14.5 9t10 21q0 73 2.5 145.5t2.5 148.5q0 9 -6 9h-9q-10 0 -12 11.5t-2 22.5t10 11q8 0 26 -2.5t60 -2.5q30 0 60 0.5t55 1.5q5 0 10.5 1.5t9.5 1.5q5 0 6 -5.5t1 -11.5q0 -9 -3 -17.5t-12 -8.5
q-16 0 -19.5 -6.5t-5.5 -33.5q-3 -46 -4.5 -97.5t-1.5 -105.5q0 -82 2.5 -161.5t5.5 -142.5q2 -37 6.5 -62t13 -40t20 -21.5t28.5 -6.5q15 0 26.5 7.5t20.5 19t15.5 26t12.5 28.5q22 55 32 138t10 204q0 53 -2 113t-5 129q-1 10 -10 10q-4 0 -7 -1.5t-8 -1.5t-8.5 6t-3.5 11
t4.5 14t14.5 9t33.5 -1.5t45.5 -1.5q8 0 15.5 1t17.5 1q8 0 10 -3.5t2 -5.5v-1q0 -14 -7 -20t-13 -7h-10zM392 952q9 0 18 -5t9 -16t-4 -19t-10 -18q-3 -5 -16.5 -23t-29.5 -38t-31.5 -35.5t-22.5 -15.5q-6 0 -11.5 5t-5.5 13q0 5 2 8.5t4 5.5q17 22 36 54.5t30 64.5
q4 10 13.5 14.5t18.5 4.5z" />
    <glyph glyph-name="ucircumflex" unicode="&#xfb;" horiz-adv-x="594" 
d="M528 691q-4 0 -7.5 -3t-3.5 -14q0 -18 1 -63t1 -106v-58t-2 -61q3 -13 10 -19t14 -9.5l12 -6t5 -8.5q0 -7 -6 -9t-13.5 -4t-15 -8t-11.5 -22q-5 -56 -14 -108.5t-23 -95.5q-19 -56 -54.5 -87t-98.5 -31q-40 0 -76 8.5t-64 28t-46.5 50.5t-24.5 75q-5 38 -7.5 79.5
t-4.5 84.5q-4 13 -11.5 18.5t-14.5 8.5t-12.5 5.5t-5.5 8.5q0 7 5.5 9t13 5t14.5 9t10 21q0 73 2.5 145.5t2.5 148.5q0 9 -6 9h-9q-10 0 -12 11.5t-2 22.5t10 11q8 0 26 -2.5t60 -2.5q30 0 60 0.5t55 1.5q5 0 10.5 1.5t9.5 1.5q5 0 6 -5.5t1 -11.5q0 -9 -3 -17.5t-12 -8.5
q-16 0 -19.5 -6.5t-5.5 -33.5q-3 -46 -4.5 -97.5t-1.5 -105.5q0 -82 2.5 -161.5t5.5 -142.5q2 -37 6.5 -62t13 -40t20 -21.5t28.5 -6.5q15 0 26.5 7.5t20.5 19t15.5 26t12.5 28.5q22 55 32 138t10 204q0 53 -2 113t-5 129q-1 10 -10 10q-4 0 -7 -1.5t-8 -1.5t-8.5 6t-3.5 11
t4.5 14t14.5 9t33.5 -1.5t45.5 -1.5q8 0 15.5 1t17.5 1q8 0 10 -3.5t2 -5.5v-1q0 -14 -7 -20t-13 -7h-10zM388 933q7 -9 18.5 -23.5t23 -30t20 -30t8.5 -23.5q0 -6 -5 -15t-13 -9q-4 0 -8 4q-17 18 -30.5 34t-35.5 35q-13 -7 -23 -13.5t-20 -13.5t-22.5 -15t-29.5 -19
q-6 -4 -12 -4q-5 0 -9.5 3.5t-4.5 12.5q0 8 5 13q24 24 50 46.5t54 49.5q10 7 17 7q8 0 17 -9z" />
    <glyph glyph-name="udieresis" unicode="&#xfc;" horiz-adv-x="594" 
d="M528 691q-4 0 -7.5 -3t-3.5 -14q0 -18 1 -63t1 -106v-58t-2 -61q3 -13 10 -19t14 -9.5l12 -6t5 -8.5q0 -7 -6 -9t-13.5 -4t-15 -8t-11.5 -22q-5 -56 -14 -108.5t-23 -95.5q-19 -56 -54.5 -87t-98.5 -31q-40 0 -76 8.5t-64 28t-46.5 50.5t-24.5 75q-5 38 -7.5 79.5
t-4.5 84.5q-4 13 -11.5 18.5t-14.5 8.5t-12.5 5.5t-5.5 8.5q0 7 5.5 9t13 5t14.5 9t10 21q0 73 2.5 145.5t2.5 148.5q0 9 -6 9h-9q-10 0 -12 11.5t-2 22.5t10 11q8 0 26 -2.5t60 -2.5q30 0 60 0.5t55 1.5q5 0 10.5 1.5t9.5 1.5q5 0 6 -5.5t1 -11.5q0 -9 -3 -17.5t-12 -8.5
q-16 0 -19.5 -6.5t-5.5 -33.5q-3 -46 -4.5 -97.5t-1.5 -105.5q0 -82 2.5 -161.5t5.5 -142.5q2 -37 6.5 -62t13 -40t20 -21.5t28.5 -6.5q15 0 26.5 7.5t20.5 19t15.5 26t12.5 28.5q22 55 32 138t10 204q0 53 -2 113t-5 129q-1 10 -10 10q-4 0 -7 -1.5t-8 -1.5t-8.5 6t-3.5 11
t4.5 14t14.5 9t33.5 -1.5t45.5 -1.5q8 0 15.5 1t17.5 1q8 0 10 -3.5t2 -5.5v-1q0 -14 -7 -20t-13 -7h-10zM229 858q1 22 17.5 33.5t36.5 11.5q17 0 31.5 -10t14.5 -33q0 -29 -15 -42.5t-33 -13.5q-20 0 -36 13.5t-16 38.5v2zM371 857q0 23 18 35.5t38 12.5q17 0 30.5 -10
t13.5 -31q0 -29 -16 -42.5t-36 -13.5q-18 0 -33 12t-15 37z" />
    <glyph glyph-name="yacute" unicode="&#xfd;" horiz-adv-x="577" 
d="M543 764q2 1 4.5 2t4.5 1q5 0 7 -5.5t2 -10.5t-0.5 -9.5t-0.5 -7.5q-1 -6 -7 -6q-2 0 -4.5 0.5t-4.5 0.5q-11 0 -25.5 -6t-17.5 -11q-4 -9 -14 -34.5t-23 -59.5t-27 -72.5t-27 -73.5t-22.5 -62t-13.5 -38q0 -8 6 -13.5t13.5 -10t13.5 -8.5t6 -8q0 -8 -5.5 -9.5t-13 -4
t-15.5 -8.5t-12 -23q-1 -19 -1 -39.5v-41.5q0 -25 0.5 -49t1 -43.5t1 -33.5t1.5 -20q2 -11 2.5 -16t11.5 -7q3 -1 10.5 -5.5t7.5 -15.5q0 -10 -6 -13t-14 -3h-5t-13.5 0.5t-30.5 0.5h-55q-26 0 -51 -0.5t-43 -2.5q-7 0 -12 4.5t-5 13.5q0 7 3.5 12.5t10.5 7.5q10 1 12 5t3 9
q1 14 2 37t2 50t1.5 55.5t0.5 54.5v30q-3 13 -10 19.5t-13.5 10.5t-12 7t-5.5 9q0 5 4 7t9.5 3.5t11.5 3.5t12 8q-5 15 -17.5 45.5t-27.5 67.5t-31.5 76.5t-30 73t-23 57t-10.5 29.5q-2 8 -8.5 11t-14 6t-13.5 7t-6 15q0 5 3.5 8t17.5 3q19 0 47.5 2t59 5t59 6t46.5 5
q5 1 8.5 2t6.5 1q6 0 10 -5.5t4 -12.5q0 -8 -4.5 -13t-7.5 -6q-15 -5 -23 -8.5t-8 -13.5q0 -9 6 -25l12 -33t18 -49t20.5 -56t20 -55t16.5 -46.5t10 -29.5q5 -20 7 -20q1 0 1.5 2.5t0.5 4.5q1 4 10 28t21.5 58t27 72.5t26.5 72.5t20.5 57.5t8.5 26.5v1q0 4 -4.5 7t-10 5
t-11 3.5t-7.5 3.5t-4.5 7.5t-2.5 10.5q0 3 1 7t6 4q3 0 8 -3q5 -2 14.5 -3t21.5 -1q20 0 41 2.5t30 5.5zM395 988q9 0 18 -5t9 -16t-4 -19t-10 -18q-3 -5 -16.5 -23t-29.5 -38t-31.5 -35.5t-22.5 -15.5q-6 0 -11.5 5t-5.5 13q0 5 2 8.5t4 5.5q17 22 36 54.5t30 64.5
q4 10 13.5 14.5t18.5 4.5z" />
    <glyph glyph-name="thorn" unicode="&#xfe;" horiz-adv-x="646" 
d="M297 57q0 -12 8 -20.5t11 -8.5q8 0 15.5 -5.5t7.5 -15.5q0 -14 -20 -14q-16 0 -33 1t-40 1q-24 0 -50.5 -1t-51 -4.5t-43.5 -9.5t-28 -16q-2 -2 -3 -2q-4 0 -6.5 4t-2.5 9q0 3 0.5 5.5t0.5 4.5q1 7 11.5 13t21.5 15t20.5 22.5t9.5 34.5q0 50 0.5 101t2.5 113
q-3 16 -10 23.5t-14.5 11t-13 6.5t-5.5 9q0 7 6 9t13.5 4t15 8t10.5 22q1 52 2.5 102.5t2.5 90t1.5 65.5t0.5 30q0 15 -8 25.5t-17.5 18t-18.5 11.5t-11 5q-6 2 -9.5 9t-3.5 14q0 10 9 10q4 0 7.5 -1.5t5.5 -2.5q20 -9 44.5 -12.5t52.5 -3.5q37 0 74.5 3.5t67.5 4.5
q8 -1 11 -6t3 -12q0 -17 -18 -17q-5 0 -11 0.5t-7 0.5q-10 0 -13.5 -11t-4.5 -22v-71q59 2 105.5 6t65.5 4q44 0 77 -12.5t54.5 -34t32.5 -50.5t11 -61q0 -47 -22 -95.5t-65 -88.5t-107 -65.5t-148 -25.5l-1 4q2 -48 3 -83t1 -49zM290 575v-144t1 -95.5t1.5 -65t2.5 -53.5
q51 6 86.5 33.5t57 67t31 87.5t9.5 94q0 25 -8 41.5t-22 26t-32.5 13t-39.5 3.5q-22 0 -43 -3t-44 -5z" />
    <glyph glyph-name="ydieresis" unicode="&#xff;" horiz-adv-x="577" 
d="M543 764q2 1 4.5 2t4.5 1q5 0 7 -5.5t2 -10.5t-0.5 -9.5t-0.5 -7.5q-1 -6 -7 -6q-2 0 -4.5 0.5t-4.5 0.5q-11 0 -25.5 -6t-17.5 -11q-4 -9 -14 -34.5t-23 -59.5t-27 -72.5t-27 -73.5t-22.5 -62t-13.5 -38q0 -8 6 -13.5t13.5 -10t13.5 -8.5t6 -8q0 -8 -5.5 -9.5t-13 -4
t-15.5 -8.5t-12 -23q-1 -19 -1 -39.5v-41.5q0 -25 0.5 -49t1 -43.5t1 -33.5t1.5 -20q2 -11 2.5 -16t11.5 -7q3 -1 10.5 -5.5t7.5 -15.5q0 -10 -6 -13t-14 -3h-5t-13.5 0.5t-30.5 0.5h-55q-26 0 -51 -0.5t-43 -2.5q-7 0 -12 4.5t-5 13.5q0 7 3.5 12.5t10.5 7.5q10 1 12 5t3 9
q1 14 2 37t2 50t1.5 55.5t0.5 54.5v30q-3 13 -10 19.5t-13.5 10.5t-12 7t-5.5 9q0 5 4 7t9.5 3.5t11.5 3.5t12 8q-5 15 -17.5 45.5t-27.5 67.5t-31.5 76.5t-30 73t-23 57t-10.5 29.5q-2 8 -8.5 11t-14 6t-13.5 7t-6 15q0 5 3.5 8t17.5 3q19 0 47.5 2t59 5t59 6t46.5 5
q5 1 8.5 2t6.5 1q6 0 10 -5.5t4 -12.5q0 -8 -4.5 -13t-7.5 -6q-15 -5 -23 -8.5t-8 -13.5q0 -9 6 -25l12 -33t18 -49t20.5 -56t20 -55t16.5 -46.5t10 -29.5q5 -20 7 -20q1 0 1.5 2.5t0.5 4.5q1 4 10 28t21.5 58t27 72.5t26.5 72.5t20.5 57.5t8.5 26.5v1q0 4 -4.5 7t-10 5
t-11 3.5t-7.5 3.5t-4.5 7.5t-2.5 10.5q0 3 1 7t6 4q3 0 8 -3q5 -2 14.5 -3t21.5 -1q20 0 41 2.5t30 5.5zM199 868q1 22 17.5 33.5t36.5 11.5q17 0 31.5 -10t14.5 -33q0 -29 -15 -42.5t-33 -13.5q-20 0 -36 13.5t-16 38.5v2zM341 867q0 23 18 35.5t38 12.5q17 0 30.5 -10
t13.5 -31q0 -29 -16 -42.5t-36 -13.5q-18 0 -33 12t-15 37z" />
    <glyph glyph-name="Amacron" unicode="&#x100;" horiz-adv-x="667" 
d="M640 57q7 0 7 -8q0 -6 -4 -15t-11.5 -17t-17.5 -14t-22 -6h-153q-23 0 -44.5 -4t-42.5 -15q-2 -2 -5.5 -3.5t-6.5 -1.5q-6 0 -9 7t-3 13q0 9 17 16q25 9 37 23.5t14 34.5q0 28 -6.5 86t-16.5 132q-19 1 -37.5 1.5t-38.5 0.5q-28 0 -54 -1t-49 -3q-8 -35 -15 -66t-12 -56
t-8.5 -43t-4.5 -25q0 -8 -2.5 -17t-2.5 -19q0 -14 7.5 -21.5t30.5 -8.5q4 -1 5.5 -8.5t1.5 -10.5v-2q0 -6 -7 -6q-42 0 -70 -1.5t-46.5 -3t-29 -2.5t-16.5 -1q-5 0 -5 5q0 8 9 15.5t17 10.5q18 7 29 23.5t16 33.5q8 26 18 72t23 108q0 15 -5 23.5t-11.5 14t-11.5 9t-5 8.5v2
q1 7 8 7.5t15.5 2t17.5 7.5t15 26q12 55 22.5 111t19 104.5t13.5 87t5 59.5q0 6 0.5 10.5t1.5 8.5q-19 0 -37 -6t-32.5 -18t-23.5 -29t-9 -39v-4q0 -2 -3.5 -4t-8.5 -2q-9 0 -15.5 7.5t-6.5 17.5q0 3 0.5 6t1.5 7q16 58 57 78.5t108 20.5q51 0 105 -5.5t96 -5.5q19 0 37.5 3
t34.5 18q4 3 8 3q7 0 9 -6.5t2 -12.5q0 -7 -2 -12.5t-5 -6.5q-21 -6 -27.5 -9.5t-8.5 -5.5q-5 -3 -5 -34q0 -24 3 -62t8 -84.5t11.5 -99t14.5 -104.5q6 -15 14 -21t16 -8.5t14 -4.5t7 -8v-1q0 -6 -5 -8.5l-12 -6t-13 -10t-7 -21.5q6 -43 12.5 -81.5t11.5 -69t9.5 -52.5
t6.5 -31q2 0 3.5 -0.5t3.5 -0.5q10 0 17.5 4.5t13 10l10 10t9.5 4.5zM200 314q32 2 72 3t85 1h12q-10 71 -20 145t-19 134q-11 70 -20 137q-3 0 -7 -0.5t-9 -0.5zM460 886q5 0 9.5 -5t4.5 -16q0 -20 -11 -26t-22 -6q-7 0 -31 1t-54 1.5t-60.5 1.5t-49.5 1q-6 0 -12 0.5
t-12 0.5q-5 0 -10.5 5t-5.5 15q0 11 5 18t13 7q95 0 156 1t80 1z" />
    <glyph glyph-name="amacron" unicode="&#x101;" 
d="M572 757q6 0 11 -4t5 -12t-4 -14t-8 -7q-21 -5 -28 -8t-8 -6q-1 -5 -3.5 -27t-4.5 -54.5t-4 -71t-4 -76t-3.5 -69.5t-2.5 -51q3 -16 10 -23.5t14.5 -11.5t13.5 -6.5t6 -8.5q0 -8 -6.5 -9.5t-14 -4.5t-15 -10t-10.5 -25q0 -49 2.5 -101t5.5 -103q0 -5 1 -17t7 -12
q2 0 4 0.5t6 0.5q5 0 13 -2.5t8 -16.5q0 -6 -3.5 -9.5t-8.5 -3.5t-24 3t-71 3q-33 0 -67.5 -2t-66.5 -13q-10 0 -10 13q0 5 2 10.5t5 6.5q2 0 7.5 1.5t7.5 5.5q5 11 6 18.5t3 19.5q3 29 6.5 93.5t6.5 143.5h-44q-43 0 -82 0.5t-73 0.5q-2 -53 -6.5 -99.5t-9.5 -73.5
q-4 -18 -14.5 -43.5t-24.5 -49t-29 -39.5t-27 -16q-10 0 -10 10q0 3 9 13.5t14 25.5q13 39 18.5 101.5t9.5 134.5q-2 16 -9 23.5t-14.5 11.5t-13 6.5t-5.5 8.5v1q0 7 6 8.5t14 4t15.5 9t11.5 23.5q3 63 8 119.5t16 100.5q4 16 7 31.5t10 33.5t19.5 39.5t35.5 49.5
q-13 -1 -29.5 -4.5t-32 -10.5t-27.5 -17.5t-16 -25.5q-1 -6 -7 -6q-4 0 -8.5 1.5t-4.5 6.5q0 1 0.5 2t0.5 2q5 19 19 34.5t32.5 26.5t40 16.5t41.5 5.5q22 0 48 -4.5t59 -10t75.5 -10t96.5 -4.5q20 0 41.5 2t31.5 9q7 5 12.5 8.5t10.5 3.5zM246 683q-27 -27 -43 -67.5
t-25.5 -88.5t-13.5 -100.5t-6 -103.5q54 0 104.5 1.5t94.5 3.5q2 45 2.5 90t0.5 87q0 43 -1 81t-3.5 67t-6 46.5t-8.5 19.5q-11 4 -22 4q-21 0 -39 -12t-34 -28zM479 884q5 0 9.5 -5t4.5 -16q0 -20 -11 -26t-22 -6q-7 0 -31 1t-54 1.5t-60.5 1.5t-49.5 1q-6 0 -12 0.5
t-12 0.5q-5 0 -10.5 5t-5.5 15q0 11 5 18t13 7q95 0 156 1t80 1z" />
    <glyph glyph-name="Abreve" unicode="&#x102;" horiz-adv-x="667" 
d="M640 57q7 0 7 -8q0 -6 -4 -15t-11.5 -17t-17.5 -14t-22 -6h-153q-23 0 -44.5 -4t-42.5 -15q-2 -2 -5.5 -3.5t-6.5 -1.5q-6 0 -9 7t-3 13q0 9 17 16q25 9 37 23.5t14 34.5q0 28 -6.5 86t-16.5 132q-19 1 -37.5 1.5t-38.5 0.5q-28 0 -54 -1t-49 -3q-8 -35 -15 -66t-12 -56
t-8.5 -43t-4.5 -25q0 -8 -2.5 -17t-2.5 -19q0 -14 7.5 -21.5t30.5 -8.5q4 -1 5.5 -8.5t1.5 -10.5v-2q0 -6 -7 -6q-42 0 -70 -1.5t-46.5 -3t-29 -2.5t-16.5 -1q-5 0 -5 5q0 8 9 15.5t17 10.5q18 7 29 23.5t16 33.5q8 26 18 72t23 108q0 15 -5 23.5t-11.5 14t-11.5 9t-5 8.5v2
q1 7 8 7.5t15.5 2t17.5 7.5t15 26q12 55 22.5 111t19 104.5t13.5 87t5 59.5q0 6 0.5 10.5t1.5 8.5q-19 0 -37 -6t-32.5 -18t-23.5 -29t-9 -39v-4q0 -2 -3.5 -4t-8.5 -2q-9 0 -15.5 7.5t-6.5 17.5q0 3 0.5 6t1.5 7q16 58 57 78.5t108 20.5q51 0 105 -5.5t96 -5.5q19 0 37.5 3
t34.5 18q4 3 8 3q7 0 9 -6.5t2 -12.5q0 -7 -2 -12.5t-5 -6.5q-21 -6 -27.5 -9.5t-8.5 -5.5q-5 -3 -5 -34q0 -24 3 -62t8 -84.5t11.5 -99t14.5 -104.5q6 -15 14 -21t16 -8.5t14 -4.5t7 -8v-1q0 -6 -5 -8.5l-12 -6t-13 -10t-7 -21.5q6 -43 12.5 -81.5t11.5 -69t9.5 -52.5
t6.5 -31q2 0 3.5 -0.5t3.5 -0.5q10 0 17.5 4.5t13 10l10 10t9.5 4.5zM200 314q32 2 72 3t85 1h12q-10 71 -20 145t-19 134q-11 70 -20 137q-3 0 -7 -0.5t-9 -0.5zM312 886q0 -20 15 -30t33 -10q17 0 31 9.5t16 29.5q0 6 4.5 9t10.5 3q8 0 14 -5t6 -15q0 -17 -8 -30.5
t-20.5 -23.5t-28.5 -15t-32 -5q-29 0 -52 18t-23 59v2q0 8 6.5 13t13.5 5q5 0 9.5 -3.5t4.5 -10.5z" />
    <glyph glyph-name="abreve" unicode="&#x103;" 
d="M572 757q6 0 11 -4t5 -12t-4 -14t-8 -7q-21 -5 -28 -8t-8 -6q-1 -5 -3.5 -27t-4.5 -54.5t-4 -71t-4 -76t-3.5 -69.5t-2.5 -51q3 -16 10 -23.5t14.5 -11.5t13.5 -6.5t6 -8.5q0 -8 -6.5 -9.5t-14 -4.5t-15 -10t-10.5 -25q0 -49 2.5 -101t5.5 -103q0 -5 1 -17t7 -12
q2 0 4 0.5t6 0.5q5 0 13 -2.5t8 -16.5q0 -6 -3.5 -9.5t-8.5 -3.5t-24 3t-71 3q-33 0 -67.5 -2t-66.5 -13q-10 0 -10 13q0 5 2 10.5t5 6.5q2 0 7.5 1.5t7.5 5.5q5 11 6 18.5t3 19.5q3 29 6.5 93.5t6.5 143.5h-44q-43 0 -82 0.5t-73 0.5q-2 -53 -6.5 -99.5t-9.5 -73.5
q-4 -18 -14.5 -43.5t-24.5 -49t-29 -39.5t-27 -16q-10 0 -10 10q0 3 9 13.5t14 25.5q13 39 18.5 101.5t9.5 134.5q-2 16 -9 23.5t-14.5 11.5t-13 6.5t-5.5 8.5v1q0 7 6 8.5t14 4t15.5 9t11.5 23.5q3 63 8 119.5t16 100.5q4 16 7 31.5t10 33.5t19.5 39.5t35.5 49.5
q-13 -1 -29.5 -4.5t-32 -10.5t-27.5 -17.5t-16 -25.5q-1 -6 -7 -6q-4 0 -8.5 1.5t-4.5 6.5q0 1 0.5 2t0.5 2q5 19 19 34.5t32.5 26.5t40 16.5t41.5 5.5q22 0 48 -4.5t59 -10t75.5 -10t96.5 -4.5q20 0 41.5 2t31.5 9q7 5 12.5 8.5t10.5 3.5zM246 683q-27 -27 -43 -67.5
t-25.5 -88.5t-13.5 -100.5t-6 -103.5q54 0 104.5 1.5t94.5 3.5q2 45 2.5 90t0.5 87q0 43 -1 81t-3.5 67t-6 46.5t-8.5 19.5q-11 4 -22 4q-21 0 -39 -12t-34 -28zM327 869q0 -20 15 -30t33 -10q17 0 31 9.5t16 29.5q0 6 4.5 9t10.5 3q8 0 14 -5t6 -15q0 -17 -8 -30.5
t-20.5 -23.5t-28.5 -15t-32 -5q-29 0 -52 18t-23 59v2q0 8 6.5 13t13.5 5q5 0 9.5 -3.5t4.5 -10.5z" />
    <glyph glyph-name="Aogonek" unicode="&#x104;" horiz-adv-x="667" 
d="M640 57q7 0 7 -8q0 -6 -4 -15t-11.5 -17t-17.5 -14t-22 -6h-14q-14 -8 -23 -24t-9 -32q0 -14 8.5 -24.5t28.5 -10.5q21 0 44 10q5 2 7 -3.5t2 -12.5q0 -25 -20.5 -33.5t-43.5 -8.5q-36 0 -55 24.5t-19 55.5t20 59h-79q-23 0 -44.5 -4t-42.5 -15q-2 -2 -5.5 -3.5
t-6.5 -1.5q-6 0 -9 7t-3 13q0 9 17 16q25 9 37 23.5t14 34.5q0 28 -6.5 86t-16.5 132q-19 1 -37.5 1.5t-38.5 0.5q-28 0 -54 -1t-49 -3q-8 -35 -15 -66t-12 -56t-8.5 -43t-4.5 -25q0 -8 -2.5 -17t-2.5 -19q0 -14 7.5 -21.5t30.5 -8.5q4 -1 5.5 -8.5t1.5 -10.5v-2q0 -6 -7 -6
q-42 0 -70 -1.5t-46.5 -3t-29 -2.5t-16.5 -1q-5 0 -5 5q0 8 9 15.5t17 10.5q18 7 29 23.5t16 33.5q8 26 18 72t23 108q0 15 -5 23.5t-11.5 14t-11.5 9t-5 8.5v2q1 7 8 7.5t15.5 2t17.5 7.5t15 26q12 55 22.5 111t19 104.5t13.5 87t5 59.5q0 6 0.5 10.5t1.5 8.5q-19 0 -37 -6
t-32.5 -18t-23.5 -29t-9 -39v-4q0 -2 -3.5 -4t-8.5 -2q-9 0 -15.5 7.5t-6.5 17.5q0 3 0.5 6t1.5 7q16 58 57 78.5t108 20.5q51 0 105 -5.5t96 -5.5q19 0 37.5 3t34.5 18q4 3 8 3q7 0 9 -6.5t2 -12.5q0 -7 -2 -12.5t-5 -6.5q-21 -6 -27.5 -9.5t-8.5 -5.5q-5 -3 -5 -34
q0 -24 3 -62t8 -84.5t11.5 -99t14.5 -104.5q6 -15 14 -21t16 -8.5t14 -4.5t7 -8v-1q0 -6 -5 -8.5l-12 -6t-13 -10t-7 -21.5q6 -43 12.5 -81.5t11.5 -69t9.5 -52.5t6.5 -31q2 0 3.5 -0.5t3.5 -0.5q10 0 17.5 4.5t13 10l10 10t9.5 4.5zM200 314q32 2 72 3t85 1h12
q-10 71 -20 145t-19 134q-11 70 -20 137q-3 0 -7 -0.5t-9 -0.5z" />
    <glyph glyph-name="aogonek" unicode="&#x105;" 
d="M533 -7q-16 -7 -25.5 -23.5t-9.5 -33.5q0 -14 8.5 -24.5t28.5 -10.5q21 0 44 10q5 2 7 -3.5t2 -12.5q0 -25 -20.5 -33.5t-43.5 -8.5q-36 0 -55 24.5t-19 55.5q0 17 6.5 35t19.5 32h-20q-33 0 -67.5 -2t-66.5 -13q-10 0 -10 13q0 5 2 10.5t5 6.5q2 0 7.5 1.5t7.5 5.5
q5 11 6 18.5t3 19.5q3 29 6.5 93.5t6.5 143.5h-44q-43 0 -82 0.5t-73 0.5q-2 -53 -6.5 -99.5t-9.5 -73.5q-4 -18 -14.5 -43.5t-24.5 -49t-29 -39.5t-27 -16q-10 0 -10 10q0 3 9 13.5t14 25.5q13 39 18.5 101.5t9.5 134.5q-2 16 -9 23.5t-14.5 11.5t-13 6.5t-5.5 8.5v1
q0 7 6 8.5t14 4t15.5 9t11.5 23.5q3 63 8 119.5t16 100.5q4 16 7 31.5t10 33.5t19.5 39.5t35.5 49.5q-13 -1 -29.5 -4.5t-32 -10.5t-27.5 -17.5t-16 -25.5q-1 -6 -7 -6q-4 0 -8.5 1.5t-4.5 6.5q0 1 0.5 2t0.5 2q5 19 19 34.5t32.5 26.5t40 16.5t41.5 5.5q22 0 48 -4.5
t59 -10t75.5 -10t96.5 -4.5q20 0 41.5 2t31.5 9q7 5 12.5 8.5t10.5 3.5q6 0 11 -4t5 -12t-4 -14t-8 -7q-21 -5 -28 -8t-8 -6q-1 -5 -3.5 -27t-4.5 -54.5t-4 -71t-4 -76t-3.5 -69.5t-2.5 -51q3 -16 10 -23.5t14.5 -11.5t13.5 -6.5t6 -8.5q0 -8 -6.5 -9.5t-14 -4.5t-15 -10
t-10.5 -25q0 -49 2.5 -101t5.5 -103q0 -5 1 -17t7 -12q2 0 4 0.5t6 0.5q5 0 13 -2.5t8 -16.5q0 -6 -3.5 -9.5t-8.5 -3.5q-2 0 -5.5 0.5t-8.5 1.5zM246 683q-27 -27 -43 -67.5t-25.5 -88.5t-13.5 -100.5t-6 -103.5q54 0 104.5 1.5t94.5 3.5q2 45 2.5 90t0.5 87q0 43 -1 81
t-3.5 67t-6 46.5t-8.5 19.5q-11 4 -22 4q-21 0 -39 -12t-34 -28z" />
    <glyph glyph-name="Cacute" unicode="&#x106;" horiz-adv-x="521" 
d="M369 747q23 0 46.5 1t55.5 1q7 0 13 -1t6 -6q0 -1 -2 -5q-11 -15 -16 -35.5t-6.5 -43t-1.5 -45.5t-2 -42q-1 -2 -3.5 -5.5t-8.5 -3.5q-22 0 -29.5 8.5t-7.5 15.5v14q0 31 -5.5 51.5t-13.5 32.5t-18.5 16.5t-20.5 4.5q-11 0 -20.5 -4t-14.5 -9q-19 -20 -34 -59.5
t-25.5 -91t-16 -110t-5.5 -116.5q0 -57 5.5 -109.5t17 -92t29.5 -63.5t42 -24q27 0 43.5 12t25 30t11 40t2.5 42q0 12 -0.5 22.5t-0.5 18.5q0 11 1 14q1 5 8 8t15 3q11 0 20.5 -4.5t9.5 -12.5q0 -3 -0.5 -6.5t-0.5 -8.5q-1 -14 -2 -34.5t-6.5 -42t-15.5 -43t-28 -39t-45 -28
t-66 -10.5q-63 0 -105 20.5t-68 58t-40 90.5t-23 118q-2 18 -9.5 26t-16 11.5t-15 6t-6.5 9.5v1q0 6 5.5 8t12.5 5t14 9t10 21v34q0 82 22 145.5t62 107t96.5 66.5t125.5 23zM372 953q9 0 18 -5t9 -16t-4 -19t-10 -18q-3 -5 -16.5 -23t-29.5 -38t-31.5 -35.5t-22.5 -15.5
q-6 0 -11.5 5t-5.5 13q0 5 2 8.5t4 5.5q17 22 36 54.5t30 64.5q4 10 13.5 14.5t18.5 4.5z" />
    <glyph glyph-name="cacute" unicode="&#x107;" horiz-adv-x="502" 
d="M377 748q15 0 33.5 -5t34 -16t26 -30t10.5 -46q0 -6 -0.5 -16t-3 -19.5t-7.5 -17t-13 -7.5q-11 0 -23 9t-12 24v20q0 11 -2.5 22.5t-8 21t-15 15.5t-23.5 6q-41 0 -66.5 -35.5t-40.5 -90t-20.5 -120t-5.5 -125.5t6 -116.5t18 -100t29.5 -69.5t41.5 -26q37 0 56.5 26.5
t19.5 61.5q0 11 -0.5 21t-0.5 18q0 21 23 21q12 0 24 -5t12 -13q0 -17 -5.5 -45t-22.5 -55t-47.5 -47t-81.5 -20q-116 0 -173 71t-72 217q-3 17 -11 24.5t-15.5 11t-14 5.5t-6.5 9t5.5 9t12.5 4.5t14 8t10 19.5q-1 9 -1 18.5v19.5q0 82 23.5 146t65.5 107.5t100 66t127 22.5
zM382 953q9 0 18 -5t9 -16t-4 -19t-10 -18q-3 -5 -16.5 -23t-29.5 -38t-31.5 -35.5t-22.5 -15.5q-6 0 -11.5 5t-5.5 13q0 5 2 8.5t4 5.5q17 22 36 54.5t30 64.5q4 10 13.5 14.5t18.5 4.5z" />
    <glyph glyph-name="Ccircumflex" unicode="&#x108;" horiz-adv-x="521" 
d="M369 747q23 0 46.5 1t55.5 1q7 0 13 -1t6 -6q0 -1 -2 -5q-11 -15 -16 -35.5t-6.5 -43t-1.5 -45.5t-2 -42q-1 -2 -3.5 -5.5t-8.5 -3.5q-22 0 -29.5 8.5t-7.5 15.5v14q0 31 -5.5 51.5t-13.5 32.5t-18.5 16.5t-20.5 4.5q-11 0 -20.5 -4t-14.5 -9q-19 -20 -34 -59.5
t-25.5 -91t-16 -110t-5.5 -116.5q0 -57 5.5 -109.5t17 -92t29.5 -63.5t42 -24q27 0 43.5 12t25 30t11 40t2.5 42q0 12 -0.5 22.5t-0.5 18.5q0 11 1 14q1 5 8 8t15 3q11 0 20.5 -4.5t9.5 -12.5q0 -3 -0.5 -6.5t-0.5 -8.5q-1 -14 -2 -34.5t-6.5 -42t-15.5 -43t-28 -39t-45 -28
t-66 -10.5q-63 0 -105 20.5t-68 58t-40 90.5t-23 118q-2 18 -9.5 26t-16 11.5t-15 6t-6.5 9.5v1q0 6 5.5 8t12.5 5t14 9t10 21v34q0 82 22 145.5t62 107t96.5 66.5t125.5 23zM363 940q7 -9 18.5 -23.5t23 -30t20 -30t8.5 -23.5q0 -6 -5 -15t-13 -9q-4 0 -8 4
q-17 18 -30.5 34t-35.5 35q-13 -7 -23 -13.5t-20 -13.5t-22.5 -15t-29.5 -19q-6 -4 -12 -4q-5 0 -9.5 3.5t-4.5 12.5q0 8 5 13q24 24 50 46.5t54 49.5q10 7 17 7q8 0 17 -9z" />
    <glyph glyph-name="ccircumflex" unicode="&#x109;" horiz-adv-x="502" 
d="M377 748q15 0 33.5 -5t34 -16t26 -30t10.5 -46q0 -6 -0.5 -16t-3 -19.5t-7.5 -17t-13 -7.5q-11 0 -23 9t-12 24v20q0 11 -2.5 22.5t-8 21t-15 15.5t-23.5 6q-41 0 -66.5 -35.5t-40.5 -90t-20.5 -120t-5.5 -125.5t6 -116.5t18 -100t29.5 -69.5t41.5 -26q37 0 56.5 26.5
t19.5 61.5q0 11 -0.5 21t-0.5 18q0 21 23 21q12 0 24 -5t12 -13q0 -17 -5.5 -45t-22.5 -55t-47.5 -47t-81.5 -20q-116 0 -173 71t-72 217q-3 17 -11 24.5t-15.5 11t-14 5.5t-6.5 9t5.5 9t12.5 4.5t14 8t10 19.5q-1 9 -1 18.5v19.5q0 82 23.5 146t65.5 107.5t100 66t127 22.5
zM350 914q7 -9 18.5 -23.5t23 -30t20 -30t8.5 -23.5q0 -6 -5 -15t-13 -9q-4 0 -8 4q-17 18 -30.5 34t-35.5 35q-13 -7 -23 -13.5t-20 -13.5t-22.5 -15t-29.5 -19q-6 -4 -12 -4q-5 0 -9.5 3.5t-4.5 12.5q0 8 5 13q24 24 50 46.5t54 49.5q10 7 17 7q8 0 17 -9z" />
    <glyph glyph-name="Cdotaccent" unicode="&#x10a;" horiz-adv-x="521" 
d="M369 747q23 0 46.5 1t55.5 1q7 0 13 -1t6 -6q0 -1 -2 -5q-11 -15 -16 -35.5t-6.5 -43t-1.5 -45.5t-2 -42q-1 -2 -3.5 -5.5t-8.5 -3.5q-22 0 -29.5 8.5t-7.5 15.5v14q0 31 -5.5 51.5t-13.5 32.5t-18.5 16.5t-20.5 4.5q-11 0 -20.5 -4t-14.5 -9q-19 -20 -34 -59.5
t-25.5 -91t-16 -110t-5.5 -116.5q0 -57 5.5 -109.5t17 -92t29.5 -63.5t42 -24q27 0 43.5 12t25 30t11 40t2.5 42q0 12 -0.5 22.5t-0.5 18.5q0 11 1 14q1 5 8 8t15 3q11 0 20.5 -4.5t9.5 -12.5q0 -3 -0.5 -6.5t-0.5 -8.5q-1 -14 -2 -34.5t-6.5 -42t-15.5 -43t-28 -39t-45 -28
t-66 -10.5q-63 0 -105 20.5t-68 58t-40 90.5t-23 118q-2 18 -9.5 26t-16 11.5t-15 6t-6.5 9.5v1q0 6 5.5 8t12.5 5t14 9t10 21v34q0 82 22 145.5t62 107t96.5 66.5t125.5 23zM357 898q26 0 38 -16t12 -36t-13 -38.5t-39 -18.5t-39.5 18t-13.5 38t13 36.5t42 16.5z" />
    <glyph glyph-name="cdotaccent" unicode="&#x10b;" horiz-adv-x="502" 
d="M377 748q15 0 33.5 -5t34 -16t26 -30t10.5 -46q0 -6 -0.5 -16t-3 -19.5t-7.5 -17t-13 -7.5q-11 0 -23 9t-12 24v20q0 11 -2.5 22.5t-8 21t-15 15.5t-23.5 6q-41 0 -66.5 -35.5t-40.5 -90t-20.5 -120t-5.5 -125.5t6 -116.5t18 -100t29.5 -69.5t41.5 -26q37 0 56.5 26.5
t19.5 61.5q0 11 -0.5 21t-0.5 18q0 21 23 21q12 0 24 -5t12 -13q0 -17 -5.5 -45t-22.5 -55t-47.5 -47t-81.5 -20q-116 0 -173 71t-72 217q-3 17 -11 24.5t-15.5 11t-14 5.5t-6.5 9t5.5 9t12.5 4.5t14 8t10 19.5q-1 9 -1 18.5v19.5q0 82 23.5 146t65.5 107.5t100 66t127 22.5
zM334 906q26 0 38 -16t12 -36t-13 -38.5t-39 -18.5t-39.5 18t-13.5 38t13 36.5t42 16.5z" />
    <glyph glyph-name="Ccaron" unicode="&#x10c;" horiz-adv-x="521" 
d="M369 747q23 0 46.5 1t55.5 1q7 0 13 -1t6 -6q0 -1 -2 -5q-11 -15 -16 -35.5t-6.5 -43t-1.5 -45.5t-2 -42q-1 -2 -3.5 -5.5t-8.5 -3.5q-22 0 -29.5 8.5t-7.5 15.5v14q0 31 -5.5 51.5t-13.5 32.5t-18.5 16.5t-20.5 4.5q-11 0 -20.5 -4t-14.5 -9q-19 -20 -34 -59.5
t-25.5 -91t-16 -110t-5.5 -116.5q0 -57 5.5 -109.5t17 -92t29.5 -63.5t42 -24q27 0 43.5 12t25 30t11 40t2.5 42q0 12 -0.5 22.5t-0.5 18.5q0 11 1 14q1 5 8 8t15 3q11 0 20.5 -4.5t9.5 -12.5q0 -3 -0.5 -6.5t-0.5 -8.5q-1 -14 -2 -34.5t-6.5 -42t-15.5 -43t-28 -39t-45 -28
t-66 -10.5q-63 0 -105 20.5t-68 58t-40 90.5t-23 118q-2 18 -9.5 26t-16 11.5t-15 6t-6.5 9.5v1q0 6 5.5 8t12.5 5t14 9t10 21v34q0 82 22 145.5t62 107t96.5 66.5t125.5 23zM317 808q-7 9 -18.5 23.5t-23 30t-20 30t-8.5 23.5q0 6 5 15t13 9q4 0 8 -4q17 -18 30.5 -34
t35.5 -35q13 7 23 13.5t20 13.5t22.5 15t29.5 19q6 4 12 4q5 0 9.5 -3.5t4.5 -12.5q0 -8 -5 -13q-24 -24 -50 -46.5t-54 -49.5q-5 -3 -8.5 -5t-8.5 -2q-8 0 -17 9z" />
    <glyph glyph-name="ccaron" unicode="&#x10d;" horiz-adv-x="502" 
d="M377 748q15 0 33.5 -5t34 -16t26 -30t10.5 -46q0 -6 -0.5 -16t-3 -19.5t-7.5 -17t-13 -7.5q-11 0 -23 9t-12 24v20q0 11 -2.5 22.5t-8 21t-15 15.5t-23.5 6q-41 0 -66.5 -35.5t-40.5 -90t-20.5 -120t-5.5 -125.5t6 -116.5t18 -100t29.5 -69.5t41.5 -26q37 0 56.5 26.5
t19.5 61.5q0 11 -0.5 21t-0.5 18q0 21 23 21q12 0 24 -5t12 -13q0 -17 -5.5 -45t-22.5 -55t-47.5 -47t-81.5 -20q-116 0 -173 71t-72 217q-3 17 -11 24.5t-15.5 11t-14 5.5t-6.5 9t5.5 9t12.5 4.5t14 8t10 19.5q-1 9 -1 18.5v19.5q0 82 23.5 146t65.5 107.5t100 66t127 22.5
zM300 797q-7 9 -18.5 23.5t-23 30t-20 30t-8.5 23.5q0 6 5 15t13 9q4 0 8 -4q17 -18 30.5 -34t35.5 -35q13 7 23 13.5t20 13.5t22.5 15t29.5 19q6 4 12 4q5 0 9.5 -3.5t4.5 -12.5q0 -8 -5 -13q-24 -24 -50 -46.5t-54 -49.5q-5 -3 -8.5 -5t-8.5 -2q-8 0 -17 9z" />
    <glyph glyph-name="Dcaron" unicode="&#x10e;" horiz-adv-x="658" 
d="M600 369q2 -14 8 -21t12.5 -11.5t11.5 -7.5t5 -9v-1q-1 -7 -7 -8t-13.5 -2t-15.5 -6t-14 -19q-12 -57 -40 -111t-79 -96t-129.5 -67.5t-192.5 -25.5h-24.5t-25.5 1q-9 0 -11.5 6.5t-2.5 14.5q0 9 2.5 31.5t5.5 57t7 80t7 98.5q-2 18 -9 26t-14.5 12.5t-13.5 7.5t-6 9v1
q0 7 7 8.5t15.5 4.5t16 11.5t10.5 30.5q2 42 3 83.5t1 81.5q0 37 -1.5 70.5t-3.5 64.5q-1 12 -5.5 20t-10.5 12.5t-13 7t-12 4.5q-2 1 -2 7q0 5 2 11t6 6h1q5 -1 18.5 -3t31.5 -4.5t39 -4t41 -1.5q37 0 73 6t77 6q85 0 135 -24t76 -60t33 -77t7 -75q0 -35 -1.5 -70t-4.5 -76
zM277 31q65 23 103.5 71t59 108.5t27 128t6.5 130.5q0 76 -11 123.5t-29 73.5t-41 35t-47 9q-14 0 -27 -2t-25 -4t-19.5 -37t-12 -89t-6 -120.5t-1.5 -133.5q0 -54 1 -103.5t2 -89.5t2 -66t1 -32q0 -4 5 -4q2 0 12 2zM286 802q-7 9 -18.5 23.5t-23 30t-20 30t-8.5 23.5
q0 6 5 15t13 9q4 0 8 -4q17 -18 30.5 -34t35.5 -35q13 7 23 13.5t20 13.5t22.5 15t29.5 19q6 4 12 4q5 0 9.5 -3.5t4.5 -12.5q0 -8 -5 -13q-24 -24 -50 -46.5t-54 -49.5q-5 -3 -8.5 -5t-8.5 -2q-8 0 -17 9z" />
    <glyph glyph-name="dcaron" unicode="&#x10f;" horiz-adv-x="714" 
d="M624 503q0 -30 -3.5 -60.5t-3.5 -64.5q0 -17 6 -26t12.5 -14t12.5 -8t6 -9v-2q-1 -7 -7.5 -8t-14.5 -2.5t-16.5 -7.5t-13.5 -22q-43 -150 -155 -225t-308 -75q-36 0 -75 3q-5 1 -7 4t-2 6q0 5 3 5q6 2 13 4t13.5 6t11.5 11t7 20l1.5 19t4.5 51.5t6 75.5t6 93
q-3 15 -9.5 22.5t-14 11.5t-13 7t-5.5 9v1q0 7 6.5 8.5t14.5 4t16 10t11 26.5q2 52 3.5 103.5t1.5 98.5q0 61 -3 108q-2 23 -14.5 31t-23.5 12q-6 0 -6 8q0 5 2 11.5t7 6.5h1q5 -2 18.5 -4t31.5 -4t39 -3.5t41 -1.5q27 0 55 3t62 3q91 0 146.5 -21.5t85.5 -56.5t40 -79
t10 -89zM296 35q43 12 74.5 37.5t53 60.5t35 76.5t21 85.5t10 88t2.5 83q0 81 -11 128.5t-31 73t-47 33t-59 7.5q-7 0 -13.5 -0.5t-14.5 -0.5q-13 -1 -21 -38t-12.5 -95t-6.5 -129.5t-2 -141.5q0 -50 0.5 -95.5t1.5 -81.5t2 -59.5t1 -29.5q0 -4 6 -4q3 0 11 2zM673 839
q18 0 31.5 -8.5t22 -21.5t13 -30t4.5 -33q0 -22 -7 -42.5t-19 -36.5t-28 -25.5t-34 -9.5q-11 0 -18.5 5.5t-7.5 16.5q0 8 5 14.5t14 6.5q28 0 41 21t13 53q-19 -11 -33 -11q-18 0 -34 14.5t-16 33.5q0 24 16.5 38.5t36.5 14.5z" />
    <glyph glyph-name="Dcroat" unicode="&#x110;" horiz-adv-x="658" 
d="M600 369q2 -14 8 -21t12.5 -11.5t11.5 -7.5t5 -9v-1q-1 -7 -7 -8t-13.5 -2t-15.5 -6t-14 -19q-12 -57 -40 -111t-79 -96t-129.5 -67.5t-192.5 -25.5h-24.5t-25.5 1q-9 0 -11.5 6.5t-2.5 14.5q0 9 2.5 31.5t5.5 57t7 80t7 98.5q-2 13 -6 20.5t-9 12.5q-8 0 -16.5 0.5
t-18.5 0.5q-8 0 -16 5t-8 15q0 11 8 18t20 7h40q4 5 7 12.5t5 19.5q2 42 3 83.5t1 81.5q0 37 -1.5 70.5t-3.5 64.5q-1 12 -5.5 20t-10.5 12.5t-13 7t-12 4.5q-2 1 -2 7q0 5 2 11t6 6h1q5 -1 18.5 -3t31.5 -4.5t39 -4t41 -1.5q37 0 73 6t77 6q85 0 135 -24t76 -60t33 -77
t7 -75q0 -35 -1.5 -70t-4.5 -76zM324 364q9 0 16 -5t7 -16q0 -20 -17.5 -26t-35.5 -6q-7 0 -17 -0.5t-23 -0.5q0 -52 1 -99.5t2 -85t2 -62t1 -30.5q0 -4 5 -4q2 0 12 2q65 23 103.5 71t59 108.5t27 128t6.5 130.5q0 76 -11 123.5t-29 73.5t-41 35t-47 9q-14 0 -27 -2t-25 -4
q-11 -2 -18.5 -33t-12 -79.5t-6.5 -109.5t-2 -124q25 2 40.5 4t29.5 2z" />
    <glyph glyph-name="dcroat" unicode="&#x111;" horiz-adv-x="658" 
d="M600 369q2 -14 8 -21t12.5 -11.5t11.5 -7.5t5 -9v-1q-1 -7 -7 -8t-13.5 -2t-15.5 -6t-14 -19q-12 -57 -40 -111t-79 -96t-129.5 -67.5t-192.5 -25.5h-24.5t-25.5 1q-9 0 -11.5 6.5t-2.5 14.5q0 9 2.5 31.5t5.5 57t7 80t7 98.5q-2 13 -6 20.5t-9 12.5q-8 0 -16.5 0.5
t-18.5 0.5q-8 0 -16 5t-8 15q0 11 8 18t20 7h40q4 5 7 12.5t5 19.5q2 42 3 83.5t1 81.5q0 37 -1.5 70.5t-3.5 64.5q-1 12 -5.5 20t-10.5 12.5t-13 7t-12 4.5q-2 1 -2 7q0 5 2 11t6 6h1q5 -1 18.5 -3t31.5 -4.5t39 -4t41 -1.5q37 0 73 6t77 6q85 0 135 -24t76 -60t33 -77
t7 -75q0 -35 -1.5 -70t-4.5 -76zM324 364q9 0 16 -5t7 -16q0 -20 -17.5 -26t-35.5 -6q-7 0 -17 -0.5t-23 -0.5q0 -52 1 -99.5t2 -85t2 -62t1 -30.5q0 -4 5 -4q2 0 12 2q65 23 103.5 71t59 108.5t27 128t6.5 130.5q0 76 -11 123.5t-29 73.5t-41 35t-47 9q-14 0 -27 -2t-25 -4
q-11 -2 -18.5 -33t-12 -79.5t-6.5 -109.5t-2 -124q25 2 40.5 4t29.5 2z" />
    <glyph glyph-name="Emacron" unicode="&#x112;" horiz-adv-x="600" 
d="M551 749q3 0 8.5 -2t5.5 -9q0 -1 -0.5 -2t-0.5 -2q-12 -25 -15.5 -49t-5 -43.5t-3 -31.5t-8.5 -12h-3q-16 0 -21 6t-5 13q0 3 0.5 6t0.5 10q0 37 -22.5 59.5t-69.5 22.5q-20 0 -40.5 1.5t-49.5 1.5q-18 0 -26 -11.5t-9 -25.5q-3 -50 -4.5 -129t-1.5 -165q39 0 72.5 0.5
t50.5 0.5q15 0 26 7t19.5 15.5t14.5 15.5t10 7q3 0 4 -6t1 -14q0 -12 -1 -25.5t-1 -20.5t1 -18t1 -21q0 -7 -1 -12t-4 -5q-4 0 -10.5 7.5t-15.5 16t-19.5 16t-22.5 7.5q-31 0 -62 -1.5t-63 -3.5v-77t1 -71.5t1.5 -62t2.5 -49.5q1 -18 4.5 -30.5t12.5 -20t26 -11t45 -3.5
q22 0 46 8.5t44.5 24t35 36.5t16.5 46q0 4 4 9t15 5q7 0 13.5 -2t6.5 -12q0 -6 -0.5 -30.5t-4 -51t-11 -47.5t-20.5 -21q-31 0 -73.5 1.5t-89.5 1.5q-44 0 -88.5 -1t-81 -2.5t-62.5 -5t-34 -7.5h-1q-8 -2 -10 -2q-5 0 -7 4.5t-2 9.5q0 16 11 18q19 6 28 6q0 6 1 31.5t2 62
t2 80.5t1 87q0 16 -6.5 23.5t-15 11.5t-15 6.5t-6.5 8.5v1q0 8 7 9.5t15 5t15 12.5t7 33q0 48 -1 96t-3 90.5t-5 79t-8 62.5q-1 5 -8 6.5t-13 1.5h-7q-10 0 -10 14q0 5 2 8.5t7 4.5q7 1 20.5 2t29.5 1.5t34 0.5h34q30 0 62.5 -1t74.5 -2t96.5 -2t129.5 -1zM433 892
q5 0 9.5 -5t4.5 -16q0 -20 -11 -26t-22 -6q-7 0 -31 1t-54 1.5t-60.5 1.5t-49.5 1q-6 0 -12 0.5t-12 0.5q-5 0 -10.5 5t-5.5 15q0 11 5 18t13 7q95 0 156 1t80 1z" />
    <glyph glyph-name="emacron" unicode="&#x113;" horiz-adv-x="610" 
d="M561 744q4 0 9 -2t5 -9q0 -2 -2 -8t-5 -13.5t-5.5 -15t-3.5 -13.5q-4 -16 -4.5 -36.5t-2.5 -34.5q-3 -20 -19 -20q-13 0 -16.5 6.5t-3.5 11.5q1 6 1 9.5v7.5q0 37 -22.5 60t-69.5 23q-12 0 -22 0.5l-20 1t-21.5 1t-26.5 0.5q-18 0 -26 -12t-9 -25q-2 -15 -3.5 -42t-2 -62
t-1 -76t-0.5 -84q42 0 78.5 0.5t53.5 0.5q14 0 25 8.5t19.5 19t14.5 19t10 8.5q3 0 4.5 -6t1.5 -14q0 -12 -1.5 -25.5t-1.5 -20.5t1.5 -23t1.5 -30q0 -10 -1.5 -16.5t-4.5 -6.5q-4 0 -10.5 9t-15.5 19.5t-19.5 19.5t-22.5 9q-33 0 -66 -1.5t-67 -3.5q0 -44 0.5 -86.5
t1 -80.5t1.5 -70t3 -53q1 -18 4.5 -30.5t13 -20t26 -11t44.5 -3.5q27 0 50.5 7t43.5 27q17 17 32.5 40t15.5 41q1 4 5.5 9t15.5 5q7 0 12.5 -2.5t5.5 -11.5t-1.5 -33.5t-5.5 -50.5t-11 -46t-18 -20q-19 0 -47 1t-62 1q-49 0 -105 -1.5t-106 -5.5t-89 -11.5t-55 -18.5
q-1 -1 -3 -1q-11 0 -11 11q0 6 3 11q2 6 12 12.5t21.5 15.5t20.5 22.5t9 34.5q0 38 0.5 94t2.5 123q-3 16 -10 24t-14.5 12t-13.5 6.5t-6 8.5v1q0 7 6 9t14 5t15.5 10t10.5 26q1 63 2 117t2 94t2 64.5t1 29.5q0 15 -8 25.5t-18 18t-19 11.5t-11 5q-6 2 -9.5 9t-3.5 13
q0 3 2 7t7 4q4 0 7.5 -1.5t6.5 -2.5q13 -6 49.5 -10.5t85 -7.5t103 -5t103 -3t86 -1.5t51.5 -0.5zM444 890q5 0 9.5 -5t4.5 -16q0 -20 -11 -26t-22 -6q-7 0 -31 1t-54 1.5t-60.5 1.5t-49.5 1q-6 0 -12 0.5t-12 0.5q-5 0 -10.5 5t-5.5 15q0 11 5 18t13 7q95 0 156 1t80 1z
" />
    <glyph glyph-name="Edotaccent" unicode="&#x116;" horiz-adv-x="600" 
d="M551 749q3 0 8.5 -2t5.5 -9q0 -1 -0.5 -2t-0.5 -2q-12 -25 -15.5 -49t-5 -43.5t-3 -31.5t-8.5 -12h-3q-16 0 -21 6t-5 13q0 3 0.5 6t0.5 10q0 37 -22.5 59.5t-69.5 22.5q-20 0 -40.5 1.5t-49.5 1.5q-18 0 -26 -11.5t-9 -25.5q-3 -50 -4.5 -129t-1.5 -165q39 0 72.5 0.5
t50.5 0.5q15 0 26 7t19.5 15.5t14.5 15.5t10 7q3 0 4 -6t1 -14q0 -12 -1 -25.5t-1 -20.5t1 -18t1 -21q0 -7 -1 -12t-4 -5q-4 0 -10.5 7.5t-15.5 16t-19.5 16t-22.5 7.5q-31 0 -62 -1.5t-63 -3.5v-77t1 -71.5t1.5 -62t2.5 -49.5q1 -18 4.5 -30.5t12.5 -20t26 -11t45 -3.5
q22 0 46 8.5t44.5 24t35 36.5t16.5 46q0 4 4 9t15 5q7 0 13.5 -2t6.5 -12q0 -6 -0.5 -30.5t-4 -51t-11 -47.5t-20.5 -21q-31 0 -73.5 1.5t-89.5 1.5q-44 0 -88.5 -1t-81 -2.5t-62.5 -5t-34 -7.5h-1q-8 -2 -10 -2q-5 0 -7 4.5t-2 9.5q0 16 11 18q19 6 28 6q0 6 1 31.5t2 62
t2 80.5t1 87q0 16 -6.5 23.5t-15 11.5t-15 6.5t-6.5 8.5v1q0 8 7 9.5t15 5t15 12.5t7 33q0 48 -1 96t-3 90.5t-5 79t-8 62.5q-1 5 -8 6.5t-13 1.5h-7q-10 0 -10 14q0 5 2 8.5t7 4.5q7 1 20.5 2t29.5 1.5t34 0.5h34q30 0 62.5 -1t74.5 -2t96.5 -2t129.5 -1zM320 915
q26 0 38 -16t12 -36t-13 -38.5t-39 -18.5t-39.5 18t-13.5 38t13 36.5t42 16.5z" />
    <glyph glyph-name="edotaccent" unicode="&#x117;" horiz-adv-x="610" 
d="M561 744q4 0 9 -2t5 -9q0 -2 -2 -8t-5 -13.5t-5.5 -15t-3.5 -13.5q-4 -16 -4.5 -36.5t-2.5 -34.5q-3 -20 -19 -20q-13 0 -16.5 6.5t-3.5 11.5q1 6 1 9.5v7.5q0 37 -22.5 60t-69.5 23q-12 0 -22 0.5l-20 1t-21.5 1t-26.5 0.5q-18 0 -26 -12t-9 -25q-2 -15 -3.5 -42t-2 -62
t-1 -76t-0.5 -84q42 0 78.5 0.5t53.5 0.5q14 0 25 8.5t19.5 19t14.5 19t10 8.5q3 0 4.5 -6t1.5 -14q0 -12 -1.5 -25.5t-1.5 -20.5t1.5 -23t1.5 -30q0 -10 -1.5 -16.5t-4.5 -6.5q-4 0 -10.5 9t-15.5 19.5t-19.5 19.5t-22.5 9q-33 0 -66 -1.5t-67 -3.5q0 -44 0.5 -86.5
t1 -80.5t1.5 -70t3 -53q1 -18 4.5 -30.5t13 -20t26 -11t44.5 -3.5q27 0 50.5 7t43.5 27q17 17 32.5 40t15.5 41q1 4 5.5 9t15.5 5q7 0 12.5 -2.5t5.5 -11.5t-1.5 -33.5t-5.5 -50.5t-11 -46t-18 -20q-19 0 -47 1t-62 1q-49 0 -105 -1.5t-106 -5.5t-89 -11.5t-55 -18.5
q-1 -1 -3 -1q-11 0 -11 11q0 6 3 11q2 6 12 12.5t21.5 15.5t20.5 22.5t9 34.5q0 38 0.5 94t2.5 123q-3 16 -10 24t-14.5 12t-13.5 6.5t-6 8.5v1q0 7 6 9t14 5t15.5 10t10.5 26q1 63 2 117t2 94t2 64.5t1 29.5q0 15 -8 25.5t-18 18t-19 11.5t-11 5q-6 2 -9.5 9t-3.5 13
q0 3 2 7t7 4q4 0 7.5 -1.5t6.5 -2.5q13 -6 49.5 -10.5t85 -7.5t103 -5t103 -3t86 -1.5t51.5 -0.5zM334 920q26 0 38 -16t12 -36t-13 -38.5t-39 -18.5t-39.5 18t-13.5 38t13 36.5t42 16.5z" />
    <glyph glyph-name="Eogonek" unicode="&#x118;" horiz-adv-x="600" 
d="M551 749q3 0 8.5 -2t5.5 -9q0 -1 -0.5 -2t-0.5 -2q-12 -25 -15.5 -49t-5 -43.5t-3 -31.5t-8.5 -12h-3q-16 0 -21 6t-5 13q0 3 0.5 6t0.5 10q0 37 -22.5 59.5t-69.5 22.5q-20 0 -40.5 1.5t-49.5 1.5q-18 0 -26 -11.5t-9 -25.5q-3 -50 -4.5 -129t-1.5 -165q39 0 72.5 0.5
t50.5 0.5q15 0 26 7t19.5 15.5t14.5 15.5t10 7q3 0 4 -6t1 -14q0 -12 -1 -25.5t-1 -20.5t1 -18t1 -21q0 -7 -1 -12t-4 -5q-4 0 -10.5 7.5t-15.5 16t-19.5 16t-22.5 7.5q-31 0 -62 -1.5t-63 -3.5v-77t1 -71.5t1.5 -62t2.5 -49.5q1 -18 4.5 -30.5t12.5 -20t26 -11t45 -3.5
q22 0 46 8.5t44.5 24t35 36.5t16.5 46q0 4 4 9t15 5q7 0 13.5 -2t6.5 -12q0 -6 -0.5 -30.5t-4 -51t-11 -47.5t-20.5 -21h-9q-16 -7 -25.5 -23.5t-9.5 -33.5q0 -14 8.5 -24.5t28.5 -10.5q21 0 44 10q5 2 7 -3.5t2 -12.5q0 -25 -20.5 -33.5t-43.5 -8.5q-36 0 -55 24.5
t-19 55.5q0 32 22 62q-22 1 -45.5 1h-47.5q-44 0 -88.5 -1t-81 -2.5t-62.5 -5t-34 -7.5h-1q-8 -2 -10 -2q-5 0 -7 4.5t-2 9.5q0 16 11 18q19 6 28 6q0 6 1 31.5t2 62t2 80.5t1 87q0 16 -6.5 23.5t-15 11.5t-15 6.5t-6.5 8.5v1q0 8 7 9.5t15 5t15 12.5t7 33q0 48 -1 96
t-3 90.5t-5 79t-8 62.5q-1 5 -8 6.5t-13 1.5h-7q-10 0 -10 14q0 5 2 8.5t7 4.5q7 1 20.5 2t29.5 1.5t34 0.5h34q30 0 62.5 -1t74.5 -2t96.5 -2t129.5 -1z" />
    <glyph glyph-name="eogonek" unicode="&#x119;" horiz-adv-x="610" 
d="M561 744q4 0 9 -2t5 -9q0 -2 -2 -8t-5 -13.5t-5.5 -15t-3.5 -13.5q-4 -16 -4.5 -36.5t-2.5 -34.5q-3 -20 -19 -20q-13 0 -16.5 6.5t-3.5 11.5q1 6 1 9.5v7.5q0 37 -22.5 60t-69.5 23q-12 0 -22 0.5l-20 1t-21.5 1t-26.5 0.5q-18 0 -26 -12t-9 -25q-2 -15 -3.5 -42t-2 -62
t-1 -76t-0.5 -84q42 0 78.5 0.5t53.5 0.5q14 0 25 8.5t19.5 19t14.5 19t10 8.5q3 0 4.5 -6t1.5 -14q0 -12 -1.5 -25.5t-1.5 -20.5t1.5 -23t1.5 -30q0 -10 -1.5 -16.5t-4.5 -6.5q-4 0 -10.5 9t-15.5 19.5t-19.5 19.5t-22.5 9q-33 0 -66 -1.5t-67 -3.5q0 -44 0.5 -86.5
t1 -80.5t1.5 -70t3 -53q1 -18 4.5 -30.5t13 -20t26 -11t44.5 -3.5q27 0 50.5 7t43.5 27q17 17 32.5 40t15.5 41q1 4 5.5 9t15.5 5q7 0 12.5 -2.5t5.5 -11.5t-1.5 -33t-5.5 -50t-11 -46t-18 -21q-14 -8 -23 -24t-9 -32q0 -14 8.5 -24.5t28.5 -10.5q21 0 44 10q5 2 7 -3.5
t2 -12.5q0 -25 -20.5 -33.5t-43.5 -8.5q-36 0 -55 24.5t-19 55.5q0 14 5 30.5t16 30.5h-50q-49 0 -105 -1.5t-106 -5.5t-89 -11.5t-55 -18.5q-1 -1 -3 -1q-11 0 -11 11q0 6 3 11q2 6 12 12.5t21.5 15.5t20.5 22.5t9 34.5q0 38 0.5 94t2.5 123q-3 16 -10 24t-14.5 12
t-13.5 6.5t-6 8.5v1q0 7 6 9t14 5t15.5 10t10.5 26q1 63 2 117t2 94t2 64.5t1 29.5q0 15 -8 25.5t-18 18t-19 11.5t-11 5q-6 2 -9.5 9t-3.5 13q0 3 2 7t7 4q4 0 7.5 -1.5t6.5 -2.5q13 -6 49.5 -10.5t85 -7.5t103 -5t103 -3t86 -1.5t51.5 -0.5z" />
    <glyph glyph-name="Ecaron" unicode="&#x11a;" horiz-adv-x="600" 
d="M551 749q3 0 8.5 -2t5.5 -9q0 -1 -0.5 -2t-0.5 -2q-12 -25 -15.5 -49t-5 -43.5t-3 -31.5t-8.5 -12h-3q-16 0 -21 6t-5 13q0 3 0.5 6t0.5 10q0 37 -22.5 59.5t-69.5 22.5q-20 0 -40.5 1.5t-49.5 1.5q-18 0 -26 -11.5t-9 -25.5q-3 -50 -4.5 -129t-1.5 -165q39 0 72.5 0.5
t50.5 0.5q15 0 26 7t19.5 15.5t14.5 15.5t10 7q3 0 4 -6t1 -14q0 -12 -1 -25.5t-1 -20.5t1 -18t1 -21q0 -7 -1 -12t-4 -5q-4 0 -10.5 7.5t-15.5 16t-19.5 16t-22.5 7.5q-31 0 -62 -1.5t-63 -3.5v-77t1 -71.5t1.5 -62t2.5 -49.5q1 -18 4.5 -30.5t12.5 -20t26 -11t45 -3.5
q22 0 46 8.5t44.5 24t35 36.5t16.5 46q0 4 4 9t15 5q7 0 13.5 -2t6.5 -12q0 -6 -0.5 -30.5t-4 -51t-11 -47.5t-20.5 -21q-31 0 -73.5 1.5t-89.5 1.5q-44 0 -88.5 -1t-81 -2.5t-62.5 -5t-34 -7.5h-1q-8 -2 -10 -2q-5 0 -7 4.5t-2 9.5q0 16 11 18q19 6 28 6q0 6 1 31.5t2 62
t2 80.5t1 87q0 16 -6.5 23.5t-15 11.5t-15 6.5t-6.5 8.5v1q0 8 7 9.5t15 5t15 12.5t7 33q0 48 -1 96t-3 90.5t-5 79t-8 62.5q-1 5 -8 6.5t-13 1.5h-7q-10 0 -10 14q0 5 2 8.5t7 4.5q7 1 20.5 2t29.5 1.5t34 0.5h34q30 0 62.5 -1t74.5 -2t96.5 -2t129.5 -1zM300 809
q-7 9 -18.5 23.5t-23 30t-20 30t-8.5 23.5q0 6 5 15t13 9q4 0 8 -4q17 -18 30.5 -34t35.5 -35q13 7 23 13.5t20 13.5t22.5 15t29.5 19q6 4 12 4q5 0 9.5 -3.5t4.5 -12.5q0 -8 -5 -13q-24 -24 -50 -46.5t-54 -49.5q-5 -3 -8.5 -5t-8.5 -2q-8 0 -17 9z" />
    </font>
</defs>
</svg>
